<?xml version="1.0" encoding="UTF-8" standalone="no"?>
<!-- Created with Inkscape (http://www.inkscape.org/) -->

<svg
   xmlns:dc="http://purl.org/dc/elements/1.1/"
   xmlns:cc="http://creativecommons.org/ns#"
   xmlns:rdf="http://www.w3.org/1999/02/22-rdf-syntax-ns#"
   xmlns:svg="http://www.w3.org/2000/svg"
   xmlns="http://www.w3.org/2000/svg"
   xmlns:sodipodi="http://sodipodi.sourceforge.net/DTD/sodipodi-0.dtd"
   xmlns:inkscape="http://www.inkscape.org/namespaces/inkscape"
   id="svg3103"
   version="1.1"
   inkscape:version="0.48.5 r10040"
   width="195.00002"
   height="168.51857"
   sodipodi:docname="logo.png">
  <metadata
     id="metadata3109">
    <rdf:RDF>
      <cc:Work
         rdf:about="">
        <dc:format>image/svg+xml</dc:format>
        <dc:type
           rdf:resource="http://purl.org/dc/dcmitype/StillImage" />
        <dc:title></dc:title>
      </cc:Work>
    </rdf:RDF>
  </metadata>
  <defs
     id="defs3107" />
  <sodipodi:namedview
     pagecolor="#ffffff"
     bordercolor="#666666"
     borderopacity="1"
     objecttolerance="10"
     gridtolerance="10"
     guidetolerance="10"
     inkscape:pageopacity="0"
     inkscape:pageshadow="2"
     inkscape:window-width="1673"
     inkscape:window-height="1002"
     id="namedview3105"
     showgrid="false"
     fit-margin-top="0"
     fit-margin-left="0"
     fit-margin-right="0"
     fit-margin-bottom="0"
     inkscape:zoom="2.3888484"
     inkscape:cx="119.24945"
     inkscape:cy="99.721888"
     inkscape:window-x="0"
     inkscape:window-y="0"
     inkscape:window-maximized="0"
     inkscape:current-layer="svg3103" />
  <path
     style="fill:#000000"
     d="M 46.19197,165.25929 C 37.11914,150.34429 0,85.04497 0,83.999215 0,83.265598 10.74053,64.065659 23.86783,41.332683 L 47.73566,0 97.50001,0 147.26436,0 171.13218,41.332683 C 184.25949,64.065659 195.00001,83.265951 195.00001,84 c 0,0.734049 -10.74044,19.93434 -23.86765,42.66732 L 147.26471,168 97.71966,168.25929 48.1746,168.51857 46.19197,165.25929 z M 155.03675,118.25 c 10.57792,-18.287503 19.23259,-33.7 19.23259,-34.25 0,-0.55 -8.65467,-15.9625 -19.23259,-34.25 l -19.23258,-33.25 -38.30416,0 -38.30417,0 -19.23258,33.25 C 29.38534,68.0375 20.73068,83.45 20.73068,84 c 0,0.55 8.65466,15.962497 19.23258,34.25 l 19.23258,33.25 38.30417,0 38.30416,0 19.23258,-33.25 z M 54.20821,132.21215 C 51.8937,129.85383 50,127.22625 50,126.37309 c 0,-0.85317 2.18399,-3.53614 4.8533,-5.96215 2.66931,-2.42602 11.07289,-10.39625 18.67462,-17.71163 L 87.34925,89.398627 80.27831,82.199314 c -3.88902,-3.959623 -8.63843,-8.946849 -10.55425,-11.082726 -1.91582,-2.135876 -3.92508,-3.610383 -4.46502,-3.276682 -0.53994,0.333702 -3.18161,3.991531 -5.87037,8.12851 -2.68877,4.136979 -5.6668,7.776337 -6.61785,8.087464 l -1.72919,0.565685 -8.02081,-6.105723 C 38.60937,75.157694 35,71.996016 35,71.48989 35,70.194093 45.55882,53.864769 49.73335,48.704607 54.87449,42.34962 74.8381,28.460077 78.72549,28.533529 l 1.77451,0.03353 5.39635,7.168098 c 2.96799,3.942454 5.58409,7.886013 5.81354,8.763464 l 0.4172,1.595365 -9.0787,6.103755 -9.0787,6.103754 11.20591,10.599253 c 6.16326,5.829588 11.45758,10.596643 11.76516,10.593453 0.30759,-0.0032 5.47631,-4.638861 11.48604,-10.301494 l 10.92679,-10.295695 -6.83527,-6.768312 -6.83527,-6.768313 8.3864,-8.430194 C 118.68197,32.293587 122.92879,28.5 123.50682,28.5 c 0.57803,0 3.94225,2.917215 7.47604,6.482699 l 6.42508,6.482699 2.04603,-1.913911 2.04604,-1.913912 3.75,3.444671 c 4.28632,3.937318 4.34011,4.108212 2.07942,6.606245 l -1.67058,1.845973 2.63788,2.753353 2.63788,2.753354 4.0327,10.870677 c 4.09872,11.048645 4.72723,14.040873 3.15355,15.013465 -0.48354,0.298841 -5.99604,-1.316459 -12.25,-3.589554 l -11.37085,-4.132901 -3.23502,-3.033076 c -1.77926,-1.668192 -3.35426,-2.824272 -3.5,-2.569067 -0.14574,0.255205 -4.93906,5.243916 -10.65181,11.086024 l -10.38684,10.622008 13.88684,13.416203 c 7.63775,7.37891 16.02433,15.35425 18.63683,17.72298 2.6125,2.36874 4.75,5.09217 4.75,6.05207 0,1.89243 -8.2122,10 -10.12905,10 -0.64555,0 -3.46811,-2.38065 -6.27234,-5.29034 -2.80424,-2.90968 -10.82427,-11.20448 -17.82231,-18.43288 L 97.05261,99.634227 79.20101,118.06711 C 69.38264,128.2052 60.6895,136.5 59.88292,136.5 c -0.80657,0 -3.36019,-1.92953 -5.67471,-4.28785 z"
     id="path3117"
     inkscape:connector-curvature="0" />
</svg>
