<svg xmlns="http://www.w3.org/2000/svg" width="282.624" height="283.739"><path d="M126.665 283.465c-.825-.2-4.875-.907-9-1.576-43.124-6.984-82.818-36.217-102.472-75.466-6.427-12.835-9.738-22.14-12.81-36-3.004-13.54-3.21-43.687-.382-56C5.187 100.546 7.79 92.737 12.83 81.97c7.894-16.876 15.486-27.78 28.286-40.624C63.142 19.243 90.69 5.524 122.182.973c8.973-1.297 28.992-1.297 37.966 0 58.454 8.447 104.72 50.378 118.505 107.4 14.035 58.062-9.9 118.92-59.72 151.847-15.92 10.52-30.287 16.49-51.268 21.303-5.917 1.357-37.26 2.84-41 1.942zm-26.215-73.803c8.736-3.116 14.9-9.33 17.093-17.238.702-2.53 1.112-15.292 1.116-34.7l.005-30.7 5.75-.3c5.656-.295 5.75-.35 5.75-3.3v-3l-9.25-.288-9.25-.287V132.197l-4.897-4.58c-6.447-6.032-11.052-7.95-19.29-8.036-5.733-.06-7.656.424-13.463 3.386-23.1 11.783-23.463 45.898-.61 57.15 5.688 2.8 7.635 3.248 13.848 3.193 8.75-.075 16.7-3.488 21.392-9.178l3.02-3.664v7.985c0 9.12-.985 13.347-4.223 18.134-6.11 9.034-24.96 11.04-35.625 3.795l-3.61-2.454-2.516 2.515-2.515 2.516 2.995 2.467c5.02 4.138 13.893 6.558 22.495 6.133 4.125-.203 9.428-1.057 11.785-1.898zm-23.53-35.258c-8.115-4.106-12.403-11.876-12.403-22.48 0-10.93 4.816-19.223 13.677-23.56 4.727-2.31 6.374-2.627 11.148-2.134 10.845 1.12 20.244 10.322 21.914 21.454 1.463 9.76-3.344 20.4-11.723 25.946-6.167 4.08-15.45 4.398-22.612.774zm84.745 4.52c0-2.945-.095-3-5.153-3h-5.153l.602-11.75c1.073-20.902 8.603-42.896 20.86-60.93 1.598-2.35 2.843-5.525 2.843-7.25v-3.07h-52v20h7.14l-.255-6.25-.256-6.25 18.634-.272 18.633-.272-5.762 9.272c-3.17 5.1-6.908 11.972-8.306 15.272-5.85 13.804-9.827 32.548-9.827 46.298v5.35l-5.246-.278c-4.348-.23-5.304.023-5.585 1.484-.84 4.363.062 4.646 14.798 4.646h14.032v-3zm48-70v-10h20v-6h-20V72.79l-2.75.317-2.75.317-.287 9.75-.286 9.75h-19.927v6h20v20h6v-10z" fill="#fff"/></svg>