<svg xmlns="http://www.w3.org/2000/svg" width="195" height="168.519"><path d="M46.192 165.26C37.12 150.343 0 85.044 0 84c0-.734 10.74-19.934 23.868-42.667L47.736 0h99.528l23.868 41.333C184.26 64.066 195 83.266 195 84c0 .734-10.74 19.934-23.868 42.667L147.265 168l-49.545.26-49.545.26-1.983-3.26zm108.845-47.01C165.615 99.962 174.27 84.55 174.27 84c0-.55-8.655-15.963-19.233-34.25L135.804 16.5H59.196L39.963 49.75C29.385 68.037 20.73 83.45 20.73 84c0 .55 8.655 15.962 19.233 34.25l19.233 33.25h76.608l19.233-33.25zm-100.83 13.962c-2.313-2.358-4.207-4.986-4.207-5.84 0-.852 2.184-3.535 4.853-5.96 2.67-2.427 11.073-10.397 18.675-17.713l13.82-13.3-7.07-7.2c-3.89-3.96-8.638-8.948-10.554-11.083-1.916-2.136-3.925-3.61-4.465-3.277-.54.334-3.183 3.99-5.87 8.128-2.69 4.137-5.668 7.777-6.62 8.088l-1.728.566-8.02-6.106C38.608 75.158 35 71.996 35 71.49c0-1.296 10.56-17.625 14.733-22.785 5.14-6.355 25.105-20.245 28.992-20.17l1.775.032 5.396 7.168c2.968 3.943 5.584 7.886 5.814 8.764l.417 1.594-9.08 6.104L73.97 58.3l11.206 10.6c6.163 5.83 11.457 10.597 11.765 10.594.308-.003 5.477-4.64 11.487-10.3l10.927-10.297-6.836-6.768-6.835-6.77 8.386-8.43c4.612-4.636 8.86-8.43 9.437-8.43.578 0 3.942 2.917 7.476 6.483l6.425 6.482 2.046-1.914 2.046-1.912 3.75 3.444c4.286 3.938 4.34 4.108 2.08 6.606l-1.67 1.846 2.637 2.754 2.638 2.753 4.032 10.872c4.1 11.048 4.728 14.04 3.154 15.013-.483.3-5.995-1.316-12.25-3.59l-11.37-4.132-3.235-3.033c-1.78-1.668-3.354-2.824-3.5-2.57-.146.256-4.94 5.245-10.652 11.087L106.726 89.31l13.887 13.415c7.638 7.38 16.025 15.354 18.637 17.723 2.613 2.37 4.75 5.092 4.75 6.052 0 1.892-8.212 10-10.13 10-.645 0-3.467-2.38-6.27-5.29-2.806-2.91-10.826-11.205-17.824-18.433L97.053 99.634 79.2 118.067C69.384 128.205 60.69 136.5 59.884 136.5c-.807 0-3.36-1.93-5.675-4.288z" fill="#f9f9f9"/></svg>