<?xml version="1.0" encoding="UTF-8" standalone="no"?>
<!-- Created with Inkscape (http://www.inkscape.org/) -->

<svg
   xmlns:dc="http://purl.org/dc/elements/1.1/"
   xmlns:cc="http://creativecommons.org/ns#"
   xmlns:rdf="http://www.w3.org/1999/02/22-rdf-syntax-ns#"
   xmlns:svg="http://www.w3.org/2000/svg"
   xmlns="http://www.w3.org/2000/svg"
   xmlns:sodipodi="http://sodipodi.sourceforge.net/DTD/sodipodi-0.dtd"
   xmlns:inkscape="http://www.inkscape.org/namespaces/inkscape"
   id="svg2"
   version="1.1"
   inkscape:version="0.48.5 r10040"
   width="401.03589"
   height="125.6725"
   xml:space="preserve"
   sodipodi:docname="logo_grid_white_en.svg"><metadata
     id="metadata8"><rdf:RDF><cc:Work
         rdf:about=""><dc:format>image/svg+xml</dc:format><dc:type
           rdf:resource="http://purl.org/dc/dcmitype/StillImage" /><dc:title></dc:title></cc:Work></rdf:RDF></metadata><defs
     id="defs6"><clipPath
       clipPathUnits="userSpaceOnUse"
       id="clipPath16"><path
         d="M 0,792 612,792 612,0 0,0 0,792 z"
         id="path18"
         inkscape:connector-curvature="0" /></clipPath></defs><sodipodi:namedview
     pagecolor="#000000"
     bordercolor="#666666"
     borderopacity="1"
     objecttolerance="10"
     gridtolerance="10"
     guidetolerance="10"
     inkscape:pageopacity="0.17647059"
     inkscape:pageshadow="2"
     inkscape:window-width="1676"
     inkscape:window-height="1010"
     id="namedview4"
     showgrid="false"
     inkscape:zoom="2.3778042"
     inkscape:cx="223.54679"
     inkscape:cy="18.120333"
     inkscape:window-x="0"
     inkscape:window-y="0"
     inkscape:window-maximized="0"
     inkscape:current-layer="g14"
     fit-margin-top="0"
     fit-margin-left="0"
     fit-margin-right="0"
     fit-margin-bottom="0" /><g
     id="g10"
     inkscape:groupmode="layer"
     inkscape:label="logo_grid_black_en"
     transform="matrix(1.25,0,0,-1.25,-163.09412,562.35113)"><g
       id="g12"><g
         id="g14"
         clip-path="url(#clipPath16)"><g
           id="g20"
           transform="translate(193.7598,350.4961)"
           style="fill:#ffffff"><path
             d="m 0,0 -16.258,0 0,0.575 c 1.928,0.117 2.619,0.385 2.619,2.704 l 0,13.36 c 0,2.371 -0.722,2.553 -2.619,2.704 l 0,0.568 15.986,0 0.09,-4.299 -0.752,0 c -0.451,2.679 -1.233,3.162 -4.576,3.162 l -4.063,0 c -0.634,0 -0.995,0 -0.995,-1.025 l 0,-6.676 4.636,0 c 2.679,0 2.981,0.719 3.313,2.855 l 0.692,0 0,-6.978 -0.692,0 c -0.363,2.404 -0.814,2.829 -3.313,2.856 l -4.636,0.064 0,-7.467 c 0,-1.227 0,-1.259 4.485,-1.259 3.765,0 5.269,0.901 6.595,3.939 l 0.842,0 L 0,0 z"
             style="fill:#ffffff;fill-opacity:1;fill-rule:nonzero;stroke:none"
             id="path22"
             inkscape:connector-curvature="0" /></g><g
           id="g24"
           transform="translate(203.3633,360.4521)"
           style="fill:#ffffff"><path
             d="m 0,0 c 0.572,-0.059 1.174,-0.086 1.808,-0.086 1.114,0 5.147,0 5.147,4.566 0,4.306 -4.394,4.365 -5.719,4.365 C 0.333,8.845 0,8.818 0,7.819 L 0,0 z m -5.599,9.955 7.949,0 c 4.153,0 7.886,-1.594 7.886,-5.408 C 10.236,2.194 8.912,0.967 8.4,0.482 7.105,-0.752 5.18,-1.294 2.018,-1.294 1.297,-1.294 0.723,-1.262 0,-1.202 l 0,-5.475 c 0,-2.194 0.514,-2.645 2.83,-2.704 l 0,-0.575 -8.429,0 0,0.575 c 2.531,0.176 2.531,0.869 2.531,3.037 l 0,13.027 c 0,2.135 -0.334,2.495 -2.531,2.704 l 0,0.568 z"
             style="fill:#ffffff;fill-opacity:1;fill-rule:nonzero;stroke:none"
             id="path26"
             inkscape:connector-curvature="0" /></g><g
           id="g28"
           transform="translate(151.2783,370.2568)"
           style="fill:#ffffff"><path
             d="m 0,0 c -2.319,-0.234 -2.83,-0.686 -2.83,-3.848 l 0,-7.851 c 0,-2.405 0,-8.062 -7.798,-8.062 -7.466,0 -7.466,5.866 -7.466,7.676 l 0,9.381 c 0,2.227 -0.421,2.56 -2.709,2.704 l 0,0.575 8.519,0 0,-0.575 c -2.378,-0.176 -2.739,-0.568 -2.739,-2.704 l 0,-9.629 c 0,-1.921 0,-6.102 5.237,-6.102 2.349,0 4.065,0.96 4.939,2.372 0.391,0.667 0.691,1.659 0.691,4.096 l 0,8.119 c 0,3.221 -0.722,3.731 -2.829,3.848 l 0,0.575 L 0,0.575 0,0 z"
             style="fill:#ffffff;fill-opacity:1;fill-rule:nonzero;stroke:none"
             id="path30"
             inkscape:connector-curvature="0" /></g><g
           id="g32"
           transform="translate(174.8516,370.1729)"
           style="fill:#ffffff"><path
             d="m 0,0 c -1.898,-0.217 -2.861,-0.334 -2.861,-3.855 l 0,-15.822 -0.512,0 -13.244,16.482 -0.063,0 0,-11.726 c 0,-3.102 0.634,-3.763 2.83,-3.854 l 0,-0.569 -7.072,0 0,0.569 c 2.285,0.15 2.92,0.601 2.92,3.854 l 0,13.261 C -19.236,-0.15 -19.719,0 -20.922,0 l 0,0.568 5.147,0 11.531,-14.47 0.06,0 0,10.047 c 0,3.462 -0.845,3.705 -2.891,3.855 l 0,0.568 L 0,0.568 0,0 z"
             style="fill:#ffffff;fill-opacity:1;fill-rule:nonzero;stroke:none"
             id="path34"
             inkscape:connector-curvature="0" /></g><g
           id="g36"
           transform="translate(167.7793,447.5508)"
           style="fill:#ffffff"><path
             d="m 0,0 -2.283,-0.601 -3.594,-1.548 -2.759,-0.96 0.599,-0.124 2.639,0 1.44,-0.236 1.319,-0.365 1.678,-0.836 1.561,-0.484 0.357,-0.235 -2.875,-0.242 -1.802,0.118 -2.278,0.49 -3.236,1.071 -0.842,0.118 -1.2,-0.118 -0.719,0.118 0.599,0.365 0.841,0.36 1.198,1.071 1.2,0.843 1.919,1.078 L -5.16,0.359 -3,0.836 -1.918,0.96 -0.839,0.836 0.238,0.595 1.436,0.242 0,0 z"
             style="fill:#ffffff;fill-opacity:1;fill-rule:evenodd;stroke:none"
             id="path38"
             inkscape:connector-curvature="0" /></g><g
           id="g40"
           transform="translate(155.9023,446.4731)"
           style="fill:#ffffff"><path
             d="m 0,0 -2.877,-3.593 -1.917,-1.555 -1.921,-1.209 -0.361,-0.47 0.361,0.119 2.156,1.195 1.682,0.476 L 0,-4.906 3.72,-5.037 1.801,-5.99 l -2.52,-0.837 -7.677,-1.678 -0.836,-0.366 -0.721,-0.601 -0.241,0 0.241,0.601 0.721,0.959 1.435,2.647 0.841,1.189 1.44,1.803 0.957,1.078 1.203,0.953 1.557,0.836 L 0,1.32 2.041,1.796 0,0 z"
             style="fill:#ffffff;fill-opacity:1;fill-rule:evenodd;stroke:none"
             id="path42"
             inkscape:connector-curvature="0" /></g><g
           id="g44"
           transform="translate(189.7275,446.5908)"
           style="fill:#ffffff"><path
             d="m 0,0 -0.835,0.477 1.676,-0.118 1.558,-0.477 1.32,-0.601 2.04,-1.319 1.2,-1.196 -2.161,0.477 -1.318,0.608 -1.2,0.594 -1.8,1.32 L 0,0 z"
             style="fill:#ffffff;fill-opacity:1;fill-rule:evenodd;stroke:none"
             id="path46"
             inkscape:connector-curvature="0" /></g><g
           id="g48"
           transform="translate(171.0186,446.4731)"
           style="fill:#ffffff"><path
             d="m 0,0 2.396,0.235 1.921,-0.117 2.039,-0.595 1.081,-0.594 -2.04,0 -3.839,-0.484 -2.041,0.118 -0.598,-0.118 0,-0.124 0.241,-0.124 1.919,-0.588 1.076,-0.484 3.481,-2.88 -2.998,0.718 -2.039,0.725 -0.839,0.595 -2.162,1.797 -1.436,0.483 2.64,1.078 L 0,0 z"
             style="fill:#ffffff;fill-opacity:1;fill-rule:evenodd;stroke:none"
             id="path50"
             inkscape:connector-curvature="0" /></g><g
           id="g52"
           transform="translate(198.2461,443.834)"
           style="fill:#ffffff"><path
             d="m 0,0 -1.56,2.038 2.398,-1.202 1.199,-0.954 0.483,-0.477 0.476,-0.96 0.723,-1.437 0.359,-2.038 0.481,-1.084 0.119,-0.954 -0.479,0.6 -0.961,0.719 -1.56,0.719 -2.158,0.718 -1.08,0.484 -1.919,1.071 -1.678,1.32 0.719,-0.118 3.958,-0.712 1.078,-0.607 1.922,-1.314 0.358,-0.124 -0.24,0.719 -1.56,1.797 L 0,0 z"
             style="fill:#ffffff;fill-opacity:1;fill-rule:evenodd;stroke:none"
             id="path54"
             inkscape:connector-curvature="0" /></g><g
           id="g56"
           transform="translate(146.3066,443.2393)"
           style="fill:#ffffff"><path
             d="m 0,0 -1.438,-2.756 -0.599,-1.68 -0.481,-1.554 -0.718,-1.803 -1.441,-2.516 -1.079,-1.437 0,-0.358 0.48,0.228 0.719,0.967 0.961,0.96 1.321,0.961 1.437,0.593 3.478,0.955 2.042,0.725 -3.241,-2.992 -2.279,-1.68 -1.199,-0.842 -3.838,-1.914 -1.078,-0.966 -1.442,-1.666 0.122,0.593 0.599,1.321 0.36,4.311 0.48,2.155 1.078,2.64 0.841,1.437 0.958,1.444 1.201,1.436 1.679,1.197 L 0.842,0.96 0,0 z"
             style="fill:#ffffff;fill-opacity:1;fill-rule:evenodd;stroke:none"
             id="path58"
             inkscape:connector-curvature="0" /></g><g
           id="g60"
           transform="translate(180.7324,442.397)"
           style="fill:#ffffff"><path
             d="M 0,0 1.319,-0.96 2.402,-1.914 3.119,-2.875 3.48,-3.593 2.278,-2.75 0.6,-2.032 -1.439,-0.83 -4.316,1.078 -2.16,0.842 -0.719,0.359 0,0 z"
             style="fill:#ffffff;fill-opacity:1;fill-rule:evenodd;stroke:none"
             id="path62"
             inkscape:connector-curvature="0" /></g><g
           id="g64"
           transform="translate(203.8828,440.4834)"
           style="fill:#ffffff"><path
             d="m 0,0 0.839,-0.602 0.841,-0.961 0.84,-1.318 0.959,-1.914 0.718,-2.398 0.36,-2.998 0,-3.711 -0.12,-0.118 -2.041,2.267 -2.156,1.686 -2.282,1.914 -1.198,1.326 -1.076,1.431 -0.842,1.554 0.482,-0.117 0.836,-0.595 1.319,-0.725 2.043,-0.953 0.957,-0.719 1.317,-1.438 0.6,-0.842 0.604,-1.32 0.24,0 0,0.236 L 2.762,-8.631 1.796,-6.827 1.439,-5.756 1.082,-4.685 0.598,-1.563 0.362,-0.719 0,0 z"
             style="fill:#ffffff;fill-opacity:1;fill-rule:evenodd;stroke:none"
             id="path66"
             inkscape:connector-curvature="0" /></g><g
           id="g68"
           transform="translate(136.4727,432.4541)"
           style="fill:#ffffff"><path
             d="m 0,0 -0.24,-0.719 -0.24,-1.567 0.601,-6.102 -0.478,-5.154 0.236,0 0.121,0.353 0.361,1.437 0.599,1.561 1.079,1.679 1.557,1.555 3.24,2.162 0.842,0.836 -0.6,-2.279 -1.201,-2.399 -0.958,-1.429 -1.323,-1.444 -2.876,-2.992 -1.2,-3.234 -0.12,-0.124 -0.238,0.124 0,0.235 -0.961,3.959 -0.72,1.673 -0.48,1.56 -0.362,2.032 -0.118,1.085 0.241,2.397 0.357,1.313 1.082,2.639 0.719,1.438 0.959,1.202 L 0.84,3.116 0,0 z"
             style="fill:#ffffff;fill-opacity:1;fill-rule:evenodd;stroke:none"
             id="path70"
             inkscape:connector-curvature="0" /></g><g
           id="g72"
           transform="translate(172.4551,434.1328)"
           style="fill:#ffffff"><path
             d="m 0,0 3.6,-0.248 3.478,-0.836 3.118,-1.437 2.881,-1.796 2.519,-2.281 2.157,-2.639 1.8,-2.998 1.2,-3.227 -18.833,2.274 -0.719,0.117 -0.242,0.241 0,0.249 1.445,1.07 0.477,0.719 0.358,0.954 0,1.085 -0.48,1.201 L 1.801,-6.598 1.32,-6.356 0,-6.114 -1.199,-6.356 -1.798,-6.598 -2.635,-7.552 -3.117,-8.753 -3.24,-9.838 l 0.363,-0.954 0.601,-0.719 1.318,-1.07 0.12,-0.249 -0.241,-0.241 -0.719,-0.117 -18.95,-2.274 1.318,3.227 1.678,2.998 2.16,2.639 2.52,2.281 2.879,1.796 3.234,1.437 3.363,0.836 L 0,0 z"
             style="fill:#ffffff;fill-opacity:1;fill-rule:evenodd;stroke:none"
             id="path74"
             inkscape:connector-curvature="0" /></g><g
           id="g76"
           transform="translate(210.2402,431.252)"
           style="fill:#ffffff"><path
             d="m 0,0 0.721,-1.679 0.595,-1.914 0.123,-2.397 0,-1.196 -0.24,-1.202 -0.596,-2.038 -1.082,-2.762 -0.601,-2.033 -0.482,-0.477 -0.359,2.15 -1.917,2.527 -1.681,2.875 -0.838,1.678 -0.721,1.68 -0.481,1.914 3.963,-3.842 1.197,-1.56 0.598,-1.078 0.602,-2.875 0.119,0.843 0.358,5.155 0.839,5.036 L 0,0 z"
             style="fill:#ffffff;fill-opacity:1;fill-rule:evenodd;stroke:none"
             id="path78"
             inkscape:connector-curvature="0" /></g><g
           id="g80"
           transform="translate(131.7949,419.2646)"
           style="fill:#ffffff"><path
             d="m 0,0 0.359,-1.561 0.598,-1.791 0.84,-1.919 2.162,-3.476 0.96,-2.633 0.359,-1.921 0.36,-0.476 0.119,0.117 0,0.359 -0.119,4.672 0.6,2.397 0.716,1.685 1.564,2.15 0.717,1.319 0.481,0.607 0,-2.881 -0.361,-2.88 -0.837,-3.11 -1.321,-3.599 -0.48,-1.561 -0.119,-0.602 0,-2.148 -0.244,0.234 -1.198,1.803 -3.717,4.313 -1.08,1.678 -0.599,1.084 -0.481,1.307 -0.478,1.796 -0.12,1.922 0.357,2.162 L -0.24,1.438 0,1.195 0,0 z"
             style="fill:#ffffff;fill-opacity:1;fill-rule:evenodd;stroke:none"
             id="path82"
             inkscape:connector-curvature="0" /></g><g
           id="g84"
           transform="translate(205.0801,416.8672)"
           style="fill:#ffffff"><path
             d="M 0,0 1.439,-2.757 2.16,-4.905 2.4,-5.99 l 0,-0.954 -0.24,-2.763 0.122,-0.359 0.357,0.483 0.72,2.515 0.84,2.163 L 7.561,0.726 8.396,2.999 8.52,2.28 8.52,0.124 8.396,-1.313 8.162,-2.874 7.561,-4.546 6.72,-6.231 5.763,-7.669 4.559,-9.341 3,-11.021 l -1.436,-2.645 -0.365,-0.353 -0.117,0.712 0.117,0.726 0,0.96 -0.117,1.195 -1.8,5.036 -0.598,2.516 -0.12,1.201 0.12,2.869 0.242,1.568 L 0,0 z"
             style="fill:#ffffff;fill-opacity:1;fill-rule:evenodd;stroke:none"
             id="path86"
             inkscape:connector-curvature="0" /></g><g
           id="g88"
           transform="translate(165.4961,415.9131)"
           style="fill:#ffffff"><path
             d="m 0,0 0.844,-0.241 0.841,-0.366 0.957,-0.712 0.962,-1.202 0.837,-1.672 0.598,-2.405 0.122,-3.233 -0.239,-3.233 -0.481,-2.881 -0.722,-2.391 -0.836,-2.045 -0.841,-1.555 -1.319,-2.032 -3.238,1.197 -2.879,1.795 -2.641,2.156 -2.278,2.521 -1.798,2.875 -1.439,3.115 -0.838,3.352 -0.243,3.594 0.123,2.644 0.479,2.51 L 0,0 z"
             style="fill:#ffffff;fill-opacity:1;fill-rule:evenodd;stroke:none"
             id="path90"
             inkscape:connector-curvature="0" /></g><g
           id="g92"
           transform="translate(179.4121,415.9131)"
           style="fill:#ffffff"><path
             d="m 0,0 14.034,1.791 0.479,-2.51 0.241,-2.644 -0.358,-3.594 -0.841,-3.352 -1.321,-3.115 -1.919,-2.875 -2.157,-2.521 -2.638,-2.156 -2.999,-1.795 -3.238,-1.197 -1.32,2.032 -0.84,1.555 -0.717,2.045 -0.723,2.391 -0.598,2.881 -0.241,3.233 0.241,3.233 0.478,2.405 0.843,1.672 0.959,1.202 0.957,0.712 0.838,0.366 L 0,0 z"
             style="fill:#ffffff;fill-opacity:1;fill-rule:evenodd;stroke:none"
             id="path94"
             inkscape:connector-curvature="0" /></g><g
           id="g96"
           transform="translate(212.5166,407.2842)"
           style="fill:#ffffff"><path
             d="m 0,0 0.364,0.836 0.477,0.602 -0.477,-2.876 -1.081,-3.481 -0.719,-1.797 -1.081,-1.679 -1.199,-1.437 -1.32,-1.195 -2.158,-1.444 -3.118,-1.43 -2.998,-1.562 0.596,1.921 0,3.351 0.364,3.716 0.957,3.477 0.96,2.515 0.84,1.443 0.721,-5.513 -0.12,-1.803 -0.245,-1.562 -0.475,-1.789 -0.48,-1.196 -1.082,-1.685 -0.119,-0.719 0.361,0.242 1.078,0.96 3.6,4.546 5.394,5.638 0.603,0.837 L 0,0 z"
             style="fill:#ffffff;fill-opacity:1;fill-rule:evenodd;stroke:none"
             id="path98"
             inkscape:connector-curvature="0" /></g><g
           id="g100"
           transform="translate(134.3135,402.6064)"
           style="fill:#ffffff"><path
             d="m 0,0 3.957,-3.24 4.44,-5.148 0.598,-0.6 0,0.241 -1.917,3.476 -0.48,1.914 -0.242,1.319 0,1.561 0.122,1.797 0.359,1.92 0.721,2.156 1.199,-2.639 0.719,-2.632 0.242,-1.563 0.119,-1.554 -0.119,-3.717 0.478,-1.92 0.72,-2.156 -0.24,-0.124 -0.36,0 -6.717,2.881 -1.319,0.842 -1.32,1.196 -1.319,1.554 -1.203,1.797 -0.835,2.28 L -2.878,2.045 -2.999,4.92 -2.64,3.835 -1.919,2.397 -0.722,0.713 0,0 z"
             style="fill:#ffffff;fill-opacity:1;fill-rule:evenodd;stroke:none"
             id="path102"
             inkscape:connector-curvature="0" /></g><g
           id="g104"
           transform="translate(146.3066,399.6143)"
           style="fill:#ffffff"><path
             d="m 0,0 2.761,-3.233 1.559,-2.163 1.08,-1.92 1.678,-3.71 0.602,-0.843 0.838,-0.719 0.96,-0.719 -0.121,-0.117 -0.961,-0.125 -2.756,0 -1.8,-0.351 -1.799,-0.125 -2.16,0.125 -2.399,0.476 -2.638,0.953 -2.518,1.68 -2.4,2.521 -1.919,3.593 1.559,-1.554 2.161,-1.797 1.32,-0.726 1.316,-0.6 1.32,-0.353 2.52,-0.359 2.639,-0.484 2.517,-0.836 2.52,-1.202 0.721,-0.117 -0.361,0.352 -1.557,0.849 -0.723,0.595 -0.84,0.843 -0.718,1.078 -0.838,1.43 -0.842,2.64 L 0,0 z"
             style="fill:#ffffff;fill-opacity:1;fill-rule:evenodd;stroke:none"
             id="path106"
             inkscape:connector-curvature="0" /></g><g
           id="g108"
           transform="translate(197.167,396.2568)"
           style="fill:#ffffff"><path
             d="m 0,0 -0.48,-2.279 -0.601,-1.68 -0.359,-0.836 -2.16,-2.639 -0.719,-0.594 -1.319,-0.967 -0.363,-0.353 0.123,-0.125 1.316,0.243 4.44,2.038 6.001,2.038 1.434,0.594 1.444,0.719 1.438,0.967 1.2,1.077 0.957,1.19 -0.84,-2.15 -1.077,-1.555 -2.039,-2.162 -1.44,-1.195 -1.678,-1.202 -2.043,-1.078 -2.156,-0.594 -2.402,-0.242 -5.398,0.594 -2.276,-0.118 1.558,1.314 0.84,0.849 2.521,4.906 0.96,1.561 1.197,1.555 2.4,2.397 L 0,0 z"
             style="fill:#ffffff;fill-opacity:1;fill-rule:evenodd;stroke:none"
             id="path110"
             inkscape:connector-curvature="0" /></g><g
           id="g112"
           transform="translate(180.6133,385.5889)"
           style="fill:#ffffff"><path
             d="m 0,0 2.521,-0.117 2.155,-0.248 1.92,-0.471 5.279,-1.443 1.799,-0.36 2.042,-0.117 0.957,0 1.198,0.352 1.44,0.608 -1.2,-1.078 L 17.152,-3.475 15.716,-4.076 13.795,-4.677 11.514,-5.029 8.635,-5.154 6.359,-5.029 4.318,-4.553 2.397,-4.076 -3,-2.155 -4.559,-1.679 -6.238,-1.561 -7.799,-1.796 -5.638,-2.515 -3,-4.076 -0.838,-5.637 0.6,-6.95 1.798,-8.146 0.479,-8.982 -1.32,-6.95 l -1.321,1.313 -1.437,1.201 -1.676,1.085 -1.803,0.947 -1.32,0.359 -1.437,-0.359 -1.799,-0.947 -1.682,-1.085 -2.759,-2.514 -1.798,-2.032 -1.32,0.836 1.199,1.196 1.44,1.313 2.16,1.561 2.76,1.561 2.035,0.719 -1.557,0.235 -1.678,-0.118 -1.56,-0.476 -5.398,-1.921 -1.92,-0.477 -2.038,-0.476 -2.281,-0.125 -2.877,0.125 -2.28,0.352 -1.919,0.601 -1.439,0.601 -0.958,0.601 -1.201,1.078 0.721,-0.359 1.318,-0.484 1.802,-0.117 1.797,0.117 1.798,0.36 5.28,1.443 1.917,0.471 2.28,0.248 2.4,0.117 4.796,-0.365 4.198,-0.948 4.199,0.948 L 0,0 z"
             style="fill:#ffffff;fill-opacity:1;fill-rule:evenodd;stroke:none"
             id="path114"
             inkscape:connector-curvature="0" /></g><path
           d="m 292.041,392.808 -44.361,0 0,44.324 44.361,0 0,-44.324 z"
           style="fill:none;stroke:#ffffff;stroke-width:2;stroke-linecap:butt;stroke-linejoin:miter;stroke-miterlimit:4;stroke-opacity:1;stroke-dasharray:none"
           id="path116"
           inkscape:connector-curvature="0" /><text
           transform="matrix(1,0,0,-1,253.1309,400.0591)"
           id="text118"
           style="fill:#ffffff"><tspan
             style="font-size:43.0163002px;font-variant:normal;font-weight:bold;font-stretch:normal;writing-mode:lr-tb;fill:#ffffff;fill-opacity:1;fill-rule:nonzero;stroke:none;font-family:Times New Roman;-inkscape-font-specification:TimesNewRomanPS-BoldMT"
             x="0"
             y="0"
             id="tspan120">G</tspan></text>
<path
           d="m 344.795,392.808 -44.359,0 0,44.324 44.359,0 0,-44.324 z"
           style="fill:none;stroke:#ffffff;stroke-width:2;stroke-linecap:butt;stroke-linejoin:miter;stroke-miterlimit:4;stroke-opacity:1;stroke-dasharray:none"
           id="path122"
           inkscape:connector-curvature="0" /><text
           transform="matrix(1,0,0,-1,306.8726,400.0591)"
           id="text124"
           style="fill:#ffffff"><tspan
             style="font-size:43.0163002px;font-variant:normal;font-weight:bold;font-stretch:normal;writing-mode:lr-tb;fill:#ffffff;fill-opacity:1;fill-rule:nonzero;stroke:none;font-family:Times New Roman;-inkscape-font-specification:TimesNewRomanPS-BoldMT"
             x="0"
             y="0"
             id="tspan126">R</tspan></text>
<path
           d="m 397.553,392.808 -44.362,0 0,44.324 44.362,0 0,-44.324 z"
           style="fill:none;stroke:#ffffff;stroke-width:2;stroke-linecap:butt;stroke-linejoin:miter;stroke-miterlimit:4;stroke-opacity:1;stroke-dasharray:none"
           id="path128"
           inkscape:connector-curvature="0" /><text
           transform="matrix(1,0,0,-1,367.002,400.0591)"
           id="text130"
           style="fill:#ffffff"><tspan
             style="font-size:43.0163002px;font-variant:normal;font-weight:bold;font-stretch:normal;writing-mode:lr-tb;fill:#ffffff;fill-opacity:1;fill-rule:nonzero;stroke:none;font-family:Times New Roman;-inkscape-font-specification:TimesNewRomanPS-BoldMT"
             x="0"
             y="0"
             id="tspan132">I</tspan></text>
<path
           d="m 450.304,392.808 -44.356,0 0,44.324 44.356,0 0,-44.324 z"
           style="fill:none;stroke:#ffffff;stroke-width:2;stroke-linecap:butt;stroke-linejoin:miter;stroke-miterlimit:4;stroke-opacity:1;stroke-dasharray:none"
           id="path134"
           inkscape:connector-curvature="0" /><text
           transform="matrix(1,0,0,-1,412.5933,400.0591)"
           id="text136"
           style="fill:#ffffff"><tspan
             style="font-size:43.0163002px;font-variant:normal;font-weight:bold;font-stretch:normal;writing-mode:lr-tb;fill:#ffffff;fill-opacity:1;fill-rule:nonzero;stroke:none;font-family:Times New Roman;-inkscape-font-specification:TimesNewRomanPS-BoldMT"
             x="0"
             y="0"
             id="tspan138">D</tspan></text>
<text
           transform="matrix(1,0,0,-1,260.0674,358.5103)"
           id="text140"
           style="fill:#ffffff"><tspan
             style="font-size:34.0890007px;font-variant:normal;font-weight:normal;font-stretch:normal;writing-mode:lr-tb;fill:#ffffff;fill-opacity:1;fill-rule:nonzero;stroke:none;font-family:Times New Roman;-inkscape-font-specification:TimesNewRomanPSMT"
             x="0 40.293198 71.109657 103.83509 134.65155 167.37698"
             y="0"
             sodipodi:role="line"
             id="tspan142">Geneva</tspan></text>
<g
           id="g144"
           transform="translate(231.2734,448.3809)"><path
             d="M 0,0 0,-97.538"
             style="fill:none;stroke:#ffffff;stroke-width:3;stroke-linecap:butt;stroke-linejoin:miter;stroke-miterlimit:4;stroke-opacity:1;stroke-dasharray:none"
             id="path146"
             inkscape:connector-curvature="0" /></g></g></g></g></svg>