<?xml version="1.0" encoding="UTF-8" standalone="no"?>
<svg id="svg2" xmlns:rdf="http://www.w3.org/1999/02/22-rdf-syntax-ns#" xmlns="http://www.w3.org/2000/svg" width="1920" height="1080" viewBox="0 0 1920 1080" version="1.1" xmlns:cc="http://creativecommons.org/ns#" xmlns:dc="http://purl.org/dc/elements/1.1/">
 <metadata id="metadata536">
  <rdf:RDF>
   <cc:Work rdf:about="">
    <dc:format>image/svg+xml</dc:format>
    <dc:type rdf:resource="http://purl.org/dc/dcmitype/StillImage"/>
    <dc:title/>
   </cc:Work>
  </rdf:RDF>
 </metadata>
 <g stroke-width="1.51">
  <path id="path4" stroke="#4a7090" d="m944 1374l-937 19 1170 16z" fill="#4a7090"/>
  <path id="path6" stroke="#a7d1c9" d="m751-300l318 20 362-37z" fill="#a7d1c9"/>
  <path id="path8" stroke="#356890" d="m1177 1409l-1170-16 1568 38z" fill="#356890"/>
  <path id="path10" stroke="#b6dfcc" d="m288-358l264 32 1064-29z" fill="#b6dfcc"/>
  <path id="path12" stroke="#a3c6cb" d="m751-300l680-17 185-38z" fill="#a3c6cb"/>
  <path id="path14" stroke="#abd9cc" d="m552-326l199 26 865-55z" fill="#abd9cc"/>
  <path id="path16" stroke="#1a317e" d="m1771 1386l-196 45 498-62z" fill="#1a317e"/>
  <path id="path18" stroke="#1e3888" d="m2087 1027l-61 47 102 129z" fill="#1e3888"/>
  <path id="path20" stroke="#1c3e89" d="m2111 844l-24 183 41 176z" fill="#1c3e89"/>
  <path id="path22" stroke="#51769c" d="m2063 201l-132 143 208 177z" fill="#51769c"/>
  <path id="path24" stroke="#2b6296" d="m2084 588l27 256 28-323z" fill="#2b6296"/>
  <path id="path26" stroke="#1f4f8f" d="m2111 844l17 359 11-682z" fill="#1f4f8f"/>
  <path id="path28" stroke="#9c93b5" d="m1616-355l307 61 223 17z" fill="#9c93b5"/>
  <path id="path30" stroke="#7c8395" d="m2010 86l38 93 128-297z" fill="#7c8395"/>
  <path id="path32" stroke="#848595" d="m2033-76l-23 162 166-204z" fill="#848595"/>
  <path id="path34" stroke="#788193" d="m2048 179l15 22 113-319z" fill="#788193"/>
  <path id="path36" stroke="#326894" d="m2139 521l-11 682 48-1321z" fill="#326894"/>
  <path id="path38" stroke="#647a91" d="m2063 201l76 320 37-639z" fill="#647a91"/>
  <path id="path40" stroke="#8a8692" d="m2146-277l-113 201 143-42z" fill="#8a8692"/>
  <path id="path42" stroke="#1c2c80" d="m1865 1326l-94 60 302-17z" fill="#1c2c80"/>
  <path id="path44" stroke="#2f65a6" d="m1854 677l59 168 171-257z" fill="#2f65a6"/>
  <path id="path46" stroke="#265d9d" d="m2084 588l-171 257 198-1z" fill="#265d9d"/>
  <path id="path48" stroke="#3f71a3" d="m1896 441l50 129 193-49z" fill="#3f71a3"/>
  <path id="path50" stroke="#4a75a3" d="m1931 344l-35 97 243 80z" fill="#4a75a3"/>
  <path id="path52" stroke="#918b9f" d="m1923-294l110 218 113-201z" fill="#918b9f"/>
  <path id="path54" stroke="#366ca6" d="m1946 570l-92 107 230-89z" fill="#366ca6"/>
  <path id="path56" stroke="#224d95" d="m1913 845l174 182 24-183z" fill="#224d95"/>
  <path id="path58" stroke="#356b9d" d="m1946 570l138 18 55-67z" fill="#356b9d"/>
  <path id="path60" stroke="#1a2b7d" d="m1865 1326l208 43 55-166z" fill="#1a2b7d"/>
  <path id="path62" stroke="#20318a" d="m2026 1074l-161 252 263-123z" fill="#20318a"/>
  <path id="path64" stroke="#253694" d="m1813 1203l52 123 161-252z" fill="#253694"/>
  <path id="path66" stroke="#263d98" d="m1871 1081l-58 122 213-129z" fill="#263d98"/>
  <path id="path68" stroke="#214694" d="m1913 845l113 229 61-47z" fill="#214694"/>
  <path id="path70" stroke="#24479a" d="m1913 845l-42 236 155-7z" fill="#24479a"/>
  <path id="path72" stroke="#657d9d" d="m2048 179l-117 165 132-143z" fill="#657d9d"/>
  <path id="path74" stroke="#888aa0" d="m1848-14l162 100 23-162z" fill="#888aa0"/>
  <path id="path76" stroke="#948fa3" d="m1923-294l-75 280 185-62z" fill="#948fa3"/>
  <path id="path78" stroke="#6c7f9f" d="m2010 86l-79 258 117-165z" fill="#6c7f9f"/>
  <path id="path80" stroke="#7787a9" d="m1684 80l247 264 79-258z" fill="#7787a9"/>
  <path id="path82" stroke="#878fa9" d="m1848-14l-164 94 326 6z" fill="#878fa9"/>
  <path id="path84" stroke="#6789ab" d="m1684 80l69 271 178-7z" fill="#6789ab"/>
  <path id="path86" stroke="#6d7d92" d="m310 1321l-303 72 937-19z" fill="#6d7d92"/>
  <path id="path88" stroke="#2753a3" d="m1708 928l163 153 42-236z" fill="#2753a3"/>
  <path id="path90" stroke="#9897ad" d="m1681-224l167 210 75-280z" fill="#9897ad"/>
  <path id="path92" stroke="#4779ad" d="m1896 441l-126-9 176 138z" fill="#4779ad"/>
  <path id="path94" stroke="#3d76ae" d="m1770 432l84 245 92-107z" fill="#3d76ae"/>
  <path id="path96" stroke="#2c68ac" d="m1854 677l-104 49 163 119z" fill="#2c68ac"/>
  <path id="path98" stroke="#9c9eb8" d="m1616-355l65 131 242-70z" fill="#9c9eb8"/>
  <path id="path100" stroke="#567eac" d="m1753 351l143 90 35-97z" fill="#567eac"/>
  <path id="path102" stroke="#5180ad" d="m1753 351l17 81 126 9z" fill="#5180ad"/>
  <path id="path104" stroke="#2962aa" d="m1750 726l-42 202 205-83z" fill="#2962aa"/>
  <path id="path106" stroke="#7093af" d="m1684 80l-77 107 146 164z" fill="#7093af"/>
  <path id="path108" stroke="#397bb1" d="m1770 432l-156 202 240 43z" fill="#397bb1"/>
  <path id="path110" stroke="#3174b1" d="m1614 634l136 92 104-49z" fill="#3174b1"/>
  <path id="path112" stroke="#20358a" d="m1813 1203l-42 183 94-60z" fill="#20358a"/>
  <path id="path114" stroke="#26499e" d="m1708 928l105 275 58-122z" fill="#26499e"/>
  <path id="path116" stroke="#919aab" d="m1681-224l3 304 164-94z" fill="#919aab"/>
  <path id="path118" stroke="#2459a6" d="m1613 940l-67 259 162-271z" fill="#2459a6"/>
  <path id="path120" stroke="#264d9f" d="m1708 928l-162 271 267 4z" fill="#264d9f"/>
  <path id="path122" stroke="#96a2ae" d="m1681-224l-123 59 126 245z" fill="#96a2ae"/>
  <path id="path124" stroke="#233e93" d="m1546 1199l225 187 42-183z" fill="#233e93"/>
  <path id="path126" stroke="#2665ac" d="m1613 940l95-12 42-202z" fill="#2665ac"/>
  <path id="path128" stroke="#2571b1" d="m1540 723l73 217 137-214z" fill="#2571b1"/>
  <path id="path130" stroke="#4289b4" d="m1506 411l108 223 156-202z" fill="#4289b4"/>
  <path id="path132" stroke="#1e408b" d="m1546 1199l29 232 196-45z" fill="#1e408b"/>
  <path id="path134" stroke="#518ab1" d="m1753 351l-247 60 264 21z" fill="#518ab1"/>
  <path id="path136" stroke="#5b91b2" d="m1607 187l-101 224 247-60z" fill="#5b91b2"/>
  <path id="path138" stroke="#2c79b3" d="m1614 634l-74 89 210 3z" fill="#2c79b3"/>
  <path id="path140" stroke="#255ca7" d="m1453 1021l93 178 67-259z" fill="#255ca7"/>
  <path id="path142" stroke="#8ca4b0" d="m1558-165l-78 260 204-15z" fill="#8ca4b0"/>
  <path id="path144" stroke="#9ba7b8" d="m1616-355l-58 190 123-59z" fill="#9ba7b8"/>
  <path id="path146" stroke="#7f9eb0" d="m1480 95l127 92 77-107z" fill="#7f9eb0"/>
  <path id="path148" stroke="#93aeb3" d="m1404-94l76 189 78-260z" fill="#93aeb3"/>
  <path id="path150" stroke="#224c95" d="m1546 1199l-173 85 202 147z" fill="#224c95"/>
  <path id="path152" stroke="#7aa2b3" d="m1480 95l22 83 105 9z" fill="#7aa2b3"/>
  <path id="path154" stroke="#679bb4" d="m1502 178l4 233 101-224z" fill="#679bb4"/>
  <path id="path156" stroke="#2376b4" d="m1540 723l-190 114 263 103z" fill="#2376b4"/>
  <path id="path158" stroke="#236eb0" d="m1350 837l103 184 160-81z" fill="#236eb0"/>
  <path id="path160" stroke="#358eb9" d="m1506 411l-80 209 188 14z" fill="#358eb9"/>
  <path id="path162" stroke="#9daebd" d="m1431-317l127 152 58-190z" fill="#9daebd"/>
  <path id="path164" stroke="#2d85b8" d="m1426 620l114 103 74-89z" fill="#2d85b8"/>
  <path id="path166" stroke="#5ea0b7" d="m1502 178l-127 127 131 106z" fill="#5ea0b7"/>
  <path id="path168" stroke="#3e97bb" d="m1390 467l36 153 80-209z" fill="#3e97bb"/>
  <path id="path170" stroke="#1f5190" d="m1373 1284l-196 125 398 22z" fill="#1f5190"/>
  <path id="path172" stroke="#285ba7" d="m1453 1021l-95 190 188-12z" fill="#285ba7"/>
  <path id="path174" stroke="#9cb3b9" d="m1431-317l-27 223 154-71z" fill="#9cb3b9"/>
  <path id="path176" stroke="#2855a2" d="m1358 1211l15 73 173-85z" fill="#2855a2"/>
  <path id="path178" stroke="#2686bb" d="m1426 620l-76 217 190-114z" fill="#2686bb"/>
  <path id="path180" stroke="#9ebbbe" d="m1278-225l126 131 27-223z" fill="#9ebbbe"/>
  <path id="path182" stroke="#509eba" d="m1375 305l15 162 116-56z" fill="#509eba"/>
  <path id="path184" stroke="#73a6b6" d="m1480 95l-105 210 127-127z" fill="#73a6b6"/>
  <path id="path186" stroke="#a1c6c6" d="m1069-280l209 55 153-92z" fill="#a1c6c6"/>
  <path id="path188" stroke="#2866ac" d="m1287 1055l71 156 95-190z" fill="#2866ac"/>
  <path id="path190" stroke="#77afba" d="m1220 127l155 178 105-210z" fill="#77afba"/>
  <path id="path192" stroke="#92b6b7" d="m1404-94l-130 3 206 186z" fill="#92b6b7"/>
  <path id="path194" stroke="#8bb9b9" d="m1274-91l-54 218 260-32z" fill="#8bb9b9"/>
  <path id="path196" stroke="#5e7998" d="m460 1292l-150 29 634 53z" fill="#5e7998"/>
  <path id="path198" stroke="#72b6bd" d="m1220 127l-12 57 167 121z" fill="#72b6bd"/>
  <path id="path200" stroke="#238fbe" d="m1231 719l119 118 76-217z" fill="#238fbe"/>
  <path id="path202" stroke="#2472b2" d="m1350 837l-63 218 166-34z" fill="#2472b2"/>
  <path id="path204" stroke="#3098bf" d="m1390 467l-159 252 195-99z" fill="#3098bf"/>
  <path id="path206" stroke="#9cbfb9" d="m1278-225l-4 134 130-3z" fill="#9cbfb9"/>
  <path id="path208" stroke="#31a2c2" d="m1105 559l126 160 159-252z" fill="#31a2c2"/>
  <path id="path210" stroke="#51a8be" d="m1375 305l-216 66 231 96z" fill="#51a8be"/>
  <path id="path212" stroke="#247eb7" d="m1139 925l148 130 63-218z" fill="#247eb7"/>
  <path id="path214" stroke="#45abc1" d="m1159 371l-54 188 285-92z" fill="#45abc1"/>
  <path id="path216" stroke="#62b2be" d="m1208 184l-49 187 216-66z" fill="#62b2be"/>
  <path id="path218" stroke="#255a9d" d="m1358 1211l-181 198 196-125z" fill="#255a9d"/>
  <path id="path220" stroke="#296caf" d="m1287 1055l-124 29 195 127z" fill="#296caf"/>
  <path id="path222" stroke="#2d63a8" d="m1163 1084l14 325 181-198z" fill="#2d63a8"/>
  <path id="path224" stroke="#2191c0" d="m1231 719l-91 54 210 64z" fill="#2191c0"/>
  <path id="path226" stroke="#258cbc" d="m1140 773l-1 152 211-88z" fill="#258cbc"/>
  <path id="path228" stroke="#aedbc7" d="m751-300l153 46 165-26z" fill="#aedbc7"/>
  <path id="path230" stroke="#47b0c2" d="m1081 506l24 53 54-188z" fill="#47b0c2"/>
  <path id="path232" stroke="#3469a6" d="m1163 1084l-189 181 203 144z" fill="#3469a6"/>
  <path id="path234" stroke="#65b7be" d="m1118 306l41 65 49-187z" fill="#65b7be"/>
  <path id="path236" stroke="#8dc1bb" d="m1124 107l96 20 54-218z" fill="#8dc1bb"/>
  <path id="path238" stroke="#96c8bc" d="m1026-93l98 200 150-198z" fill="#96c8bc"/>
  <path id="path240" stroke="#9fc8bb" d="m1026-93l248 2 4-134z" fill="#9fc8bb"/>
  <path id="path242" stroke="#a3cdc0" d="m1069-280l-43 187 252-132z" fill="#a3cdc0"/>
  <path id="path244" stroke="#2b79b3" d="m1139 925l24 159 124-29z" fill="#2b79b3"/>
  <path id="path246" stroke="#3974ae" d="m981 1156l-7 109 189-181z" fill="#3974ae"/>
  <path id="path248" stroke="#2e9ec2" d="m1105 559l35 214 91-54z" fill="#2e9ec2"/>
  <path id="path250" stroke="#80bfbc" d="m1124 107l84 77 12-57z" fill="#80bfbc"/>
  <path id="path252" stroke="#30a0c2" d="m1105 559l-44 212 79 2z" fill="#30a0c2"/>
  <path id="path254" stroke="#77bcbe" d="m1124 107l-6 199 90-122z" fill="#77bcbe"/>
  <path id="path256" stroke="#2b94be" d="m1061 771l78 154 1-152z" fill="#2b94be"/>
  <path id="path258" stroke="#316799" d="m974 1265l-30 109 233 35z" fill="#316799"/>
  <path id="path260" stroke="#337bb2" d="m1139 925l-158 231 182-72z" fill="#337bb2"/>
  <path id="path262" stroke="#54b4c0" d="m1118 306l-37 200 78-135z" fill="#54b4c0"/>
  <path id="path264" stroke="#38aac3" d="m956 550l105 221 44-212z" fill="#38aac3"/>
  <path id="path266" stroke="#77c4be" d="m824 236l294 70 6-199z" fill="#77c4be"/>
  <path id="path268" stroke="#3393bc" d="m1061 771l-230 171 308-17z" fill="#3393bc"/>
  <path id="path270" stroke="#3786b5" d="m831 942l150 214 158-231z" fill="#3786b5"/>
  <path id="path272" stroke="#3b9dbe" d="m876 780l-45 162 230-171z" fill="#3b9dbe"/>
  <path id="path274" stroke="#50b6c2" d="m903 521l178-15 37-200z" fill="#50b6c2"/>
  <path id="path276" stroke="#60c0c1" d="m824 236l79 285 215-215z" fill="#60c0c1"/>
  <path id="path278" stroke="#97d0bc" d="m1026-93l-210 120 308 80z" fill="#97d0bc"/>
  <path id="path280" stroke="#8ccfbc" d="m816 27l8 209 300-129z" fill="#8ccfbc"/>
  <path id="path282" stroke="#a7d5c2" d="m904-254l122 161 43-187z" fill="#a7d5c2"/>
  <path id="path284" stroke="#43b5c4" d="m903 521l53 29 125-44z" fill="#43b5c4"/>
  <path id="path286" stroke="#3eb1c4" d="m1081 506l-125 44 149 9z" fill="#3eb1c4"/>
  <path id="path288" stroke="#a8d8be" d="m904-254l-15 81 137 80z" fill="#a8d8be"/>
  <path id="path290" stroke="#37a8c3" d="m956 550l-80 230 185-9z" fill="#37a8c3"/>
  <path id="path292" stroke="#50759c" d="m746 1261l-286 31 484 82z" fill="#50759c"/>
  <path id="path294" stroke="#a4d7bb" d="m889-173l-73 200 210-120z" fill="#a4d7bb"/>
  <path id="path296" stroke="#94d2bb" d="m816 27l-50 102 58 107z" fill="#94d2bb"/>
  <path id="path298" stroke="#62c0c0" d="m824 236l-63 282 142 3z" fill="#62c0c0"/>
  <path id="path300" stroke="#44b1c3" d="m903 521l-27 259 80-230z" fill="#44b1c3"/>
  <path id="path302" stroke="#3e70a1" d="m825 1243l119 131 30-109z" fill="#3e70a1"/>
  <path id="path304" stroke="#4689b4" d="m831 942l-57 29 207 185z" fill="#4689b4"/>
  <path id="path306" stroke="#487faf" d="m774 971l51 272 156-87z" fill="#487faf"/>
  <path id="path308" stroke="#4274ab" d="m825 1243l149 22 7-109z" fill="#4274ab"/>
  <path id="path310" stroke="#a7d9ba" d="m765-20l51 47 73-200z" fill="#a7d9ba"/>
  <path id="path312" stroke="#4cb4c2" d="m761 518l115 262 27-259z" fill="#4cb4c2"/>
  <path id="path314" stroke="#4673a0" d="m825 1243l-79 18 198 113z" fill="#4673a0"/>
  <path id="path316" stroke="#5281ae" d="m774 971l-81 233 132 39z" fill="#5281ae"/>
  <path id="path318" stroke="#55b4c0" d="m761 518l-150 145 265 117z" fill="#55b4c0"/>
  <path id="path320" stroke="#56b0bf" d="m611 663l13 85 252 32z" fill="#56b0bf"/>
  <path id="path322" stroke="#b1dcc3" d="m751-300l138 127 15-81z" fill="#b1dcc3"/>
  <path id="path324" stroke="#75c8bd" d="m697 221l64 297 63-282z" fill="#75c8bd"/>
  <path id="path326" stroke="#b1ddbc" d="m751-300l14 280 124-153z" fill="#b1ddbc"/>
  <path id="path328" stroke="#519cb9" d="m624 748l150 223 57-29z" fill="#519cb9"/>
  <path id="path330" stroke="#4da3bd" d="m624 748l207 194 45-162z" fill="#4da3bd"/>
  <path id="path332" stroke="#5aa4ba" d="m624 748l-41 82 191 141z" fill="#5aa4ba"/>
  <path id="path334" stroke="#8cd0bb" d="m766 129l-69 92 127 15z" fill="#8cd0bb"/>
  <path id="path336" stroke="#5279a7" d="m693 1204l53 57 79-18z" fill="#5279a7"/>
  <path id="path338" stroke="#76c9bd" d="m697 221l-225 223 289 74z" fill="#76c9bd"/>
  <path id="path340" stroke="#bae2be" d="m751-300l-199-26 213 306z" fill="#bae2be"/>
  <path id="path342" stroke="#a0d7b9" d="m765-20l1 149 50-102z" fill="#a0d7b9"/>
  <path id="path344" stroke="#6fc5bf" d="m472 444l88 121 201-47z" fill="#6fc5bf"/>
  <path id="path346" stroke="#63bebf" d="m560 565l51 98 150-145z" fill="#63bebf"/>
  <path id="path348" stroke="#bfe5b6" d="m552-326l-114 288 327 18z" fill="#bfe5b6"/>
  <path id="path350" stroke="#97d5b9" d="m456 178l241 43 69-92z" fill="#97d5b9"/>
  <path id="path352" stroke="#aadcb7" d="m765-20l-327-18 328 167z" fill="#aadcb7"/>
  <path id="path354" stroke="#afdfb7" d="m438-38l18 216 310-49z" fill="#afdfb7"/>
  <path id="path356" stroke="#5d8daf" d="m432 1020l261 184 81-233z" fill="#5d8daf"/>
  <path id="path358" stroke="#629bb4" d="m583 830l-151 190 342-49z" fill="#629bb4"/>
  <path id="path360" stroke="#5c7ca4" d="m693 1204l-233 88 286-31z" fill="#5c7ca4"/>
  <path id="path362" stroke="#6d8bac" d="m432 1020l11 135 250 49z" fill="#6d8bac"/>
  <path id="path364" stroke="#8dd1ba" d="m450 273l22 171 225-223z" fill="#8dd1ba"/>
  <path id="path366" stroke="#9cd8b9" d="m456 178l-6 95 247-52z" fill="#9cd8b9"/>
  <path id="path368" stroke="#6c82a8" d="m443 1155l17 137 233-88z" fill="#6c82a8"/>
  <path id="path370" stroke="#71b6bd" d="m328 720l255 110 28-167z" fill="#71b6bd"/>
  <path id="path372" stroke="#62b1be" d="m611 663l-28 167 41-82z" fill="#62b1be"/>
  <path id="path374" stroke="#75c2be" d="m560 565l-184 8 235 90z" fill="#75c2be"/>
  <path id="path376" stroke="#7ec0bd" d="m376 573l-48 147 283-57z" fill="#7ec0bd"/>
  <path id="path378" stroke="#def2b9" d="m288-358l-65 115 215 205z" fill="#def2b9"/>
  <path id="path380" stroke="#d5eebd" d="m288-358l150 320 114-288z" fill="#d5eebd"/>
  <path id="path382" stroke="#77abb8" d="m328 720l104 300 151-190z" fill="#77abb8"/>
  <path id="path384" stroke="#7fcabe" d="m472 444l-96 129 184-8z" fill="#7fcabe"/>
  <path id="path386" stroke="#bce4b5" d="m438-38l-55 193 73 23z" fill="#bce4b5"/>
  <path id="path388" stroke="#85acb5" d="m328 720l-106 212 210 88z" fill="#85acb5"/>
  <path id="path390" stroke="#d7efb3" d="m213-149l63 119 162-8z" fill="#d7efb3"/>
  <path id="path392" stroke="#ddf2b3" d="m223-243l-10 94 225 111z" fill="#ddf2b3"/>
  <path id="path394" stroke="#c9e9b4" d="m276-30l107 185 55-193z" fill="#c9e9b4"/>
  <path id="path396" stroke="#7990ac" d="m432 1020l-45 151 56-16z" fill="#7990ac"/>
  <path id="path398" stroke="#7887a8" d="m443 1155l-56 16 73 121z" fill="#7887a8"/>
  <path id="path400" stroke="#99d5ba" d="m378 323l-119 91 213 30z" fill="#99d5ba"/>
  <path id="path402" stroke="#91d1bc" d="m259 414l117 159 96-129z" fill="#91d1bc"/>
  <path id="path404" stroke="#96d5b9" d="m450 273l-72 50 94 121z" fill="#96d5b9"/>
  <path id="path406" stroke="#acddb7" d="m383 155l67 118 6-95z" fill="#acddb7"/>
  <path id="path408" stroke="#7984a0" d="m387 1171l-77 150 150-29z" fill="#7984a0"/>
  <path id="path410" stroke="#85a0b0" d="m222 932l47 109 163-21z" fill="#85a0b0"/>
  <path id="path412" stroke="#a7dbb8" d="m383 155l-5 168 72-50z" fill="#a7dbb8"/>
  <path id="path414" stroke="#8096ad" d="m269 1041l118 130 45-151z" fill="#8096ad"/>
  <path id="path416" stroke="#8cb7b8" d="m189 814l33 118 106-212z" fill="#8cb7b8"/>
  <path id="path418" stroke="#98d3bb" d="m259 414l-77 95 194 64z" fill="#98d3bb"/>
  <path id="path420" stroke="#8dc5bc" d="m194 688l134 32 48-147z" fill="#8dc5bc"/>
  <path id="path422" stroke="#addeb7" d="m140 354l238-31 5-168z" fill="#addeb7"/>
  <path id="path424" stroke="#cdecb4" d="m276-30l-45 31 152 154z" fill="#cdecb4"/>
  <path id="path426" stroke="#858aa5" d="m185 1185l125 136 77-150z" fill="#858aa5"/>
  <path id="path428" stroke="#8793aa" d="m269 1041l-84 144 202-14z" fill="#8793aa"/>
  <path id="path430" stroke="#a6dab8" d="m140 354l119 60 119-91z" fill="#a6dab8"/>
  <path id="path432" stroke="#c0e6b5" d="m231 1l-91 353 243-199z" fill="#c0e6b5"/>
  <path id="path434" stroke="#93cdbc" d="m182 509l12 179 182-115z" fill="#93cdbc"/>
  <path id="path436" stroke="#858696" d="m97 1270l-90 123 303-72z" fill="#858696"/>
  <path id="path438" stroke="#8ec0bb" d="m194 688l-5 126 139-94z" fill="#8ec0bb"/>
  <path id="path440" stroke="#cbeab4" d="m-59 116l199 238 91-353z" fill="#cbeab4"/>
  <path id="path442" stroke="#8889a0" d="m185 1185l-88 85 213 51z" fill="#8889a0"/>
  <path id="path444" stroke="#d9f0b3" d="m213-149l18 150 45-31z" fill="#d9f0b3"/>
  <path id="path446" stroke="#ecf8c1" d="m-21-345l244 102 65-115z" fill="#ecf8c1"/>
  <path id="path448" stroke="#8f98aa" d="m-12 1120l197 65 84-144z" fill="#8f98aa"/>
  <path id="path450" stroke="#949dac" d="m-30 1053l18 67 281-79z" fill="#949dac"/>
  <path id="path452" stroke="#90a2af" d="m222 932l-252 121 299-12z" fill="#90a2af"/>
  <path id="path454" stroke="#a4d8ba" d="m140 354l42 155 77-95z" fill="#a4d8ba"/>
  <path id="path456" stroke="#9accbc" d="m182 509l-127 177 139 2z" fill="#9accbc"/>
  <path id="path458" stroke="#e3f4b2" d="m213-149l-275 13 293 137z" fill="#e3f4b2"/>
  <path id="path460" stroke="#e1f3b2" d="m-62-136l3 252 290-115z" fill="#e1f3b2"/>
  <path id="path462" stroke="#94b6b7" d="m189 814l-235-20 268 138z" fill="#94b6b7"/>
  <path id="path464" stroke="#e8f6b5" d="m-62-136l275-13 10-94z" fill="#e8f6b5"/>
  <path id="path466" stroke="#f0f9ba" d="m-21-345l-41 209 285-107z" fill="#f0f9ba"/>
  <path id="path468" stroke="#98aeb3" d="m-46 794l16 259 252-121z" fill="#98aeb3"/>
  <path id="path470" stroke="#95c3bb" d="m55 686l134 128 5-126z" fill="#95c3bb"/>
  <path id="path472" stroke="#aadab9" d="m140 354l-124 45 166 110z" fill="#aadab9"/>
  <path id="path474" stroke="#c0e5b6" d="m-59 116l-2 241 201-3z" fill="#c0e5b6"/>
  <path id="path476" stroke="#99c2bb" d="m55 686l-101 108 235 20z" fill="#99c2bb"/>
  <path id="path478" stroke="#a2d6bc" d="m16 399l39 287 127-177z" fill="#a2d6bc"/>
  <path id="path480" stroke="#9390a7" d="m-12 1120l109 150 88-85z" fill="#9390a7"/>
  <path id="path482" stroke="#b4dfb8" d="m-61 357l77 42 124-45z" fill="#b4dfb8"/>
  <path id="path484" stroke="#e6f5b8" d="m-62-136l-79 136 82 116z" fill="#e6f5b8"/>
  <path id="path486" stroke="#a5d1bf" d="m16 399l-240 327 279-40z" fill="#a5d1bf"/>
  <path id="path488" stroke="#8d8897" d="m-123 1329l130 64 90-123z" fill="#8d8897"/>
  <path id="path490" stroke="#958fa4" d="m-12 1120l-111 209 220-59z" fill="#958fa4"/>
  <path id="path492" stroke="#9cb0b9" d="m-46 794l-155 142 171 117z" fill="#9cb0b9"/>
  <path id="path494" stroke="#b6e0bf" d="m-61 357l-168 38 245 4z" fill="#b6e0bf"/>
  <path id="path496" stroke="#acdac5" d="m-229 395l5 331 240-327z" fill="#acdac5"/>
  <path id="path498" stroke="#a0c7c0" d="m-224 726l178 68 101-108z" fill="#a0c7c0"/>
  <path id="path500" stroke="#f6fcc3" d="m-209-290l147 154 41-209z" fill="#f6fcc3"/>
  <path id="path502" stroke="#9a92ae" d="m-214 1185l91 144 111-209z" fill="#9a92ae"/>
  <path id="path504" stroke="#ebf7ba" d="m-167-61l26 61 79-136z" fill="#ebf7ba"/>
  <path id="path506" stroke="#c6e8bf" d="m-294 312l233 45 2-241z" fill="#c6e8bf"/>
  <path id="path508" stroke="#9a9bb0" d="m-30 1053l-184 132 202-65z" fill="#9a9bb0"/>
  <path id="path510" stroke="#a9d4cb" d="m-229 395l-48 309 53 22z" fill="#a9d4cb"/>
  <path id="path512" stroke="#9ca2b6" d="m-201 936l-13 249 184-132z" fill="#9ca2b6"/>
  <path id="path514" stroke="#bbe3c5" d="m-294 312l65 83 168-38z" fill="#bbe3c5"/>
  <path id="path516" stroke="#9fbec2" d="m-224 726l23 210 155-142z" fill="#9fbec2"/>
  <path id="path518" stroke="#f3fbbe" d="m-209-290l42 229 105-75z" fill="#f3fbbe"/>
  <path id="path520" stroke="#d7efbf" d="m-141 0l-153 312 235-196z" fill="#d7efbf"/>
  <path id="path522" stroke="#e1f3c0" d="m-167-61l-127 373 153-312z" fill="#e1f3c0"/>
  <path id="path524" stroke="#a1c3c8" d="m-224 726l-53-22 76 232z" fill="#a1c3c8"/>
  <path id="path526" stroke="#eaf7c1" d="m-209-290l-85 602 127-373z" fill="#eaf7c1"/>
  <path id="path528" stroke="#b3ddcb" d="m-294 312l17 392 48-309z" fill="#b3ddcb"/>
  <path id="path530" stroke="#9eafc0" d="m-277 704l63 481 13-249z" fill="#9eafc0"/>
 </g>
</svg>
