<svg xmlns="http://www.w3.org/2000/svg" width="1920" height="1080"><path d="M944,1374L7,1393L1177,1409Z" fill="#4a7090" stroke="#4a7090" stroke-width="1.51"/><path d="M751,-300L1069,-280L1431,-317Z" fill="#a7d1c9" stroke="#a7d1c9" stroke-width="1.51"/><path d="M1177,1409L7,1393L1575,1431Z" fill="#356890" stroke="#356890" stroke-width="1.51"/><path d="M288,-358L552,-326L1616,-355Z" fill="#b6dfcc" stroke="#b6dfcc" stroke-width="1.51"/><path d="M751,-300L1431,-317L1616,-355Z" fill="#a3c6cb" stroke="#a3c6cb" stroke-width="1.51"/><path d="M552,-326L751,-300L1616,-355Z" fill="#abd9cc" stroke="#abd9cc" stroke-width="1.51"/><path d="M1771,1386L1575,1431L2073,1369Z" fill="#1a317e" stroke="#1a317e" stroke-width="1.51"/><path d="M2087,1027L2026,1074L2128,1203Z" fill="#1e3888" stroke="#1e3888" stroke-width="1.51"/><path d="M2111,844L2087,1027L2128,1203Z" fill="#1c3e89" stroke="#1c3e89" stroke-width="1.51"/><path d="M2063,201L1931,344L2139,521Z" fill="#51769c" stroke="#51769c" stroke-width="1.51"/><path d="M2084,588L2111,844L2139,521Z" fill="#2b6296" stroke="#2b6296" stroke-width="1.51"/><path d="M2111,844L2128,1203L2139,521Z" fill="#1f4f8f" stroke="#1f4f8f" stroke-width="1.51"/><path d="M1616,-355L1923,-294L2146,-277Z" fill="#9c93b5" stroke="#9c93b5" stroke-width="1.51"/><path d="M2010,86L2048,179L2176,-118Z" fill="#7c8395" stroke="#7c8395" stroke-width="1.51"/><path d="M2033,-76L2010,86L2176,-118Z" fill="#848595" stroke="#848595" stroke-width="1.51"/><path d="M2048,179L2063,201L2176,-118Z" fill="#788193" stroke="#788193" stroke-width="1.51"/><path d="M2139,521L2128,1203L2176,-118Z" fill="#326894" stroke="#326894" stroke-width="1.51"/><path d="M2063,201L2139,521L2176,-118Z" fill="#647a91" stroke="#647a91" stroke-width="1.51"/><path d="M2146,-277L2033,-76L2176,-118Z" fill="#8a8692" stroke="#8a8692" stroke-width="1.51"/><path d="M1865,1326L1771,1386L2073,1369Z" fill="#1c2c80" stroke="#1c2c80" stroke-width="1.51"/><path d="M1854,677L1913,845L2084,588Z" fill="#2f65a6" stroke="#2f65a6" stroke-width="1.51"/><path d="M2084,588L1913,845L2111,844Z" fill="#265d9d" stroke="#265d9d" stroke-width="1.51"/><path d="M1896,441L1946,570L2139,521Z" fill="#3f71a3" stroke="#3f71a3" stroke-width="1.51"/><path d="M1931,344L1896,441L2139,521Z" fill="#4a75a3" stroke="#4a75a3" stroke-width="1.51"/><path d="M1923,-294L2033,-76L2146,-277Z" fill="#918b9f" stroke="#918b9f" stroke-width="1.51"/><path d="M1946,570L1854,677L2084,588Z" fill="#366ca6" stroke="#366ca6" stroke-width="1.51"/><path d="M1913,845L2087,1027L2111,844Z" fill="#224d95" stroke="#224d95" stroke-width="1.51"/><path d="M1946,570L2084,588L2139,521Z" fill="#356b9d" stroke="#356b9d" stroke-width="1.51"/><path d="M1865,1326L2073,1369L2128,1203Z" fill="#1a2b7d" stroke="#1a2b7d" stroke-width="1.51"/><path d="M2026,1074L1865,1326L2128,1203Z" fill="#20318a" stroke="#20318a" stroke-width="1.51"/><path d="M1813,1203L1865,1326L2026,1074Z" fill="#253694" stroke="#253694" stroke-width="1.51"/><path d="M1871,1081L1813,1203L2026,1074Z" fill="#263d98" stroke="#263d98" stroke-width="1.51"/><path d="M1913,845L2026,1074L2087,1027Z" fill="#214694" stroke="#214694" stroke-width="1.51"/><path d="M1913,845L1871,1081L2026,1074Z" fill="#24479a" stroke="#24479a" stroke-width="1.51"/><path d="M2048,179L1931,344L2063,201Z" fill="#657d9d" stroke="#657d9d" stroke-width="1.51"/><path d="M1848,-14L2010,86L2033,-76Z" fill="#888aa0" stroke="#888aa0" stroke-width="1.51"/><path d="M1923,-294L1848,-14L2033,-76Z" fill="#948fa3" stroke="#948fa3" stroke-width="1.51"/><path d="M2010,86L1931,344L2048,179Z" fill="#6c7f9f" stroke="#6c7f9f" stroke-width="1.51"/><path d="M1684,80L1931,344L2010,86Z" fill="#7787a9" stroke="#7787a9" stroke-width="1.51"/><path d="M1848,-14L1684,80L2010,86Z" fill="#878fa9" stroke="#878fa9" stroke-width="1.51"/><path d="M1684,80L1753,351L1931,344Z" fill="#6789ab" stroke="#6789ab" stroke-width="1.51"/><path d="M310,1321L7,1393L944,1374Z" fill="#6d7d92" stroke="#6d7d92" stroke-width="1.51"/><path d="M1708,928L1871,1081L1913,845Z" fill="#2753a3" stroke="#2753a3" stroke-width="1.51"/><path d="M1681,-224L1848,-14L1923,-294Z" fill="#9897ad" stroke="#9897ad" stroke-width="1.51"/><path d="M1896,441L1770,432L1946,570Z" fill="#4779ad" stroke="#4779ad" stroke-width="1.51"/><path d="M1770,432L1854,677L1946,570Z" fill="#3d76ae" stroke="#3d76ae" stroke-width="1.51"/><path d="M1854,677L1750,726L1913,845Z" fill="#2c68ac" stroke="#2c68ac" stroke-width="1.51"/><path d="M1616,-355L1681,-224L1923,-294Z" fill="#9c9eb8" stroke="#9c9eb8" stroke-width="1.51"/><path d="M1753,351L1896,441L1931,344Z" fill="#567eac" stroke="#567eac" stroke-width="1.51"/><path d="M1753,351L1770,432L1896,441Z" fill="#5180ad" stroke="#5180ad" stroke-width="1.51"/><path d="M1750,726L1708,928L1913,845Z" fill="#2962aa" stroke="#2962aa" stroke-width="1.51"/><path d="M1684,80L1607,187L1753,351Z" fill="#7093af" stroke="#7093af" stroke-width="1.51"/><path d="M1770,432L1614,634L1854,677Z" fill="#397bb1" stroke="#397bb1" stroke-width="1.51"/><path d="M1614,634L1750,726L1854,677Z" fill="#3174b1" stroke="#3174b1" stroke-width="1.51"/><path d="M1813,1203L1771,1386L1865,1326Z" fill="#20358a" stroke="#20358a" stroke-width="1.51"/><path d="M1708,928L1813,1203L1871,1081Z" fill="#26499e" stroke="#26499e" stroke-width="1.51"/><path d="M1681,-224L1684,80L1848,-14Z" fill="#919aab" stroke="#919aab" stroke-width="1.51"/><path d="M1613,940L1546,1199L1708,928Z" fill="#2459a6" stroke="#2459a6" stroke-width="1.51"/><path d="M1708,928L1546,1199L1813,1203Z" fill="#264d9f" stroke="#264d9f" stroke-width="1.51"/><path d="M1681,-224L1558,-165L1684,80Z" fill="#96a2ae" stroke="#96a2ae" stroke-width="1.51"/><path d="M1546,1199L1771,1386L1813,1203Z" fill="#233e93" stroke="#233e93" stroke-width="1.51"/><path d="M1613,940L1708,928L1750,726Z" fill="#2665ac" stroke="#2665ac" stroke-width="1.51"/><path d="M1540,723L1613,940L1750,726Z" fill="#2571b1" stroke="#2571b1" stroke-width="1.51"/><path d="M1506,411L1614,634L1770,432Z" fill="#4289b4" stroke="#4289b4" stroke-width="1.51"/><path d="M1546,1199L1575,1431L1771,1386Z" fill="#1e408b" stroke="#1e408b" stroke-width="1.51"/><path d="M1753,351L1506,411L1770,432Z" fill="#518ab1" stroke="#518ab1" stroke-width="1.51"/><path d="M1607,187L1506,411L1753,351Z" fill="#5b91b2" stroke="#5b91b2" stroke-width="1.51"/><path d="M1614,634L1540,723L1750,726Z" fill="#2c79b3" stroke="#2c79b3" stroke-width="1.51"/><path d="M1453,1021L1546,1199L1613,940Z" fill="#255ca7" stroke="#255ca7" stroke-width="1.51"/><path d="M1558,-165L1480,95L1684,80Z" fill="#8ca4b0" stroke="#8ca4b0" stroke-width="1.51"/><path d="M1616,-355L1558,-165L1681,-224Z" fill="#9ba7b8" stroke="#9ba7b8" stroke-width="1.51"/><path d="M1480,95L1607,187L1684,80Z" fill="#7f9eb0" stroke="#7f9eb0" stroke-width="1.51"/><path d="M1404,-94L1480,95L1558,-165Z" fill="#93aeb3" stroke="#93aeb3" stroke-width="1.51"/><path d="M1546,1199L1373,1284L1575,1431Z" fill="#224c95" stroke="#224c95" stroke-width="1.51"/><path d="M1480,95L1502,178L1607,187Z" fill="#7aa2b3" stroke="#7aa2b3" stroke-width="1.51"/><path d="M1502,178L1506,411L1607,187Z" fill="#679bb4" stroke="#679bb4" stroke-width="1.51"/><path d="M1540,723L1350,837L1613,940Z" fill="#2376b4" stroke="#2376b4" stroke-width="1.51"/><path d="M1350,837L1453,1021L1613,940Z" fill="#236eb0" stroke="#236eb0" stroke-width="1.51"/><path d="M1506,411L1426,620L1614,634Z" fill="#358eb9" stroke="#358eb9" stroke-width="1.51"/><path d="M1431,-317L1558,-165L1616,-355Z" fill="#9daebd" stroke="#9daebd" stroke-width="1.51"/><path d="M1426,620L1540,723L1614,634Z" fill="#2d85b8" stroke="#2d85b8" stroke-width="1.51"/><path d="M1502,178L1375,305L1506,411Z" fill="#5ea0b7" stroke="#5ea0b7" stroke-width="1.51"/><path d="M1390,467L1426,620L1506,411Z" fill="#3e97bb" stroke="#3e97bb" stroke-width="1.51"/><path d="M1373,1284L1177,1409L1575,1431Z" fill="#1f5190" stroke="#1f5190" stroke-width="1.51"/><path d="M1453,1021L1358,1211L1546,1199Z" fill="#285ba7" stroke="#285ba7" stroke-width="1.51"/><path d="M1431,-317L1404,-94L1558,-165Z" fill="#9cb3b9" stroke="#9cb3b9" stroke-width="1.51"/><path d="M1358,1211L1373,1284L1546,1199Z" fill="#2855a2" stroke="#2855a2" stroke-width="1.51"/><path d="M1426,620L1350,837L1540,723Z" fill="#2686bb" stroke="#2686bb" stroke-width="1.51"/><path d="M1278,-225L1404,-94L1431,-317Z" fill="#9ebbbe" stroke="#9ebbbe" stroke-width="1.51"/><path d="M1375,305L1390,467L1506,411Z" fill="#509eba" stroke="#509eba" stroke-width="1.51"/><path d="M1480,95L1375,305L1502,178Z" fill="#73a6b6" stroke="#73a6b6" stroke-width="1.51"/><path d="M1069,-280L1278,-225L1431,-317Z" fill="#a1c6c6" stroke="#a1c6c6" stroke-width="1.51"/><path d="M1287,1055L1358,1211L1453,1021Z" fill="#2866ac" stroke="#2866ac" stroke-width="1.51"/><path d="M1220,127L1375,305L1480,95Z" fill="#77afba" stroke="#77afba" stroke-width="1.51"/><path d="M1404,-94L1274,-91L1480,95Z" fill="#92b6b7" stroke="#92b6b7" stroke-width="1.51"/><path d="M1274,-91L1220,127L1480,95Z" fill="#8bb9b9" stroke="#8bb9b9" stroke-width="1.51"/><path d="M460,1292L310,1321L944,1374Z" fill="#5e7998" stroke="#5e7998" stroke-width="1.51"/><path d="M1220,127L1208,184L1375,305Z" fill="#72b6bd" stroke="#72b6bd" stroke-width="1.51"/><path d="M1231,719L1350,837L1426,620Z" fill="#238fbe" stroke="#238fbe" stroke-width="1.51"/><path d="M1350,837L1287,1055L1453,1021Z" fill="#2472b2" stroke="#2472b2" stroke-width="1.51"/><path d="M1390,467L1231,719L1426,620Z" fill="#3098bf" stroke="#3098bf" stroke-width="1.51"/><path d="M1278,-225L1274,-91L1404,-94Z" fill="#9cbfb9" stroke="#9cbfb9" stroke-width="1.51"/><path d="M1105,559L1231,719L1390,467Z" fill="#31a2c2" stroke="#31a2c2" stroke-width="1.51"/><path d="M1375,305L1159,371L1390,467Z" fill="#51a8be" stroke="#51a8be" stroke-width="1.51"/><path d="M1139,925L1287,1055L1350,837Z" fill="#247eb7" stroke="#247eb7" stroke-width="1.51"/><path d="M1159,371L1105,559L1390,467Z" fill="#45abc1" stroke="#45abc1" stroke-width="1.51"/><path d="M1208,184L1159,371L1375,305Z" fill="#62b2be" stroke="#62b2be" stroke-width="1.51"/><path d="M1358,1211L1177,1409L1373,1284Z" fill="#255a9d" stroke="#255a9d" stroke-width="1.51"/><path d="M1287,1055L1163,1084L1358,1211Z" fill="#296caf" stroke="#296caf" stroke-width="1.51"/><path d="M1163,1084L1177,1409L1358,1211Z" fill="#2d63a8" stroke="#2d63a8" stroke-width="1.51"/><path d="M1231,719L1140,773L1350,837Z" fill="#2191c0" stroke="#2191c0" stroke-width="1.51"/><path d="M1140,773L1139,925L1350,837Z" fill="#258cbc" stroke="#258cbc" stroke-width="1.51"/><path d="M751,-300L904,-254L1069,-280Z" fill="#aedbc7" stroke="#aedbc7" stroke-width="1.51"/><path d="M1081,506L1105,559L1159,371Z" fill="#47b0c2" stroke="#47b0c2" stroke-width="1.51"/><path d="M1163,1084L974,1265L1177,1409Z" fill="#3469a6" stroke="#3469a6" stroke-width="1.51"/><path d="M1118,306L1159,371L1208,184Z" fill="#65b7be" stroke="#65b7be" stroke-width="1.51"/><path d="M1124,107L1220,127L1274,-91Z" fill="#8dc1bb" stroke="#8dc1bb" stroke-width="1.51"/><path d="M1026,-93L1124,107L1274,-91Z" fill="#96c8bc" stroke="#96c8bc" stroke-width="1.51"/><path d="M1026,-93L1274,-91L1278,-225Z" fill="#9fc8bb" stroke="#9fc8bb" stroke-width="1.51"/><path d="M1069,-280L1026,-93L1278,-225Z" fill="#a3cdc0" stroke="#a3cdc0" stroke-width="1.51"/><path d="M1139,925L1163,1084L1287,1055Z" fill="#2b79b3" stroke="#2b79b3" stroke-width="1.51"/><path d="M981,1156L974,1265L1163,1084Z" fill="#3974ae" stroke="#3974ae" stroke-width="1.51"/><path d="M1105,559L1140,773L1231,719Z" fill="#2e9ec2" stroke="#2e9ec2" stroke-width="1.51"/><path d="M1124,107L1208,184L1220,127Z" fill="#80bfbc" stroke="#80bfbc" stroke-width="1.51"/><path d="M1105,559L1061,771L1140,773Z" fill="#30a0c2" stroke="#30a0c2" stroke-width="1.51"/><path d="M1124,107L1118,306L1208,184Z" fill="#77bcbe" stroke="#77bcbe" stroke-width="1.51"/><path d="M1061,771L1139,925L1140,773Z" fill="#2b94be" stroke="#2b94be" stroke-width="1.51"/><path d="M974,1265L944,1374L1177,1409Z" fill="#316799" stroke="#316799" stroke-width="1.51"/><path d="M1139,925L981,1156L1163,1084Z" fill="#337bb2" stroke="#337bb2" stroke-width="1.51"/><path d="M1118,306L1081,506L1159,371Z" fill="#54b4c0" stroke="#54b4c0" stroke-width="1.51"/><path d="M956,550L1061,771L1105,559Z" fill="#38aac3" stroke="#38aac3" stroke-width="1.51"/><path d="M824,236L1118,306L1124,107Z" fill="#77c4be" stroke="#77c4be" stroke-width="1.51"/><path d="M1061,771L831,942L1139,925Z" fill="#3393bc" stroke="#3393bc" stroke-width="1.51"/><path d="M831,942L981,1156L1139,925Z" fill="#3786b5" stroke="#3786b5" stroke-width="1.51"/><path d="M876,780L831,942L1061,771Z" fill="#3b9dbe" stroke="#3b9dbe" stroke-width="1.51"/><path d="M903,521L1081,506L1118,306Z" fill="#50b6c2" stroke="#50b6c2" stroke-width="1.51"/><path d="M824,236L903,521L1118,306Z" fill="#60c0c1" stroke="#60c0c1" stroke-width="1.51"/><path d="M1026,-93L816,27L1124,107Z" fill="#97d0bc" stroke="#97d0bc" stroke-width="1.51"/><path d="M816,27L824,236L1124,107Z" fill="#8ccfbc" stroke="#8ccfbc" stroke-width="1.51"/><path d="M904,-254L1026,-93L1069,-280Z" fill="#a7d5c2" stroke="#a7d5c2" stroke-width="1.51"/><path d="M903,521L956,550L1081,506Z" fill="#43b5c4" stroke="#43b5c4" stroke-width="1.51"/><path d="M1081,506L956,550L1105,559Z" fill="#3eb1c4" stroke="#3eb1c4" stroke-width="1.51"/><path d="M904,-254L889,-173L1026,-93Z" fill="#a8d8be" stroke="#a8d8be" stroke-width="1.51"/><path d="M956,550L876,780L1061,771Z" fill="#37a8c3" stroke="#37a8c3" stroke-width="1.51"/><path d="M746,1261L460,1292L944,1374Z" fill="#50759c" stroke="#50759c" stroke-width="1.51"/><path d="M889,-173L816,27L1026,-93Z" fill="#a4d7bb" stroke="#a4d7bb" stroke-width="1.51"/><path d="M816,27L766,129L824,236Z" fill="#94d2bb" stroke="#94d2bb" stroke-width="1.51"/><path d="M824,236L761,518L903,521Z" fill="#62c0c0" stroke="#62c0c0" stroke-width="1.51"/><path d="M903,521L876,780L956,550Z" fill="#44b1c3" stroke="#44b1c3" stroke-width="1.51"/><path d="M825,1243L944,1374L974,1265Z" fill="#3e70a1" stroke="#3e70a1" stroke-width="1.51"/><path d="M831,942L774,971L981,1156Z" fill="#4689b4" stroke="#4689b4" stroke-width="1.51"/><path d="M774,971L825,1243L981,1156Z" fill="#487faf" stroke="#487faf" stroke-width="1.51"/><path d="M825,1243L974,1265L981,1156Z" fill="#4274ab" stroke="#4274ab" stroke-width="1.51"/><path d="M765,-20L816,27L889,-173Z" fill="#a7d9ba" stroke="#a7d9ba" stroke-width="1.51"/><path d="M761,518L876,780L903,521Z" fill="#4cb4c2" stroke="#4cb4c2" stroke-width="1.51"/><path d="M825,1243L746,1261L944,1374Z" fill="#4673a0" stroke="#4673a0" stroke-width="1.51"/><path d="M774,971L693,1204L825,1243Z" fill="#5281ae" stroke="#5281ae" stroke-width="1.51"/><path d="M761,518L611,663L876,780Z" fill="#55b4c0" stroke="#55b4c0" stroke-width="1.51"/><path d="M611,663L624,748L876,780Z" fill="#56b0bf" stroke="#56b0bf" stroke-width="1.51"/><path d="M751,-300L889,-173L904,-254Z" fill="#b1dcc3" stroke="#b1dcc3" stroke-width="1.51"/><path d="M697,221L761,518L824,236Z" fill="#75c8bd" stroke="#75c8bd" stroke-width="1.51"/><path d="M751,-300L765,-20L889,-173Z" fill="#b1ddbc" stroke="#b1ddbc" stroke-width="1.51"/><path d="M624,748L774,971L831,942Z" fill="#519cb9" stroke="#519cb9" stroke-width="1.51"/><path d="M624,748L831,942L876,780Z" fill="#4da3bd" stroke="#4da3bd" stroke-width="1.51"/><path d="M624,748L583,830L774,971Z" fill="#5aa4ba" stroke="#5aa4ba" stroke-width="1.51"/><path d="M766,129L697,221L824,236Z" fill="#8cd0bb" stroke="#8cd0bb" stroke-width="1.51"/><path d="M693,1204L746,1261L825,1243Z" fill="#5279a7" stroke="#5279a7" stroke-width="1.51"/><path d="M697,221L472,444L761,518Z" fill="#76c9bd" stroke="#76c9bd" stroke-width="1.51"/><path d="M751,-300L552,-326L765,-20Z" fill="#bae2be" stroke="#bae2be" stroke-width="1.51"/><path d="M765,-20L766,129L816,27Z" fill="#a0d7b9" stroke="#a0d7b9" stroke-width="1.51"/><path d="M472,444L560,565L761,518Z" fill="#6fc5bf" stroke="#6fc5bf" stroke-width="1.51"/><path d="M560,565L611,663L761,518Z" fill="#63bebf" stroke="#63bebf" stroke-width="1.51"/><path d="M552,-326L438,-38L765,-20Z" fill="#bfe5b6" stroke="#bfe5b6" stroke-width="1.51"/><path d="M456,178L697,221L766,129Z" fill="#97d5b9" stroke="#97d5b9" stroke-width="1.51"/><path d="M765,-20L438,-38L766,129Z" fill="#aadcb7" stroke="#aadcb7" stroke-width="1.51"/><path d="M438,-38L456,178L766,129Z" fill="#afdfb7" stroke="#afdfb7" stroke-width="1.51"/><path d="M432,1020L693,1204L774,971Z" fill="#5d8daf" stroke="#5d8daf" stroke-width="1.51"/><path d="M583,830L432,1020L774,971Z" fill="#629bb4" stroke="#629bb4" stroke-width="1.51"/><path d="M693,1204L460,1292L746,1261Z" fill="#5c7ca4" stroke="#5c7ca4" stroke-width="1.51"/><path d="M432,1020L443,1155L693,1204Z" fill="#6d8bac" stroke="#6d8bac" stroke-width="1.51"/><path d="M450,273L472,444L697,221Z" fill="#8dd1ba" stroke="#8dd1ba" stroke-width="1.51"/><path d="M456,178L450,273L697,221Z" fill="#9cd8b9" stroke="#9cd8b9" stroke-width="1.51"/><path d="M443,1155L460,1292L693,1204Z" fill="#6c82a8" stroke="#6c82a8" stroke-width="1.51"/><path d="M328,720L583,830L611,663Z" fill="#71b6bd" stroke="#71b6bd" stroke-width="1.51"/><path d="M611,663L583,830L624,748Z" fill="#62b1be" stroke="#62b1be" stroke-width="1.51"/><path d="M560,565L376,573L611,663Z" fill="#75c2be" stroke="#75c2be" stroke-width="1.51"/><path d="M376,573L328,720L611,663Z" fill="#7ec0bd" stroke="#7ec0bd" stroke-width="1.51"/><path d="M288,-358L223,-243L438,-38Z" fill="#def2b9" stroke="#def2b9" stroke-width="1.51"/><path d="M288,-358L438,-38L552,-326Z" fill="#d5eebd" stroke="#d5eebd" stroke-width="1.51"/><path d="M328,720L432,1020L583,830Z" fill="#77abb8" stroke="#77abb8" stroke-width="1.51"/><path d="M472,444L376,573L560,565Z" fill="#7fcabe" stroke="#7fcabe" stroke-width="1.51"/><path d="M438,-38L383,155L456,178Z" fill="#bce4b5" stroke="#bce4b5" stroke-width="1.51"/><path d="M328,720L222,932L432,1020Z" fill="#85acb5" stroke="#85acb5" stroke-width="1.51"/><path d="M213,-149L276,-30L438,-38Z" fill="#d7efb3" stroke="#d7efb3" stroke-width="1.51"/><path d="M223,-243L213,-149L438,-38Z" fill="#ddf2b3" stroke="#ddf2b3" stroke-width="1.51"/><path d="M276,-30L383,155L438,-38Z" fill="#c9e9b4" stroke="#c9e9b4" stroke-width="1.51"/><path d="M432,1020L387,1171L443,1155Z" fill="#7990ac" stroke="#7990ac" stroke-width="1.51"/><path d="M443,1155L387,1171L460,1292Z" fill="#7887a8" stroke="#7887a8" stroke-width="1.51"/><path d="M378,323L259,414L472,444Z" fill="#99d5ba" stroke="#99d5ba" stroke-width="1.51"/><path d="M259,414L376,573L472,444Z" fill="#91d1bc" stroke="#91d1bc" stroke-width="1.51"/><path d="M450,273L378,323L472,444Z" fill="#96d5b9" stroke="#96d5b9" stroke-width="1.51"/><path d="M383,155L450,273L456,178Z" fill="#acddb7" stroke="#acddb7" stroke-width="1.51"/><path d="M387,1171L310,1321L460,1292Z" fill="#7984a0" stroke="#7984a0" stroke-width="1.51"/><path d="M222,932L269,1041L432,1020Z" fill="#85a0b0" stroke="#85a0b0" stroke-width="1.51"/><path d="M383,155L378,323L450,273Z" fill="#a7dbb8" stroke="#a7dbb8" stroke-width="1.51"/><path d="M269,1041L387,1171L432,1020Z" fill="#8096ad" stroke="#8096ad" stroke-width="1.51"/><path d="M189,814L222,932L328,720Z" fill="#8cb7b8" stroke="#8cb7b8" stroke-width="1.51"/><path d="M259,414L182,509L376,573Z" fill="#98d3bb" stroke="#98d3bb" stroke-width="1.51"/><path d="M194,688L328,720L376,573Z" fill="#8dc5bc" stroke="#8dc5bc" stroke-width="1.51"/><path d="M140,354L378,323L383,155Z" fill="#addeb7" stroke="#addeb7" stroke-width="1.51"/><path d="M276,-30L231,1L383,155Z" fill="#cdecb4" stroke="#cdecb4" stroke-width="1.51"/><path d="M185,1185L310,1321L387,1171Z" fill="#858aa5" stroke="#858aa5" stroke-width="1.51"/><path d="M269,1041L185,1185L387,1171Z" fill="#8793aa" stroke="#8793aa" stroke-width="1.51"/><path d="M140,354L259,414L378,323Z" fill="#a6dab8" stroke="#a6dab8" stroke-width="1.51"/><path d="M231,1L140,354L383,155Z" fill="#c0e6b5" stroke="#c0e6b5" stroke-width="1.51"/><path d="M182,509L194,688L376,573Z" fill="#93cdbc" stroke="#93cdbc" stroke-width="1.51"/><path d="M97,1270L7,1393L310,1321Z" fill="#858696" stroke="#858696" stroke-width="1.51"/><path d="M194,688L189,814L328,720Z" fill="#8ec0bb" stroke="#8ec0bb" stroke-width="1.51"/><path d="M-59,116L140,354L231,1Z" fill="#cbeab4" stroke="#cbeab4" stroke-width="1.51"/><path d="M185,1185L97,1270L310,1321Z" fill="#8889a0" stroke="#8889a0" stroke-width="1.51"/><path d="M213,-149L231,1L276,-30Z" fill="#d9f0b3" stroke="#d9f0b3" stroke-width="1.51"/><path d="M-21,-345L223,-243L288,-358Z" fill="#ecf8c1" stroke="#ecf8c1" stroke-width="1.51"/><path d="M-12,1120L185,1185L269,1041Z" fill="#8f98aa" stroke="#8f98aa" stroke-width="1.51"/><path d="M-30,1053L-12,1120L269,1041Z" fill="#949dac" stroke="#949dac" stroke-width="1.51"/><path d="M222,932L-30,1053L269,1041Z" fill="#90a2af" stroke="#90a2af" stroke-width="1.51"/><path d="M140,354L182,509L259,414Z" fill="#a4d8ba" stroke="#a4d8ba" stroke-width="1.51"/><path d="M182,509L55,686L194,688Z" fill="#9accbc" stroke="#9accbc" stroke-width="1.51"/><path d="M213,-149L-62,-136L231,1Z" fill="#e3f4b2" stroke="#e3f4b2" stroke-width="1.51"/><path d="M-62,-136L-59,116L231,1Z" fill="#e1f3b2" stroke="#e1f3b2" stroke-width="1.51"/><path d="M189,814L-46,794L222,932Z" fill="#94b6b7" stroke="#94b6b7" stroke-width="1.51"/><path d="M-62,-136L213,-149L223,-243Z" fill="#e8f6b5" stroke="#e8f6b5" stroke-width="1.51"/><path d="M-21,-345L-62,-136L223,-243Z" fill="#f0f9ba" stroke="#f0f9ba" stroke-width="1.51"/><path d="M-46,794L-30,1053L222,932Z" fill="#98aeb3" stroke="#98aeb3" stroke-width="1.51"/><path d="M55,686L189,814L194,688Z" fill="#95c3bb" stroke="#95c3bb" stroke-width="1.51"/><path d="M140,354L16,399L182,509Z" fill="#aadab9" stroke="#aadab9" stroke-width="1.51"/><path d="M-59,116L-61,357L140,354Z" fill="#c0e5b6" stroke="#c0e5b6" stroke-width="1.51"/><path d="M55,686L-46,794L189,814Z" fill="#99c2bb" stroke="#99c2bb" stroke-width="1.51"/><path d="M16,399L55,686L182,509Z" fill="#a2d6bc" stroke="#a2d6bc" stroke-width="1.51"/><path d="M-12,1120L97,1270L185,1185Z" fill="#9390a7" stroke="#9390a7" stroke-width="1.51"/><path d="M-61,357L16,399L140,354Z" fill="#b4dfb8" stroke="#b4dfb8" stroke-width="1.51"/><path d="M-62,-136L-141,0L-59,116Z" fill="#e6f5b8" stroke="#e6f5b8" stroke-width="1.51"/><path d="M16,399L-224,726L55,686Z" fill="#a5d1bf" stroke="#a5d1bf" stroke-width="1.51"/><path d="M-123,1329L7,1393L97,1270Z" fill="#8d8897" stroke="#8d8897" stroke-width="1.51"/><path d="M-12,1120L-123,1329L97,1270Z" fill="#958fa4" stroke="#958fa4" stroke-width="1.51"/><path d="M-46,794L-201,936L-30,1053Z" fill="#9cb0b9" stroke="#9cb0b9" stroke-width="1.51"/><path d="M-61,357L-229,395L16,399Z" fill="#b6e0bf" stroke="#b6e0bf" stroke-width="1.51"/><path d="M-229,395L-224,726L16,399Z" fill="#acdac5" stroke="#acdac5" stroke-width="1.51"/><path d="M-224,726L-46,794L55,686Z" fill="#a0c7c0" stroke="#a0c7c0" stroke-width="1.51"/><path d="M-209,-290L-62,-136L-21,-345Z" fill="#f6fcc3" stroke="#f6fcc3" stroke-width="1.51"/><path d="M-214,1185L-123,1329L-12,1120Z" fill="#9a92ae" stroke="#9a92ae" stroke-width="1.51"/><path d="M-167,-61L-141,0L-62,-136Z" fill="#ebf7ba" stroke="#ebf7ba" stroke-width="1.51"/><path d="M-294,312L-61,357L-59,116Z" fill="#c6e8bf" stroke="#c6e8bf" stroke-width="1.51"/><path d="M-30,1053L-214,1185L-12,1120Z" fill="#9a9bb0" stroke="#9a9bb0" stroke-width="1.51"/><path d="M-229,395L-277,704L-224,726Z" fill="#a9d4cb" stroke="#a9d4cb" stroke-width="1.51"/><path d="M-201,936L-214,1185L-30,1053Z" fill="#9ca2b6" stroke="#9ca2b6" stroke-width="1.51"/><path d="M-294,312L-229,395L-61,357Z" fill="#bbe3c5" stroke="#bbe3c5" stroke-width="1.51"/><path d="M-224,726L-201,936L-46,794Z" fill="#9fbec2" stroke="#9fbec2" stroke-width="1.51"/><path d="M-209,-290L-167,-61L-62,-136Z" fill="#f3fbbe" stroke="#f3fbbe" stroke-width="1.51"/><path d="M-141,0L-294,312L-59,116Z" fill="#d7efbf" stroke="#d7efbf" stroke-width="1.51"/><path d="M-167,-61L-294,312L-141,0Z" fill="#e1f3c0" stroke="#e1f3c0" stroke-width="1.51"/><path d="M-224,726L-277,704L-201,936Z" fill="#a1c3c8" stroke="#a1c3c8" stroke-width="1.51"/><path d="M-209,-290L-294,312L-167,-61Z" fill="#eaf7c1" stroke="#eaf7c1" stroke-width="1.51"/><path d="M-294,312L-277,704L-229,395Z" fill="#b3ddcb" stroke="#b3ddcb" stroke-width="1.51"/><path d="M-277,704L-214,1185L-201,936Z" fill="#9eafc0" stroke="#9eafc0" stroke-width="1.51"/></svg>