<svg xmlns="http://www.w3.org/2000/svg" width="1920" height="1080"><path d="M944,1374L7,1393L1177,1409Z" fill="#b39c9e" stroke="#b39c9e" stroke-width="1.51"/><path d="M751,-300L1069,-280L1431,-317Z" fill="#d89477" stroke="#d89477" stroke-width="1.51"/><path d="M1177,1409L7,1393L1575,1431Z" fill="#b2a6b1" stroke="#b2a6b1" stroke-width="1.51"/><path d="M288,-358L552,-326L1616,-355Z" fill="#d58871" stroke="#d58871" stroke-width="1.51"/><path d="M751,-300L1431,-317L1616,-355Z" fill="#c98e6f" stroke="#c98e6f" stroke-width="1.51"/><path d="M552,-326L751,-300L1616,-355Z" fill="#d9937e" stroke="#d9937e" stroke-width="1.51"/><path d="M1771,1386L1575,1431L2073,1369Z" fill="#5d85ac" stroke="#5d85ac" stroke-width="1.51"/><path d="M2087,1027L2026,1074L2128,1203Z" fill="#5c95ad" stroke="#5c95ad" stroke-width="1.51"/><path d="M2111,844L2087,1027L2128,1203Z" fill="#6d99ab" stroke="#6d99ab" stroke-width="1.51"/><path d="M2063,201L1931,344L2139,521Z" fill="#b0a9a3" stroke="#b0a9a3" stroke-width="1.51"/><path d="M2084,588L2111,844L2139,521Z" fill="#a9adae" stroke="#a9adae" stroke-width="1.51"/><path d="M2111,844L2128,1203L2139,521Z" fill="#8ea2a9" stroke="#8ea2a9" stroke-width="1.51"/><path d="M1616,-355L1923,-294L2146,-277Z" fill="#93667c" stroke="#93667c" stroke-width="1.51"/><path d="M2010,86L2048,179L2176,-118Z" fill="#b47880" stroke="#b47880" stroke-width="1.51"/><path d="M2033,-76L2010,86L2176,-118Z" fill="#b16d7d" stroke="#b16d7d" stroke-width="1.51"/><path d="M2048,179L2063,201L2176,-118Z" fill="#b47c83" stroke="#b47c83" stroke-width="1.51"/><path d="M2139,521L2128,1203L2176,-118Z" fill="#b0abb6" stroke="#b0abb6" stroke-width="1.51"/><path d="M2063,201L2139,521L2176,-118Z" fill="#b48a8d" stroke="#b48a8d" stroke-width="1.51"/><path d="M2146,-277L2033,-76L2176,-118Z" fill="#a65a7d" stroke="#a65a7d" stroke-width="1.51"/><path d="M1865,1326L1771,1386L2073,1369Z" fill="#4e80b3" stroke="#4e80b3" stroke-width="1.51"/><path d="M1854,677L1913,845L2084,588Z" fill="#9fbfae" stroke="#9fbfae" stroke-width="1.51"/><path d="M2084,588L1913,845L2111,844Z" fill="#9ab2ab" stroke="#9ab2ab" stroke-width="1.51"/><path d="M1896,441L1946,570L2139,521Z" fill="#aabcba" stroke="#aabcba" stroke-width="1.51"/><path d="M1931,344L1896,441L2139,521Z" fill="#acb6b1" stroke="#acb6b1" stroke-width="1.51"/><path d="M1923,-294L2033,-76L2146,-277Z" fill="#9e5f80" stroke="#9e5f80" stroke-width="1.51"/><path d="M1946,570L1854,677L2084,588Z" fill="#a4c0b8" stroke="#a4c0b8" stroke-width="1.51"/><path d="M1913,845L2087,1027L2111,844Z" fill="#7fa9af" stroke="#7fa9af" stroke-width="1.51"/><path d="M1946,570L2084,588L2139,521Z" fill="#abb6ba" stroke="#abb6ba" stroke-width="1.51"/><path d="M1865,1326L2073,1369L2128,1203Z" fill="#427cb7" stroke="#427cb7" stroke-width="1.51"/><path d="M2026,1074L1865,1326L2128,1203Z" fill="#458db8" stroke="#458db8" stroke-width="1.51"/><path d="M1813,1203L1865,1326L2026,1074Z" fill="#4899b7" stroke="#4899b7" stroke-width="1.51"/><path d="M1871,1081L1813,1203L2026,1074Z" fill="#54a5b1" stroke="#54a5b1" stroke-width="1.51"/><path d="M1913,845L2026,1074L2087,1027Z" fill="#6ea7b0" stroke="#6ea7b0" stroke-width="1.51"/><path d="M1913,845L1871,1081L2026,1074Z" fill="#69aeb0" stroke="#69aeb0" stroke-width="1.51"/><path d="M2048,179L1931,344L2063,201Z" fill="#b19d97" stroke="#b19d97" stroke-width="1.51"/><path d="M1848,-14L2010,86L2033,-76Z" fill="#b37f81" stroke="#b37f81" stroke-width="1.51"/><path d="M1923,-294L1848,-14L2033,-76Z" fill="#a97582" stroke="#a97582" stroke-width="1.51"/><path d="M2010,86L1931,344L2048,179Z" fill="#b29a93" stroke="#b29a93" stroke-width="1.51"/><path d="M1684,80L1931,344L2010,86Z" fill="#b7a58c" stroke="#b7a58c" stroke-width="1.51"/><path d="M1848,-14L1684,80L2010,86Z" fill="#ba957f" stroke="#ba957f" stroke-width="1.51"/><path d="M1684,80L1753,351L1931,344Z" fill="#babb91" stroke="#babb91" stroke-width="1.51"/><path d="M310,1321L7,1393L944,1374Z" fill="#b58589" stroke="#b58589" stroke-width="1.51"/><path d="M1708,928L1871,1081L1913,845Z" fill="#7abeab" stroke="#7abeab" stroke-width="1.51"/><path d="M1681,-224L1848,-14L1923,-294Z" fill="#ac7e7d" stroke="#ac7e7d" stroke-width="1.51"/><path d="M1896,441L1770,432L1946,570Z" fill="#b0c9b2" stroke="#b0c9b2" stroke-width="1.51"/><path d="M1770,432L1854,677L1946,570Z" fill="#aeceb8" stroke="#aeceb8" stroke-width="1.51"/><path d="M1854,677L1750,726L1913,845Z" fill="#a0caa7" stroke="#a0caa7" stroke-width="1.51"/><path d="M1616,-355L1681,-224L1923,-294Z" fill="#a07b75" stroke="#a07b75" stroke-width="1.51"/><path d="M1753,351L1896,441L1931,344Z" fill="#b2c1a3" stroke="#b2c1a3" stroke-width="1.51"/><path d="M1753,351L1770,432L1896,441Z" fill="#b5caa5" stroke="#b5caa5" stroke-width="1.51"/><path d="M1750,726L1708,928L1913,845Z" fill="#94cba7" stroke="#94cba7" stroke-width="1.51"/><path d="M1684,80L1607,187L1753,351Z" fill="#c3bf87" stroke="#c3bf87" stroke-width="1.51"/><path d="M1770,432L1614,634L1854,677Z" fill="#b3dcaf" stroke="#b3dcaf" stroke-width="1.51"/><path d="M1614,634L1750,726L1854,677Z" fill="#add9a5" stroke="#add9a5" stroke-width="1.51"/><path d="M1813,1203L1771,1386L1865,1326Z" fill="#5092b3" stroke="#5092b3" stroke-width="1.51"/><path d="M1708,928L1813,1203L1871,1081Z" fill="#63b9a9" stroke="#63b9a9" stroke-width="1.51"/><path d="M1681,-224L1684,80L1848,-14Z" fill="#bc9576" stroke="#bc9576" stroke-width="1.51"/><path d="M1613,940L1546,1199L1708,928Z" fill="#80cca5" stroke="#80cca5" stroke-width="1.51"/><path d="M1708,928L1546,1199L1813,1203Z" fill="#68bea7" stroke="#68bea7" stroke-width="1.51"/><path d="M1681,-224L1558,-165L1684,80Z" fill="#c09676" stroke="#c09676" stroke-width="1.51"/><path d="M1546,1199L1771,1386L1813,1203Z" fill="#55a4b2" stroke="#55a4b2" stroke-width="1.51"/><path d="M1613,940L1708,928L1750,726Z" fill="#95d3a4" stroke="#95d3a4" stroke-width="1.51"/><path d="M1540,723L1613,940L1750,726Z" fill="#a9dba1" stroke="#a9dba1" stroke-width="1.51"/><path d="M1506,411L1614,634L1770,432Z" fill="#c3e1ab" stroke="#c3e1ab" stroke-width="1.51"/><path d="M1546,1199L1575,1431L1771,1386Z" fill="#6c9dac" stroke="#6c9dac" stroke-width="1.51"/><path d="M1753,351L1506,411L1770,432Z" fill="#bfd79e" stroke="#bfd79e" stroke-width="1.51"/><path d="M1607,187L1506,411L1753,351Z" fill="#c6d194" stroke="#c6d194" stroke-width="1.51"/><path d="M1614,634L1540,723L1750,726Z" fill="#b7e0a2" stroke="#b7e0a2" stroke-width="1.51"/><path d="M1453,1021L1546,1199L1613,940Z" fill="#86cda5" stroke="#86cda5" stroke-width="1.51"/><path d="M1558,-165L1480,95L1684,80Z" fill="#d0a574" stroke="#d0a574" stroke-width="1.51"/><path d="M1616,-355L1558,-165L1681,-224Z" fill="#b28775" stroke="#b28775" stroke-width="1.51"/><path d="M1480,95L1607,187L1684,80Z" fill="#ceb77e" stroke="#ceb77e" stroke-width="1.51"/><path d="M1404,-94L1480,95L1558,-165Z" fill="#d5a374" stroke="#d5a374" stroke-width="1.51"/><path d="M1546,1199L1373,1284L1575,1431Z" fill="#7ba8af" stroke="#7ba8af" stroke-width="1.51"/><path d="M1480,95L1502,178L1607,187Z" fill="#d4bf80" stroke="#d4bf80" stroke-width="1.51"/><path d="M1502,178L1506,411L1607,187Z" fill="#d1ce8c" stroke="#d1ce8c" stroke-width="1.51"/><path d="M1540,723L1350,837L1613,940Z" fill="#b2dfa2" stroke="#b2dfa2" stroke-width="1.51"/><path d="M1350,837L1453,1021L1613,940Z" fill="#a5daa4" stroke="#a5daa4" stroke-width="1.51"/><path d="M1506,411L1426,620L1614,634Z" fill="#ceebb0" stroke="#ceebb0" stroke-width="1.51"/><path d="M1431,-317L1558,-165L1616,-355Z" fill="#b58774" stroke="#b58774" stroke-width="1.51"/><path d="M1426,620L1540,723L1614,634Z" fill="#c6e7a5" stroke="#c6e7a5" stroke-width="1.51"/><path d="M1502,178L1375,305L1506,411Z" fill="#d9d790" stroke="#d9d790" stroke-width="1.51"/><path d="M1390,467L1426,620L1506,411Z" fill="#d9ecab" stroke="#d9ecab" stroke-width="1.51"/><path d="M1373,1284L1177,1409L1575,1431Z" fill="#92a2a8" stroke="#92a2a8" stroke-width="1.51"/><path d="M1453,1021L1358,1211L1546,1199Z" fill="#87c5a9" stroke="#87c5a9" stroke-width="1.51"/><path d="M1431,-317L1404,-94L1558,-165Z" fill="#ca9577" stroke="#ca9577" stroke-width="1.51"/><path d="M1358,1211L1373,1284L1546,1199Z" fill="#83b8af" stroke="#83b8af" stroke-width="1.51"/><path d="M1426,620L1350,837L1540,723Z" fill="#cbe99e" stroke="#cbe99e" stroke-width="1.51"/><path d="M1278,-225L1404,-94L1431,-317Z" fill="#d09675" stroke="#d09675" stroke-width="1.51"/><path d="M1375,305L1390,467L1506,411Z" fill="#dce49c" stroke="#dce49c" stroke-width="1.51"/><path d="M1480,95L1375,305L1502,178Z" fill="#dbc984" stroke="#dbc984" stroke-width="1.51"/><path d="M1069,-280L1278,-225L1431,-317Z" fill="#d19370" stroke="#d19370" stroke-width="1.51"/><path d="M1287,1055L1358,1211L1453,1021Z" fill="#97d1a4" stroke="#97d1a4" stroke-width="1.51"/><path d="M1220,127L1375,305L1480,95Z" fill="#e6cb7f" stroke="#e6cb7f" stroke-width="1.51"/><path d="M1404,-94L1274,-91L1480,95Z" fill="#e0aa71" stroke="#e0aa71" stroke-width="1.51"/><path d="M1274,-91L1220,127L1480,95Z" fill="#e9b773" stroke="#e9b773" stroke-width="1.51"/><path d="M460,1292L310,1321L944,1374Z" fill="#b29a97" stroke="#b29a97" stroke-width="1.51"/><path d="M1220,127L1208,184L1375,305Z" fill="#efd381" stroke="#efd381" stroke-width="1.51"/><path d="M1231,719L1350,837L1426,620Z" fill="#d7ee9b" stroke="#d7ee9b" stroke-width="1.51"/><path d="M1350,837L1287,1055L1453,1021Z" fill="#abdca2" stroke="#abdca2" stroke-width="1.51"/><path d="M1390,467L1231,719L1426,620Z" fill="#dff2a8" stroke="#dff2a8" stroke-width="1.51"/><path d="M1278,-225L1274,-91L1404,-94Z" fill="#dea173" stroke="#dea173" stroke-width="1.51"/><path d="M1105,559L1231,719L1390,467Z" fill="#ecf8a8" stroke="#ecf8a8" stroke-width="1.51"/><path d="M1375,305L1159,371L1390,467Z" fill="#e8e897" stroke="#e8e897" stroke-width="1.51"/><path d="M1139,925L1287,1055L1350,837Z" fill="#bee49f" stroke="#bee49f" stroke-width="1.51"/><path d="M1159,371L1105,559L1390,467Z" fill="#f2f3a1" stroke="#f2f3a1" stroke-width="1.51"/><path d="M1208,184L1159,371L1375,305Z" fill="#f0df8a" stroke="#f0df8a" stroke-width="1.51"/><path d="M1358,1211L1177,1409L1373,1284Z" fill="#95b1ad" stroke="#95b1ad" stroke-width="1.51"/><path d="M1287,1055L1163,1084L1358,1211Z" fill="#a2d3a3" stroke="#a2d3a3" stroke-width="1.51"/><path d="M1163,1084L1177,1409L1358,1211Z" fill="#9dc0ac" stroke="#9dc0ac" stroke-width="1.51"/><path d="M1231,719L1140,773L1350,837Z" fill="#daef9b" stroke="#daef9b" stroke-width="1.51"/><path d="M1140,773L1139,925L1350,837Z" fill="#d2ec9d" stroke="#d2ec9d" stroke-width="1.51"/><path d="M751,-300L904,-254L1069,-280Z" fill="#e1967c" stroke="#e1967c" stroke-width="1.51"/><path d="M1081,506L1105,559L1159,371Z" fill="#f8f7aa" stroke="#f8f7aa" stroke-width="1.51"/><path d="M1163,1084L974,1265L1177,1409Z" fill="#a3bfb5" stroke="#a3bfb5" stroke-width="1.51"/><path d="M1118,306L1159,371L1208,184Z" fill="#f6e28d" stroke="#f6e28d" stroke-width="1.51"/><path d="M1124,107L1220,127L1274,-91Z" fill="#f5bc71" stroke="#f5bc71" stroke-width="1.51"/><path d="M1026,-93L1124,107L1274,-91Z" fill="#f5b372" stroke="#f5b372" stroke-width="1.51"/><path d="M1026,-93L1274,-91L1278,-225Z" fill="#eaa672" stroke="#eaa672" stroke-width="1.51"/><path d="M1069,-280L1026,-93L1278,-225Z" fill="#e69f78" stroke="#e69f78" stroke-width="1.51"/><path d="M1139,925L1163,1084L1287,1055Z" fill="#b7e0a0" stroke="#b7e0a0" stroke-width="1.51"/><path d="M981,1156L974,1265L1163,1084Z" fill="#acd0b3" stroke="#acd0b3" stroke-width="1.51"/><path d="M1105,559L1140,773L1231,719Z" fill="#ebf7a0" stroke="#ebf7a0" stroke-width="1.51"/><path d="M1124,107L1208,184L1220,127Z" fill="#f6cc7a" stroke="#f6cc7a" stroke-width="1.51"/><path d="M1105,559L1061,771L1140,773Z" fill="#edf8a3" stroke="#edf8a3" stroke-width="1.51"/><path d="M1124,107L1118,306L1208,184Z" fill="#f7d583" stroke="#f7d583" stroke-width="1.51"/><path d="M1061,771L1139,925L1140,773Z" fill="#dbf0a3" stroke="#dbf0a3" stroke-width="1.51"/><path d="M974,1265L944,1374L1177,1409Z" fill="#abb1b5" stroke="#abb1b5" stroke-width="1.51"/><path d="M1139,925L981,1156L1163,1084Z" fill="#b5e0a8" stroke="#b5e0a8" stroke-width="1.51"/><path d="M1118,306L1081,506L1159,371Z" fill="#f7f09d" stroke="#f7f09d" stroke-width="1.51"/><path d="M956,550L1061,771L1105,559Z" fill="#f5fbb0" stroke="#f5fbb0" stroke-width="1.51"/><path d="M824,236L1118,306L1124,107Z" fill="#fedb8f" stroke="#fedb8f" stroke-width="1.51"/><path d="M1061,771L831,942L1139,925Z" fill="#d6efad" stroke="#d6efad" stroke-width="1.51"/><path d="M831,942L981,1156L1139,925Z" fill="#c3e6b0" stroke="#c3e6b0" stroke-width="1.51"/><path d="M876,780L831,942L1061,771Z" fill="#e1f0ab" stroke="#e1f0ab" stroke-width="1.51"/><path d="M903,521L1081,506L1118,306Z" fill="#fcf5ab" stroke="#fcf5ab" stroke-width="1.51"/><path d="M824,236L903,521L1118,306Z" fill="#ffeea3" stroke="#ffeea3" stroke-width="1.51"/><path d="M1026,-93L816,27L1124,107Z" fill="#ffba7e" stroke="#ffba7e" stroke-width="1.51"/><path d="M816,27L824,236L1124,107Z" fill="#ffca86" stroke="#ffca86" stroke-width="1.51"/><path d="M904,-254L1026,-93L1069,-280Z" fill="#eaa081" stroke="#eaa081" stroke-width="1.51"/><path d="M903,521L956,550L1081,506Z" fill="#fefebb" stroke="#fefebb" stroke-width="1.51"/><path d="M1081,506L956,550L1105,559Z" fill="#fbfeb9" stroke="#fbfeb9" stroke-width="1.51"/><path d="M904,-254L889,-173L1026,-93Z" fill="#f1a383" stroke="#f1a383" stroke-width="1.51"/><path d="M956,550L876,780L1061,771Z" fill="#f4fbad" stroke="#f4fbad" stroke-width="1.51"/><path d="M746,1261L460,1292L944,1374Z" fill="#afaba5" stroke="#afaba5" stroke-width="1.51"/><path d="M889,-173L816,27L1026,-93Z" fill="#f9ac7d" stroke="#f9ac7d" stroke-width="1.51"/><path d="M816,27L766,129L824,236Z" fill="#ffc57b" stroke="#ffc57b" stroke-width="1.51"/><path d="M824,236L761,518L903,521Z" fill="#ffeda1" stroke="#ffeda1" stroke-width="1.51"/><path d="M903,521L876,780L956,550Z" fill="#fafab2" stroke="#fafab2" stroke-width="1.51"/><path d="M825,1243L944,1374L974,1265Z" fill="#abb9b9" stroke="#abb9b9" stroke-width="1.51"/><path d="M831,942L774,971L981,1156Z" fill="#c2dfa8" stroke="#c2dfa8" stroke-width="1.51"/><path d="M774,971L825,1243L981,1156Z" fill="#b6d3ab" stroke="#b6d3ab" stroke-width="1.51"/><path d="M825,1243L974,1265L981,1156Z" fill="#acc6ba" stroke="#acc6ba" stroke-width="1.51"/><path d="M765,-20L816,27L889,-173Z" fill="#faa973" stroke="#faa973" stroke-width="1.51"/><path d="M761,518L876,780L903,521Z" fill="#fbf6ac" stroke="#fbf6ac" stroke-width="1.51"/><path d="M825,1243L746,1261L944,1374Z" fill="#acb5b2" stroke="#acb5b2" stroke-width="1.51"/><path d="M774,971L693,1204L825,1243Z" fill="#b6caa4" stroke="#b6caa4" stroke-width="1.51"/><path d="M761,518L611,663L876,780Z" fill="#f7ef9d" stroke="#f7ef9d" stroke-width="1.51"/><path d="M611,663L624,748L876,780Z" fill="#f1ea91" stroke="#f1ea91" stroke-width="1.51"/><path d="M751,-300L889,-173L904,-254Z" fill="#e69678" stroke="#e69678" stroke-width="1.51"/><path d="M697,221L761,518L824,236Z" fill="#ffde8c" stroke="#ffde8c" stroke-width="1.51"/><path d="M751,-300L765,-20L889,-173Z" fill="#f09c74" stroke="#f09c74" stroke-width="1.51"/><path d="M624,748L774,971L831,942Z" fill="#d9e29b" stroke="#d9e29b" stroke-width="1.51"/><path d="M624,748L831,942L876,780Z" fill="#e3e89c" stroke="#e3e89c" stroke-width="1.51"/><path d="M624,748L583,830L774,971Z" fill="#dfde92" stroke="#dfde92" stroke-width="1.51"/><path d="M766,129L697,221L824,236Z" fill="#ffcd7d" stroke="#ffcd7d" stroke-width="1.51"/><path d="M693,1204L746,1261L825,1243Z" fill="#aeb9aa" stroke="#aeb9aa" stroke-width="1.51"/><path d="M697,221L472,444L761,518Z" fill="#ffdc8a" stroke="#ffdc8a" stroke-width="1.51"/><path d="M751,-300L552,-326L765,-20Z" fill="#e88e6a" stroke="#e88e6a" stroke-width="1.51"/><path d="M765,-20L766,129L816,27Z" fill="#feb571" stroke="#feb571" stroke-width="1.51"/><path d="M472,444L560,565L761,518Z" fill="#ffe297" stroke="#ffe297" stroke-width="1.51"/><path d="M560,565L611,663L761,518Z" fill="#fde89b" stroke="#fde89b" stroke-width="1.51"/><path d="M552,-326L438,-38L765,-20Z" fill="#f08e61" stroke="#f08e61" stroke-width="1.51"/><path d="M456,178L697,221L766,129Z" fill="#fec06f" stroke="#fec06f" stroke-width="1.51"/><path d="M765,-20L438,-38L766,129Z" fill="#fca864" stroke="#fca864" stroke-width="1.51"/><path d="M438,-38L456,178L766,129Z" fill="#fca861" stroke="#fca861" stroke-width="1.51"/><path d="M432,1020L693,1204L774,971Z" fill="#bfcb92" stroke="#bfcb92" stroke-width="1.51"/><path d="M583,830L432,1020L774,971Z" fill="#d2d18e" stroke="#d2d18e" stroke-width="1.51"/><path d="M693,1204L460,1292L746,1261Z" fill="#afaca0" stroke="#afaca0" stroke-width="1.51"/><path d="M432,1020L443,1155L693,1204Z" fill="#bbb88d" stroke="#bbb88d" stroke-width="1.51"/><path d="M450,273L472,444L697,221Z" fill="#fec977" stroke="#fec977" stroke-width="1.51"/><path d="M456,178L450,273L697,221Z" fill="#febc6c" stroke="#febc6c" stroke-width="1.51"/><path d="M443,1155L460,1292L693,1204Z" fill="#b4a995" stroke="#b4a995" stroke-width="1.51"/><path d="M328,720L583,830L611,663Z" fill="#f2d681" stroke="#f2d681" stroke-width="1.51"/><path d="M611,663L583,830L624,748Z" fill="#f0df8a" stroke="#f0df8a" stroke-width="1.51"/><path d="M560,565L376,573L611,663Z" fill="#fddb8e" stroke="#fddb8e" stroke-width="1.51"/><path d="M376,573L328,720L611,663Z" fill="#fad282" stroke="#fad282" stroke-width="1.51"/><path d="M288,-358L223,-243L438,-38Z" fill="#e2634f" stroke="#e2634f" stroke-width="1.51"/><path d="M288,-358L438,-38L552,-326Z" fill="#e06f55" stroke="#e06f55" stroke-width="1.51"/><path d="M328,720L432,1020L583,830Z" fill="#e1c980" stroke="#e1c980" stroke-width="1.51"/><path d="M472,444L376,573L560,565Z" fill="#ffd78e" stroke="#ffd78e" stroke-width="1.51"/><path d="M438,-38L383,155L456,178Z" fill="#fb9d58" stroke="#fb9d58" stroke-width="1.51"/><path d="M328,720L222,932L432,1020Z" fill="#dcb879" stroke="#dcb879" stroke-width="1.51"/><path d="M213,-149L276,-30L438,-38Z" fill="#f1734c" stroke="#f1734c" stroke-width="1.51"/><path d="M223,-243L213,-149L438,-38Z" fill="#ea684d" stroke="#ea684d" stroke-width="1.51"/><path d="M276,-30L383,155L438,-38Z" fill="#f9884f" stroke="#f9884f" stroke-width="1.51"/><path d="M432,1020L387,1171L443,1155Z" fill="#bdb084" stroke="#bdb084" stroke-width="1.51"/><path d="M443,1155L387,1171L460,1292Z" fill="#b6a18c" stroke="#b6a18c" stroke-width="1.51"/><path d="M378,323L259,414L472,444Z" fill="#ffc075" stroke="#ffc075" stroke-width="1.51"/><path d="M259,414L376,573L472,444Z" fill="#ffc781" stroke="#ffc781" stroke-width="1.51"/><path d="M450,273L378,323L472,444Z" fill="#fec273" stroke="#fec273" stroke-width="1.51"/><path d="M383,155L450,273L456,178Z" fill="#fdae62" stroke="#fdae62" stroke-width="1.51"/><path d="M387,1171L310,1321L460,1292Z" fill="#b2938d" stroke="#b2938d" stroke-width="1.51"/><path d="M222,932L269,1041L432,1020Z" fill="#cdaf7a" stroke="#cdaf7a" stroke-width="1.51"/><path d="M383,155L378,323L450,273Z" fill="#fdb266" stroke="#fdb266" stroke-width="1.51"/><path d="M269,1041L387,1171L432,1020Z" fill="#c1b07e" stroke="#c1b07e" stroke-width="1.51"/><path d="M189,814L222,932L328,720Z" fill="#e6b372" stroke="#e6b372" stroke-width="1.51"/><path d="M259,414L182,509L376,573Z" fill="#ffbd7e" stroke="#ffbd7e" stroke-width="1.51"/><path d="M194,688L328,720L376,573Z" fill="#f8c178" stroke="#f8c178" stroke-width="1.51"/><path d="M140,354L378,323L383,155Z" fill="#fca963" stroke="#fca963" stroke-width="1.51"/><path d="M276,-30L231,1L383,155Z" fill="#f8824c" stroke="#f8824c" stroke-width="1.51"/><path d="M185,1185L310,1321L387,1171Z" fill="#b58e85" stroke="#b58e85" stroke-width="1.51"/><path d="M269,1041L185,1185L387,1171Z" fill="#bd9d7d" stroke="#bd9d7d" stroke-width="1.51"/><path d="M140,354L259,414L378,323Z" fill="#fdb06a" stroke="#fdb06a" stroke-width="1.51"/><path d="M231,1L140,354L383,155Z" fill="#fa9353" stroke="#fa9353" stroke-width="1.51"/><path d="M182,509L194,688L376,573Z" fill="#fdbd7c" stroke="#fdbd7c" stroke-width="1.51"/><path d="M97,1270L7,1393L310,1321Z" fill="#b06d7e" stroke="#b06d7e" stroke-width="1.51"/><path d="M194,688L189,814L328,720Z" fill="#f1b76f" stroke="#f1b76f" stroke-width="1.51"/><path d="M-59,116L140,354L231,1Z" fill="#f38253" stroke="#f38253" stroke-width="1.51"/><path d="M185,1185L97,1270L310,1321Z" fill="#b27e81" stroke="#b27e81" stroke-width="1.51"/><path d="M213,-149L231,1L276,-30Z" fill="#f06b48" stroke="#f06b48" stroke-width="1.51"/><path d="M-21,-345L223,-243L288,-358Z" fill="#cd4346" stroke="#cd4346" stroke-width="1.51"/><path d="M-12,1120L185,1185L269,1041Z" fill="#bb9377" stroke="#bb9377" stroke-width="1.51"/><path d="M-30,1053L-12,1120L269,1041Z" fill="#bb9476" stroke="#bb9476" stroke-width="1.51"/><path d="M222,932L-30,1053L269,1041Z" fill="#c99f74" stroke="#c99f74" stroke-width="1.51"/><path d="M140,354L182,509L259,414Z" fill="#fdad6f" stroke="#fdad6f" stroke-width="1.51"/><path d="M182,509L55,686L194,688Z" fill="#f7b177" stroke="#f7b177" stroke-width="1.51"/><path d="M213,-149L-62,-136L231,1Z" fill="#e85a49" stroke="#e85a49" stroke-width="1.51"/><path d="M-62,-136L-59,116L231,1Z" fill="#ea5d48" stroke="#ea5d48" stroke-width="1.51"/><path d="M189,814L-46,794L222,932Z" fill="#dda673" stroke="#dda673" stroke-width="1.51"/><path d="M-62,-136L213,-149L223,-243Z" fill="#e0504b" stroke="#e0504b" stroke-width="1.51"/><path d="M-21,-345L-62,-136L223,-243Z" fill="#d1404b" stroke="#d1404b" stroke-width="1.51"/><path d="M-46,794L-30,1053L222,932Z" fill="#ce9c76" stroke="#ce9c76" stroke-width="1.51"/><path d="M55,686L189,814L194,688Z" fill="#efaf6e" stroke="#efaf6e" stroke-width="1.51"/><path d="M140,354L16,399L182,509Z" fill="#f8a670" stroke="#f8a670" stroke-width="1.51"/><path d="M-59,116L-61,357L140,354Z" fill="#ef8d62" stroke="#ef8d62" stroke-width="1.51"/><path d="M55,686L-46,794L189,814Z" fill="#e5a771" stroke="#e5a771" stroke-width="1.51"/><path d="M16,399L55,686L182,509Z" fill="#f9ae80" stroke="#f9ae80" stroke-width="1.51"/><path d="M-12,1120L97,1270L185,1185Z" fill="#b2827e" stroke="#b2827e" stroke-width="1.51"/><path d="M-61,357L16,399L140,354Z" fill="#f29c6c" stroke="#f29c6c" stroke-width="1.51"/><path d="M-62,-136L-141,0L-59,116Z" fill="#e05249" stroke="#e05249" stroke-width="1.51"/><path d="M16,399L-224,726L55,686Z" fill="#eca27e" stroke="#eca27e" stroke-width="1.51"/><path d="M-123,1329L7,1393L97,1270Z" fill="#a6627f" stroke="#a6627f" stroke-width="1.51"/><path d="M-12,1120L-123,1329L97,1270Z" fill="#a77183" stroke="#a77183" stroke-width="1.51"/><path d="M-46,794L-201,936L-30,1053Z" fill="#c39177" stroke="#c39177" stroke-width="1.51"/><path d="M-61,357L-229,395L16,399Z" fill="#e9936e" stroke="#e9936e" stroke-width="1.51"/><path d="M-229,395L-224,726L16,399Z" fill="#e5997d" stroke="#e5997d" stroke-width="1.51"/><path d="M-224,726L-46,794L55,686Z" fill="#e09e72" stroke="#e09e72" stroke-width="1.51"/><path d="M-209,-290L-62,-136L-21,-345Z" fill="#c32f4c" stroke="#c32f4c" stroke-width="1.51"/><path d="M-214,1185L-123,1329L-12,1120Z" fill="#a06e80" stroke="#a06e80" stroke-width="1.51"/><path d="M-167,-61L-141,0L-62,-136Z" fill="#d6484a" stroke="#d6484a" stroke-width="1.51"/><path d="M-294,312L-61,357L-59,116Z" fill="#e27f5f" stroke="#e27f5f" stroke-width="1.51"/><path d="M-30,1053L-214,1185L-12,1120Z" fill="#ab817a" stroke="#ab817a" stroke-width="1.51"/><path d="M-229,395L-277,704L-224,726Z" fill="#d79278" stroke="#d79278" stroke-width="1.51"/><path d="M-201,936L-214,1185L-30,1053Z" fill="#ab8475" stroke="#ab8475" stroke-width="1.51"/><path d="M-294,312L-229,395L-61,357Z" fill="#dd8868" stroke="#dd8868" stroke-width="1.51"/><path d="M-224,726L-201,936L-46,794Z" fill="#cb9272" stroke="#cb9272" stroke-width="1.51"/><path d="M-209,-290L-167,-61L-62,-136Z" fill="#cb374c" stroke="#cb374c" stroke-width="1.51"/><path d="M-141,0L-294,312L-59,116Z" fill="#dc6a53" stroke="#dc6a53" stroke-width="1.51"/><path d="M-167,-61L-294,312L-141,0Z" fill="#d65b4d" stroke="#d65b4d" stroke-width="1.51"/><path d="M-224,726L-277,704L-201,936Z" fill="#c78d70" stroke="#c78d70" stroke-width="1.51"/><path d="M-209,-290L-294,312L-167,-61Z" fill="#d04646" stroke="#d04646" stroke-width="1.51"/><path d="M-294,312L-277,704L-229,395Z" fill="#d78c75" stroke="#d78c75" stroke-width="1.51"/><path d="M-277,704L-214,1185L-201,936Z" fill="#b28573" stroke="#b28573" stroke-width="1.51"/></svg>