<svg xmlns="http://www.w3.org/2000/svg" width="1920" height="1080"><path d="M783,1256L-20,1270L997,1282Z" fill="#b8772f" stroke="#b8772f" stroke-width="1.51"/><path d="M619,-181L896,-165L1208,-193Z" fill="#ffce87" stroke="#ffce87" stroke-width="1.51"/><path d="M997,1282L-20,1270L1336,1299Z" fill="#b56b22" stroke="#b56b22" stroke-width="1.51"/><path d="M619,-181L1208,-193L1367,-222Z" fill="#ffc482" stroke="#ffc482" stroke-width="1.51"/><path d="M450,-200L619,-181L1367,-222Z" fill="#ffd68f" stroke="#ffd68f" stroke-width="1.51"/><path d="M231,-225L450,-200L1367,-222Z" fill="#ffdf98" stroke="#ffdf98" stroke-width="1.51"/><path d="M1503,1265L1336,1299L1769,1252Z" fill="#a03c07" stroke="#a03c07" stroke-width="1.51"/><path d="M2008,1063L2073,1128L2090,902Z" fill="#963505" stroke="#963505" stroke-width="1.51"/><path d="M2084,321L2013,350L2098,509Z" fill="#bc7124" stroke="#bc7124" stroke-width="1.51"/><path d="M1637,-176L1824,-163L2125,-218Z" fill="#d6996d" stroke="#d6996d" stroke-width="1.51"/><path d="M1367,-222L1637,-176L2125,-218Z" fill="#e4a071" stroke="#e4a071" stroke-width="1.51"/><path d="M2090,-27L2035,42L2164,194Z" fill="#bd8851" stroke="#bd8851" stroke-width="1.51"/><path d="M2084,321L2098,509L2164,194Z" fill="#b87529" stroke="#b87529" stroke-width="1.51"/><path d="M2125,-218L2090,-27L2164,194Z" fill="#bb8b5a" stroke="#bb8b5a" stroke-width="1.51"/><path d="M2098,509L1957,550L2173,658Z" fill="#b95d15" stroke="#b95d15" stroke-width="1.51"/><path d="M1957,550L2032,751L2173,658Z" fill="#b75511" stroke="#b75511" stroke-width="1.51"/><path d="M2032,751L2075,825L2173,658Z" fill="#af4b0c" stroke="#af4b0c" stroke-width="1.51"/><path d="M2075,825L2090,902L2173,658Z" fill="#a9460a" stroke="#a9460a" stroke-width="1.51"/><path d="M2164,194L2098,509L2173,658Z" fill="#b5681f" stroke="#b5681f" stroke-width="1.51"/><path d="M1769,1252L1336,1299L2176,1273Z" fill="#8e3306" stroke="#8e3306" stroke-width="1.51"/><path d="M1943,1228L1769,1252L2176,1273Z" fill="#812d06" stroke="#812d06" stroke-width="1.51"/><path d="M2073,1128L1943,1228L2176,1273Z" fill="#7e2d06" stroke="#7e2d06" stroke-width="1.51"/><path d="M2173,658L2090,902L2176,1273Z" fill="#9a3906" stroke="#9a3906" stroke-width="1.51"/><path d="M2090,902L2073,1128L2176,1273Z" fill="#892f06" stroke="#892f06" stroke-width="1.51"/><path d="M1981,968L2008,1063L2090,902Z" fill="#a03905" stroke="#a03905" stroke-width="1.51"/><path d="M1930,167L2084,321L2164,194Z" fill="#bf803d" stroke="#bf803d" stroke-width="1.51"/><path d="M2035,42L1930,167L2164,194Z" fill="#c1874a" stroke="#c1874a" stroke-width="1.51"/><path d="M2013,350L1978,428L2098,509Z" fill="#c06e21" stroke="#c06e21" stroke-width="1.51"/><path d="M1901,-117L2090,-27L2125,-218Z" fill="#c59165" stroke="#c59165" stroke-width="1.51"/><path d="M1824,-163L1901,-117L2125,-218Z" fill="#ce956a" stroke="#ce956a" stroke-width="1.51"/><path d="M1930,167L2013,350L2084,321Z" fill="#c37d35" stroke="#c37d35" stroke-width="1.51"/><path d="M1978,428L1957,550L2098,509Z" fill="#c0681b" stroke="#c0681b" stroke-width="1.51"/><path d="M2075,825L1981,968L2090,902Z" fill="#a73f06" stroke="#a73f06" stroke-width="1.51"/><path d="M1901,-117L2035,42L2090,-27Z" fill="#c7905c" stroke="#c7905c" stroke-width="1.51"/><path d="M2008,1063L1943,1228L2073,1128Z" fill="#8c3005" stroke="#8c3005" stroke-width="1.51"/><path d="M2032,751L1981,968L2075,825Z" fill="#ac4308" stroke="#ac4308" stroke-width="1.51"/><path d="M1778,586L1798,798L1957,550Z" fill="#c95d10" stroke="#c95d10" stroke-width="1.51"/><path d="M1798,798L1981,968L2032,751Z" fill="#b54707" stroke="#b54707" stroke-width="1.51"/><path d="M1957,550L1798,798L2032,751Z" fill="#c0540e" stroke="#c0540e" stroke-width="1.51"/><path d="M1847,-24L1930,167L2035,42Z" fill="#cc8e53" stroke="#cc8e53" stroke-width="1.51"/><path d="M1901,-117L1847,-24L2035,42Z" fill="#cf935d" stroke="#cf935d" stroke-width="1.51"/><path d="M1811,1108L1943,1228L2008,1063Z" fill="#953305" stroke="#953305" stroke-width="1.51"/><path d="M1762,255L1978,428L2013,350Z" fill="#ca7b29" stroke="#ca7b29" stroke-width="1.51"/><path d="M1930,167L1762,255L2013,350Z" fill="#cd8238" stroke="#cd8238" stroke-width="1.51"/><path d="M1798,798L1780,955L1981,968Z" fill="#b74304" stroke="#b74304" stroke-width="1.51"/><path d="M1981,968L1811,1108L2008,1063Z" fill="#9f3705" stroke="#9f3705" stroke-width="1.51"/><path d="M1762,255L1819,516L1978,428Z" fill="#cf7824" stroke="#cf7824" stroke-width="1.51"/><path d="M1819,516L1957,550L1978,428Z" fill="#c86b1a" stroke="#c86b1a" stroke-width="1.51"/><path d="M1780,955L1811,1108L1981,968Z" fill="#aa3c04" stroke="#aa3c04" stroke-width="1.51"/><path d="M1819,516L1778,586L1957,550Z" fill="#ce6715" stroke="#ce6715" stroke-width="1.51"/><path d="M1847,-24L1703,149L1930,167Z" fill="#d69150" stroke="#d69150" stroke-width="1.51"/><path d="M1811,1108L1769,1252L1943,1228Z" fill="#933305" stroke="#933305" stroke-width="1.51"/><path d="M1721,8L1703,149L1847,-24Z" fill="#dd9756" stroke="#dd9756" stroke-width="1.51"/><path d="M1703,149L1750,220L1930,167Z" fill="#d78e46" stroke="#d78e46" stroke-width="1.51"/><path d="M1750,220L1762,255L1930,167Z" fill="#d58a41" stroke="#d58a41" stroke-width="1.51"/><path d="M1762,255L1643,363L1819,516Z" fill="#d97f26" stroke="#d97f26" stroke-width="1.51"/><path d="M1824,-163L1847,-24L1901,-117Z" fill="#d69764" stroke="#d69764" stroke-width="1.51"/><path d="M247,1215L-20,1270L783,1256Z" fill="#bc8448" stroke="#bc8448" stroke-width="1.51"/><path d="M1593,1219L1503,1265L1769,1252Z" fill="#9e3905" stroke="#9e3905" stroke-width="1.51"/><path d="M1780,955L1715,991L1811,1108Z" fill="#b03f04" stroke="#b03f04" stroke-width="1.51"/><path d="M1643,363L1616,455L1819,516Z" fill="#dd7920" stroke="#dd7920" stroke-width="1.51"/><path d="M1824,-163L1721,8L1847,-24Z" fill="#db9a61" stroke="#db9a61" stroke-width="1.51"/><path d="M1654,572L1629,799L1778,586Z" fill="#d76310" stroke="#d76310" stroke-width="1.51"/><path d="M1778,586L1629,799L1798,798Z" fill="#cf580b" stroke="#cf580b" stroke-width="1.51"/><path d="M1637,-176L1721,8L1824,-163Z" fill="#e19d67" stroke="#e19d67" stroke-width="1.51"/><path d="M1629,799L1780,955L1798,798Z" fill="#c54d06" stroke="#c54d06" stroke-width="1.51"/><path d="M1593,1219L1769,1252L1811,1108Z" fill="#9d3705" stroke="#9d3705" stroke-width="1.51"/><path d="M1654,572L1778,586L1819,516Z" fill="#d66a15" stroke="#d66a15" stroke-width="1.51"/><path d="M1616,455L1654,572L1819,516Z" fill="#dc7219" stroke="#dc7219" stroke-width="1.51"/><path d="M1715,991L1597,1015L1811,1108Z" fill="#b34003" stroke="#b34003" stroke-width="1.51"/><path d="M1597,1015L1593,1219L1811,1108Z" fill="#ac3d04" stroke="#ac3d04" stroke-width="1.51"/><path d="M1566,653L1629,799L1654,572Z" fill="#dc630e" stroke="#dc630e" stroke-width="1.51"/><path d="M1629,799L1715,991L1780,955Z" fill="#c24803" stroke="#c24803" stroke-width="1.51"/><path d="M1535,1107L1593,1219L1597,1015Z" fill="#b44103" stroke="#b44103" stroke-width="1.51"/><path d="M1750,220L1643,363L1762,255Z" fill="#dc8936" stroke="#dc8936" stroke-width="1.51"/><path d="M1703,149L1643,363L1750,220Z" fill="#de8d3d" stroke="#de8d3d" stroke-width="1.51"/><path d="M1437,145L1643,363L1703,149Z" fill="#e89342" stroke="#e89342" stroke-width="1.51"/><path d="M1629,799L1597,1015L1715,991Z" fill="#c54903" stroke="#c54903" stroke-width="1.51"/><path d="M1562,55L1703,149L1721,8Z" fill="#e49a55" stroke="#e49a55" stroke-width="1.51"/><path d="M1637,-176L1562,55L1721,8Z" fill="#e8a061" stroke="#e8a061" stroke-width="1.51"/><path d="M1437,145L1490,368L1643,363Z" fill="#eb9236" stroke="#eb9236" stroke-width="1.51"/><path d="M1562,55L1437,145L1703,149Z" fill="#eb9c52" stroke="#eb9c52" stroke-width="1.51"/><path d="M1455,881L1597,1015L1629,799Z" fill="#d05003" stroke="#d05003" stroke-width="1.51"/><path d="M1435,-123L1562,55L1637,-176Z" fill="#f0a667" stroke="#f0a667" stroke-width="1.51"/><path d="M1367,-222L1435,-123L1637,-176Z" fill="#f4ab73" stroke="#f4ab73" stroke-width="1.51"/><path d="M1616,455L1502,449L1654,572Z" fill="#e5791c" stroke="#e5791c" stroke-width="1.51"/><path d="M1502,449L1566,653L1654,572Z" fill="#e57215" stroke="#e57215" stroke-width="1.51"/><path d="M1566,653L1487,709L1629,799Z" fill="#dd610c" stroke="#dd610c" stroke-width="1.51"/><path d="M1490,368L1616,455L1643,363Z" fill="#e68426" stroke="#e68426" stroke-width="1.51"/><path d="M1490,368L1502,449L1616,455Z" fill="#e98324" stroke="#e98324" stroke-width="1.51"/><path d="M1487,709L1455,881L1629,799Z" fill="#da5c09" stroke="#da5c09" stroke-width="1.51"/><path d="M1502,449L1365,620L1566,653Z" fill="#e97517" stroke="#e97517" stroke-width="1.51"/><path d="M1535,1107L1503,1265L1593,1219Z" fill="#aa3f06" stroke="#aa3f06" stroke-width="1.51"/><path d="M1455,881L1535,1107L1597,1015Z" fill="#c44a03" stroke="#c44a03" stroke-width="1.51"/><path d="M1437,145L1360,244L1490,368Z" fill="#f09a40" stroke="#f09a40" stroke-width="1.51"/><path d="M1455,881L1314,1104L1535,1107Z" fill="#c64e06" stroke="#c64e06" stroke-width="1.51"/><path d="M1323,-59L1437,145L1562,55Z" fill="#f3a65c" stroke="#f3a65c" stroke-width="1.51"/><path d="M1435,-123L1323,-59L1562,55Z" fill="#f4ab66" stroke="#f4ab66" stroke-width="1.51"/><path d="M1365,620L1487,709L1566,653Z" fill="#e56d12" stroke="#e56d12" stroke-width="1.51"/><path d="M1365,889L1314,1104L1455,881Z" fill="#d25607" stroke="#d25607" stroke-width="1.51"/><path d="M1314,1104L1503,1265L1535,1107Z" fill="#b34607" stroke="#b34607" stroke-width="1.51"/><path d="M1365,889L1455,881L1487,709Z" fill="#dc5e0b" stroke="#dc5e0b" stroke-width="1.51"/><path d="M1310,706L1365,889L1487,709Z" fill="#e3670f" stroke="#e3670f" stroke-width="1.51"/><path d="M1490,368L1284,433L1502,449Z" fill="#ef8b28" stroke="#ef8b28" stroke-width="1.51"/><path d="M1284,433L1365,620L1502,449Z" fill="#ef8320" stroke="#ef8320" stroke-width="1.51"/><path d="M1314,1104L1336,1299L1503,1265Z" fill="#ae4709" stroke="#ae4709" stroke-width="1.51"/><path d="M1360,244L1284,433L1490,368Z" fill="#f19530" stroke="#f19530" stroke-width="1.51"/><path d="M1365,620L1310,706L1487,709Z" fill="#e97014" stroke="#e97014" stroke-width="1.51"/><path d="M1323,-59L1246,157L1437,145Z" fill="#f7ab5c" stroke="#f7ab5c" stroke-width="1.51"/><path d="M1225,951L1314,1104L1365,889Z" fill="#d3590a" stroke="#d3590a" stroke-width="1.51"/><path d="M1280,219L1360,244L1437,145Z" fill="#f5a24a" stroke="#f5a24a" stroke-width="1.51"/><path d="M1246,157L1280,219L1437,145Z" fill="#f7a651" stroke="#f7a651" stroke-width="1.51"/><path d="M1367,-222L1323,-59L1435,-123Z" fill="#f9b072" stroke="#f9b072" stroke-width="1.51"/><path d="M1280,219L1166,334L1284,433Z" fill="#f89e37" stroke="#f89e37" stroke-width="1.51"/><path d="M1188,-6L1246,157L1323,-59Z" fill="#fcb264" stroke="#fcb264" stroke-width="1.51"/><path d="M1314,1104L1165,1188L1336,1299Z" fill="#b74e0c" stroke="#b74e0c" stroke-width="1.51"/><path d="M1280,219L1284,433L1360,244Z" fill="#f69d3b" stroke="#f69d3b" stroke-width="1.51"/><path d="M1310,706L1147,793L1365,889Z" fill="#e76b11" stroke="#e76b11" stroke-width="1.51"/><path d="M1147,793L1225,951L1365,889Z" fill="#e1640e" stroke="#e1640e" stroke-width="1.51"/><path d="M1284,433L1205,610L1365,620Z" fill="#f4821d" stroke="#f4821d" stroke-width="1.51"/><path d="M1208,-193L1323,-59L1367,-222Z" fill="#fdb577" stroke="#fdb577" stroke-width="1.51"/><path d="M1205,610L1310,706L1365,620Z" fill="#ef7819" stroke="#ef7819" stroke-width="1.51"/><path d="M1177,475L1205,610L1284,433Z" fill="#f78c24" stroke="#f78c24" stroke-width="1.51"/><path d="M1165,1188L997,1282L1336,1299Z" fill="#b25310" stroke="#b25310" stroke-width="1.51"/><path d="M1225,951L1153,1114L1314,1104Z" fill="#cc580d" stroke="#cc580d" stroke-width="1.51"/><path d="M1208,-193L1188,-6L1323,-59Z" fill="#feb770" stroke="#feb770" stroke-width="1.51"/><path d="M1153,1114L1165,1188L1314,1104Z" fill="#c2550d" stroke="#c2550d" stroke-width="1.51"/><path d="M1205,610L1147,793L1310,706Z" fill="#ef7717" stroke="#ef7717" stroke-width="1.51"/><path d="M380,1193L247,1215L783,1256Z" fill="#bf7f3c" stroke="#bf7f3c" stroke-width="1.51"/><path d="M1166,334L1177,475L1284,433Z" fill="#f8972e" stroke="#f8972e" stroke-width="1.51"/><path d="M1246,157L1166,334L1280,219Z" fill="#f9a648" stroke="#f9a648" stroke-width="1.51"/><path d="M896,-165L1074,-124L1208,-193Z" fill="#ffc47e" stroke="#ffc47e" stroke-width="1.51"/><path d="M1074,-124L1188,-6L1208,-193Z" fill="#ffbd76" stroke="#ffbd76" stroke-width="1.51"/><path d="M1081,977L1153,1114L1225,951Z" fill="#d4610f" stroke="#d4610f" stroke-width="1.51"/><path d="M1030,181L1166,334L1246,157Z" fill="#fbad4d" stroke="#fbad4d" stroke-width="1.51"/><path d="M1188,-6L1071,-3L1246,157Z" fill="#feb764" stroke="#feb764" stroke-width="1.51"/><path d="M1071,-3L1030,181L1246,157Z" fill="#feb75f" stroke="#feb75f" stroke-width="1.51"/><path d="M1030,181L1020,242L1166,334Z" fill="#fdaf4b" stroke="#fdaf4b" stroke-width="1.51"/><path d="M1038,685L1147,793L1205,610Z" fill="#f27e1b" stroke="#f27e1b" stroke-width="1.51"/><path d="M1147,793L1081,977L1225,951Z" fill="#e16810" stroke="#e16810" stroke-width="1.51"/><path d="M1074,-124L1071,-3L1188,-6Z" fill="#ffbe71" stroke="#ffbe71" stroke-width="1.51"/><path d="M1177,475L1038,685L1205,610Z" fill="#f78821" stroke="#f78821" stroke-width="1.51"/><path d="M924,564L1038,685L1177,475Z" fill="#fa9024" stroke="#fa9024" stroke-width="1.51"/><path d="M1166,334L983,403L1177,475Z" fill="#fb9f32" stroke="#fb9f32" stroke-width="1.51"/><path d="M983,403L924,564L1177,475Z" fill="#fd9b2d" stroke="#fd9b2d" stroke-width="1.51"/><path d="M950,878L1081,977L1147,793Z" fill="#e67015" stroke="#e67015" stroke-width="1.51"/><path d="M1153,1114L997,1282L1165,1188Z" fill="#bc5912" stroke="#bc5912" stroke-width="1.51"/><path d="M1020,242L983,403L1166,334Z" fill="#fdaa3d" stroke="#fdaa3d" stroke-width="1.51"/><path d="M1081,977L987,1017L1153,1114Z" fill="#d36411" stroke="#d36411" stroke-width="1.51"/><path d="M987,1017L997,1282L1153,1114Z" fill="#c66012" stroke="#c66012" stroke-width="1.51"/><path d="M1038,685L969,745L1147,793Z" fill="#f27e1b" stroke="#f27e1b" stroke-width="1.51"/><path d="M969,745L950,878L1147,793Z" fill="#ee7a19" stroke="#ee7a19" stroke-width="1.51"/><path d="M619,-181L753,-145L896,-165Z" fill="#ffd98e" stroke="#ffd98e" stroke-width="1.51"/><path d="M906,505L924,564L983,403Z" fill="#fea030" stroke="#fea030" stroke-width="1.51"/><path d="M987,1017L825,1173L997,1282Z" fill="#c66617" stroke="#c66617" stroke-width="1.51"/><path d="M934,335L983,403L1020,242Z" fill="#feaf40" stroke="#feaf40" stroke-width="1.51"/><path d="M938,166L1030,181L1071,-3Z" fill="#ffbd62" stroke="#ffbd62" stroke-width="1.51"/><path d="M864,-5L938,166L1071,-3Z" fill="#ffc36b" stroke="#ffc36b" stroke-width="1.51"/><path d="M864,-5L1071,-3L1074,-124Z" fill="#ffc574" stroke="#ffc574" stroke-width="1.51"/><path d="M896,-165L864,-5L1074,-124Z" fill="#ffca7c" stroke="#ffca7c" stroke-width="1.51"/><path d="M950,878L987,1017L1081,977Z" fill="#e06e14" stroke="#e06e14" stroke-width="1.51"/><path d="M830,1072L825,1173L987,1017Z" fill="#d06e1b" stroke="#d06e1b" stroke-width="1.51"/><path d="M924,564L969,745L1038,685Z" fill="#f88b22" stroke="#f88b22" stroke-width="1.51"/><path d="M938,166L1020,242L1030,181Z" fill="#ffb857" stroke="#ffb857" stroke-width="1.51"/><path d="M924,564L891,743L969,745Z" fill="#f88d24" stroke="#f88d24" stroke-width="1.51"/><path d="M938,166L934,335L1020,242Z" fill="#ffb64f" stroke="#ffb64f" stroke-width="1.51"/><path d="M891,743L950,878L969,745Z" fill="#f1811e" stroke="#f1811e" stroke-width="1.51"/><path d="M825,1173L783,1256L997,1282Z" fill="#bb671c" stroke="#bb671c" stroke-width="1.51"/><path d="M950,878L830,1072L987,1017Z" fill="#dd7219" stroke="#dd7219" stroke-width="1.51"/><path d="M934,335L906,505L983,403Z" fill="#ffa937" stroke="#ffa937" stroke-width="1.51"/><path d="M793,557L891,743L924,564Z" fill="#fb972b" stroke="#fb972b" stroke-width="1.51"/><path d="M752,516L906,505L934,335Z" fill="#ffaa38" stroke="#ffaa38" stroke-width="1.51"/><path d="M692,281L934,335L938,166Z" fill="#ffbd52" stroke="#ffbd52" stroke-width="1.51"/><path d="M891,743L698,891L950,878Z" fill="#ee8422" stroke="#ee8422" stroke-width="1.51"/><path d="M698,891L830,1072L950,878Z" fill="#e47c1f" stroke="#e47c1f" stroke-width="1.51"/><path d="M732,749L698,891L891,743Z" fill="#f18d28" stroke="#f18d28" stroke-width="1.51"/><path d="M692,281L752,516L934,335Z" fill="#ffb744" stroke="#ffb744" stroke-width="1.51"/><path d="M864,-5L687,105L938,166Z" fill="#ffcb6e" stroke="#ffcb6e" stroke-width="1.51"/><path d="M687,105L692,281L938,166Z" fill="#ffc965" stroke="#ffc965" stroke-width="1.51"/><path d="M753,-145L742,-65L864,-5Z" fill="#ffd482" stroke="#ffd482" stroke-width="1.51"/><path d="M753,-145L864,-5L896,-165Z" fill="#ffd283" stroke="#ffd283" stroke-width="1.51"/><path d="M906,505L793,557L924,564Z" fill="#fe9f2f" stroke="#fe9f2f" stroke-width="1.51"/><path d="M615,1170L380,1193L783,1256Z" fill="#c17a2f" stroke="#c17a2f" stroke-width="1.51"/><path d="M793,557L732,749L891,743Z" fill="#f9952c" stroke="#f9952c" stroke-width="1.51"/><path d="M752,516L793,557L906,505Z" fill="#ffa534" stroke="#ffa534" stroke-width="1.51"/><path d="M742,-65L687,105L864,-5Z" fill="#ffd37a" stroke="#ffd37a" stroke-width="1.51"/><path d="M636,913L693,1137L698,891Z" fill="#e08429" stroke="#e08429" stroke-width="1.51"/><path d="M693,1137L825,1173L830,1072Z" fill="#cb7320" stroke="#cb7320" stroke-width="1.51"/><path d="M698,891L693,1137L830,1072Z" fill="#d87c24" stroke="#d87c24" stroke-width="1.51"/><path d="M693,1137L783,1256L825,1173Z" fill="#c27122" stroke="#c27122" stroke-width="1.51"/><path d="M687,105L630,182L692,281Z" fill="#ffcf6a" stroke="#ffcf6a" stroke-width="1.51"/><path d="M629,50L687,105L742,-65Z" fill="#ffd77d" stroke="#ffd77d" stroke-width="1.51"/><path d="M692,281L626,514L752,516Z" fill="#ffb844" stroke="#ffb844" stroke-width="1.51"/><path d="M752,516L626,514L793,557Z" fill="#feab39" stroke="#feab39" stroke-width="1.51"/><path d="M626,514L732,749L793,557Z" fill="#fca335" stroke="#fca335" stroke-width="1.51"/><path d="M693,1137L615,1170L783,1256Z" fill="#c27626" stroke="#c27626" stroke-width="1.51"/><path d="M636,913L574,1108L693,1137Z" fill="#d6822c" stroke="#d6822c" stroke-width="1.51"/><path d="M626,514L513,643L732,749Z" fill="#fba73b" stroke="#fba73b" stroke-width="1.51"/><path d="M513,643L522,725L732,749Z" fill="#f9a13c" stroke="#f9a13c" stroke-width="1.51"/><path d="M619,-181L742,-65L753,-145Z" fill="#ffdc8d" stroke="#ffdc8d" stroke-width="1.51"/><path d="M578,270L626,514L692,281Z" fill="#fec450" stroke="#fec450" stroke-width="1.51"/><path d="M636,913L698,891L732,749Z" fill="#ed8e2b" stroke="#ed8e2b" stroke-width="1.51"/><path d="M619,-181L629,50L742,-65Z" fill="#ffdd88" stroke="#ffdd88" stroke-width="1.51"/><path d="M522,725L636,913L732,749Z" fill="#f29733" stroke="#f29733" stroke-width="1.51"/><path d="M630,182L578,270L692,281Z" fill="#ffcd63" stroke="#ffcd63" stroke-width="1.51"/><path d="M574,1108L615,1170L693,1137Z" fill="#ca7c2b" stroke="#ca7c2b" stroke-width="1.51"/><path d="M522,725L473,788L636,913Z" fill="#f29a3d" stroke="#f29a3d" stroke-width="1.51"/><path d="M629,50L630,182L687,105Z" fill="#ffd575" stroke="#ffd575" stroke-width="1.51"/><path d="M578,270L389,457L626,514Z" fill="#ffc356" stroke="#ffc356" stroke-width="1.51"/><path d="M389,457L455,568L626,514Z" fill="#ffba52" stroke="#ffba52" stroke-width="1.51"/><path d="M455,568L513,643L626,514Z" fill="#feb149" stroke="#feb149" stroke-width="1.51"/><path d="M619,-181L450,-200L629,50Z" fill="#ffe397" stroke="#ffe397" stroke-width="1.51"/><path d="M450,-200L363,37L629,50Z" fill="#ffe698" stroke="#ffe698" stroke-width="1.51"/><path d="M629,50L363,37L630,182Z" fill="#ffdc83" stroke="#ffdc83" stroke-width="1.51"/><path d="M363,37L376,219L630,182Z" fill="#ffdd86" stroke="#ffdd86" stroke-width="1.51"/><path d="M358,950L574,1108L636,913Z" fill="#e08c39" stroke="#e08c39" stroke-width="1.51"/><path d="M473,788L358,950L636,913Z" fill="#ec963f" stroke="#ec963f" stroke-width="1.51"/><path d="M376,219L578,270L630,182Z" fill="#ffd472" stroke="#ffd472" stroke-width="1.51"/><path d="M358,950L366,1071L574,1108Z" fill="#d98d41" stroke="#d98d41" stroke-width="1.51"/><path d="M372,309L389,457L578,270Z" fill="#ffce66" stroke="#ffce66" stroke-width="1.51"/><path d="M574,1108L380,1193L615,1170Z" fill="#c88037" stroke="#c88037" stroke-width="1.51"/><path d="M376,219L372,309L578,270Z" fill="#ffd574" stroke="#ffd574" stroke-width="1.51"/><path d="M366,1071L380,1193L574,1108Z" fill="#ce863f" stroke="#ce863f" stroke-width="1.51"/><path d="M513,643L473,788L522,725Z" fill="#f8a445" stroke="#f8a445" stroke-width="1.51"/><path d="M261,704L473,788L513,643Z" fill="#faa94f" stroke="#faa94f" stroke-width="1.51"/><path d="M455,568L261,704L513,643Z" fill="#fdb153" stroke="#fdb153" stroke-width="1.51"/><path d="M231,-225L363,37L450,-200Z" fill="#ffeeaf" stroke="#ffeeaf" stroke-width="1.51"/><path d="M297,574L261,704L455,568Z" fill="#feb75c" stroke="#feb75c" stroke-width="1.51"/><path d="M261,704L358,950L473,788Z" fill="#f3a24f" stroke="#f3a24f" stroke-width="1.51"/><path d="M389,457L297,574L455,568Z" fill="#ffbd5c" stroke="#ffbd5c" stroke-width="1.51"/><path d="M231,-225L162,-137L363,37Z" fill="#fff1b4" stroke="#fff1b4" stroke-width="1.51"/><path d="M261,704L162,883L358,950Z" fill="#f1a356" stroke="#f1a356" stroke-width="1.51"/><path d="M162,883L216,966L358,950Z" fill="#eb9c53" stroke="#eb9c53" stroke-width="1.51"/><path d="M155,-47L221,43L363,37Z" fill="#ffeda7" stroke="#ffeda7" stroke-width="1.51"/><path d="M162,-137L155,-47L363,37Z" fill="#fff0af" stroke="#fff0af" stroke-width="1.51"/><path d="M221,43L302,202L363,37Z" fill="#ffe79b" stroke="#ffe79b" stroke-width="1.51"/><path d="M358,950L306,1083L366,1071Z" fill="#db924a" stroke="#db924a" stroke-width="1.51"/><path d="M302,202L372,309L376,219Z" fill="#ffdb81" stroke="#ffdb81" stroke-width="1.51"/><path d="M363,37L302,202L376,219Z" fill="#fee390" stroke="#fee390" stroke-width="1.51"/><path d="M366,1071L306,1083L380,1193Z" fill="#d08b49" stroke="#d08b49" stroke-width="1.51"/><path d="M299,348L209,435L389,457Z" fill="#ffcd6e" stroke="#ffcd6e" stroke-width="1.51"/><path d="M209,435L297,574L389,457Z" fill="#ffc667" stroke="#ffc667" stroke-width="1.51"/><path d="M372,309L299,348L389,457Z" fill="#ffd06d" stroke="#ffd06d" stroke-width="1.51"/><path d="M302,202L299,348L372,309Z" fill="#ffd97c" stroke="#ffd97c" stroke-width="1.51"/><path d="M306,1083L247,1215L380,1193Z" fill="#c98a4b" stroke="#c98a4b" stroke-width="1.51"/><path d="M216,966L306,1083L358,950Z" fill="#e1964f" stroke="#e1964f" stroke-width="1.51"/><path d="M137,776L162,883L261,704Z" fill="#f7ab5e" stroke="#f7ab5e" stroke-width="1.51"/><path d="M209,435L132,507L297,574Z" fill="#ffc66c" stroke="#ffc66c" stroke-width="1.51"/><path d="M141,661L261,704L297,574Z" fill="#feb762" stroke="#feb762" stroke-width="1.51"/><path d="M99,371L299,348L302,202Z" fill="#ffda7f" stroke="#ffda7f" stroke-width="1.51"/><path d="M221,43L169,85L302,202Z" fill="#ffe89d" stroke="#ffe89d" stroke-width="1.51"/><path d="M134,1093L247,1215L306,1083Z" fill="#cf8e50" stroke="#cf8e50" stroke-width="1.51"/><path d="M216,966L134,1093L306,1083Z" fill="#db9553" stroke="#db9553" stroke-width="1.51"/><path d="M169,85L99,371L302,202Z" fill="#ffe291" stroke="#ffe291" stroke-width="1.51"/><path d="M99,371L209,435L299,348Z" fill="#ffd477" stroke="#ffd477" stroke-width="1.51"/><path d="M132,507L141,661L297,574Z" fill="#ffbf68" stroke="#ffbf68" stroke-width="1.51"/><path d="M67,1176L-20,1270L247,1215Z" fill="#c28d58" stroke="#c28d58" stroke-width="1.51"/><path d="M141,661L137,776L261,704Z" fill="#fcb162" stroke="#fcb162" stroke-width="1.51"/><path d="M134,1093L67,1176L247,1215Z" fill="#cb8f55" stroke="#cb8f55" stroke-width="1.51"/><path d="M-70,172L99,371L169,85Z" fill="#ffe79b" stroke="#ffe79b" stroke-width="1.51"/><path d="M-41,-214L162,-137L231,-225Z" fill="#fff7c6" stroke="#fff7c6" stroke-width="1.51"/><path d="M155,-47L169,85L221,43Z" fill="#ffeeaa" stroke="#ffeeaa" stroke-width="1.51"/><path d="M162,883L134,1093L216,966Z" fill="#e59b57" stroke="#e59b57" stroke-width="1.51"/><path d="M99,371L132,507L209,435Z" fill="#ffcf77" stroke="#ffcf77" stroke-width="1.51"/><path d="M-48,975L-34,1044L134,1093Z" fill="#de9b61" stroke="#de9b61" stroke-width="1.51"/><path d="M132,507L17,660L141,661Z" fill="#ffbf6d" stroke="#ffbf6d" stroke-width="1.51"/><path d="M-48,975L134,1093L162,883Z" fill="#e59e5e" stroke="#e59e5e" stroke-width="1.51"/><path d="M155,-47L-72,-37L169,85Z" fill="#fff3b4" stroke="#fff3b4" stroke-width="1.51"/><path d="M-72,-37L-70,172L169,85Z" fill="#fff1b1" stroke="#fff1b1" stroke-width="1.51"/><path d="M17,660L137,776L141,661Z" fill="#fdb668" stroke="#fdb668" stroke-width="1.51"/><path d="M-72,-37L155,-47L162,-137Z" fill="#fff6bc" stroke="#fff6bc" stroke-width="1.51"/><path d="M-41,-214L-72,-37L162,-137Z" fill="#fff9c7" stroke="#fff9c7" stroke-width="1.51"/><path d="M137,776L-60,760L162,883Z" fill="#f6ad64" stroke="#f6ad64" stroke-width="1.51"/><path d="M-60,760L-48,975L162,883Z" fill="#f2a866" stroke="#f2a866" stroke-width="1.51"/><path d="M-70,172L-71,374L99,371Z" fill="#ffe191" stroke="#ffe191" stroke-width="1.51"/><path d="M99,371L-12,424L132,507Z" fill="#ffd27c" stroke="#ffd27c" stroke-width="1.51"/><path d="M17,660L-60,760L137,776Z" fill="#fdb56b" stroke="#fdb56b" stroke-width="1.51"/><path d="M-12,424L17,660L132,507Z" fill="#ffc975" stroke="#ffc975" stroke-width="1.51"/><path d="M-34,1044L67,1176L134,1093Z" fill="#d4955c" stroke="#d4955c" stroke-width="1.51"/><path d="M-71,374L-12,424L99,371Z" fill="#ffd984" stroke="#ffd984" stroke-width="1.51"/><path d="M-137,1222L-20,1270L67,1176Z" fill="#c39060" stroke="#c39060" stroke-width="1.51"/><path d="M-34,1044L-137,1222L67,1176Z" fill="#cf9462" stroke="#cf9462" stroke-width="1.51"/><path d="M-72,-37L-150,84L-70,172Z" fill="#fff2b8" stroke="#fff2b8" stroke-width="1.51"/><path d="M-60,760L-196,886L-48,975Z" fill="#f3a96d" stroke="#f3a96d" stroke-width="1.51"/><path d="M-253,673L-213,709L17,660Z" fill="#ffbc7a" stroke="#ffbc7a" stroke-width="1.51"/><path d="M-217,421L-253,673L17,660Z" fill="#ffc67f" stroke="#ffc67f" stroke-width="1.51"/><path d="M-12,424L-217,421L17,660Z" fill="#ffce7f" stroke="#ffce7f" stroke-width="1.51"/><path d="M-213,709L-60,760L17,660Z" fill="#feb874" stroke="#feb874" stroke-width="1.51"/><path d="M-202,-172L-72,-37L-41,-214Z" fill="#fffacf" stroke="#fffacf" stroke-width="1.51"/><path d="M-205,1094L-137,1222L-34,1044Z" fill="#d39768" stroke="#d39768" stroke-width="1.51"/><path d="M-71,374L-217,421L-12,424Z" fill="#ffd88a" stroke="#ffd88a" stroke-width="1.51"/><path d="M-170,19L-150,84L-72,-37Z" fill="#fff5c0" stroke="#fff5c0" stroke-width="1.51"/><path d="M-266,340L-71,374L-70,172Z" fill="#ffe39a" stroke="#ffe39a" stroke-width="1.51"/><path d="M-48,975L-205,1094L-34,1044Z" fill="#df9c68" stroke="#df9c68" stroke-width="1.51"/><path d="M-196,886L-205,1094L-48,975Z" fill="#e7a16d" stroke="#e7a16d" stroke-width="1.51"/><path d="M-213,709L-196,886L-60,760Z" fill="#fbb275" stroke="#fbb275" stroke-width="1.51"/><path d="M-202,-172L-170,19L-72,-37Z" fill="#fffacb" stroke="#fffacb" stroke-width="1.51"/><path d="M-266,340L-217,421L-71,374Z" fill="#ffdd92" stroke="#ffdd92" stroke-width="1.51"/><path d="M-150,84L-266,340L-70,172Z" fill="#ffecac" stroke="#ffecac" stroke-width="1.51"/><path d="M-170,19L-266,340L-150,84Z" fill="#fff0b6" stroke="#fff0b6" stroke-width="1.51"/><path d="M-202,-172L-266,340L-170,19Z" fill="#fff4c1" stroke="#fff4c1" stroke-width="1.51"/><path d="M-253,673L-205,1094L-196,886Z" fill="#f3a974" stroke="#f3a974" stroke-width="1.51"/><path d="M-213,709L-253,673L-196,886Z" fill="#fdb57a" stroke="#fdb57a" stroke-width="1.51"/><path d="M-266,340L-253,673L-217,421Z" fill="#ffd28d" stroke="#ffd28d" stroke-width="1.51"/></svg>