<svg xmlns="http://www.w3.org/2000/svg" width="1920" height="1080"><path d="M944,1374L7,1393L1177,1409Z" fill="#568f59" stroke="#568f59" stroke-width="1.51"/><path d="M751,-300L1069,-280L1431,-317Z" fill="#b3dda2" stroke="#b3dda2" stroke-width="1.51"/><path d="M1177,1409L7,1393L1575,1431Z" fill="#438652" stroke="#438652" stroke-width="1.51"/><path d="M288,-358L552,-326L1616,-355Z" fill="#c8e8b1" stroke="#c8e8b1" stroke-width="1.51"/><path d="M751,-300L1431,-317L1616,-355Z" fill="#a6d69c" stroke="#a6d69c" stroke-width="1.51"/><path d="M552,-326L751,-300L1616,-355Z" fill="#bbe2ab" stroke="#bbe2ab" stroke-width="1.51"/><path d="M1771,1386L1575,1431L2073,1369Z" fill="#055e33" stroke="#055e33" stroke-width="1.51"/><path d="M2087,1027L2026,1074L2128,1203Z" fill="#096536" stroke="#096536" stroke-width="1.51"/><path d="M2111,844L2087,1027L2128,1203Z" fill="#106837" stroke="#106837" stroke-width="1.51"/><path d="M2063,201L1931,344L2139,521Z" fill="#59965c" stroke="#59965c" stroke-width="1.51"/><path d="M2084,588L2111,844L2139,521Z" fill="#33834b" stroke="#33834b" stroke-width="1.51"/><path d="M2111,844L2128,1203L2139,521Z" fill="#1c743f" stroke="#1c743f" stroke-width="1.51"/><path d="M1616,-355L1923,-294L2146,-277Z" fill="#8ab285" stroke="#8ab285" stroke-width="1.51"/><path d="M2010,86L2048,179L2176,-118Z" fill="#75a068" stroke="#75a068" stroke-width="1.51"/><path d="M2033,-76L2010,86L2176,-118Z" fill="#7ca36c" stroke="#7ca36c" stroke-width="1.51"/><path d="M2048,179L2063,201L2176,-118Z" fill="#739f66" stroke="#739f66" stroke-width="1.51"/><path d="M2139,521L2128,1203L2176,-118Z" fill="#418751" stroke="#418751" stroke-width="1.51"/><path d="M2063,201L2139,521L2176,-118Z" fill="#679860" stroke="#679860" stroke-width="1.51"/><path d="M2146,-277L2033,-76L2176,-118Z" fill="#81a371" stroke="#81a371" stroke-width="1.51"/><path d="M1865,1326L1771,1386L2073,1369Z" fill="#005c32" stroke="#005c32" stroke-width="1.51"/><path d="M1854,677L1913,845L2084,588Z" fill="#2f8a4c" stroke="#2f8a4c" stroke-width="1.51"/><path d="M2084,588L1913,845L2111,844Z" fill="#258147" stroke="#258147" stroke-width="1.51"/><path d="M1896,441L1946,570L2139,521Z" fill="#479256" stroke="#479256" stroke-width="1.51"/><path d="M1931,344L1896,441L2139,521Z" fill="#509659" stroke="#509659" stroke-width="1.51"/><path d="M1923,-294L2033,-76L2146,-277Z" fill="#84a879" stroke="#84a879" stroke-width="1.51"/><path d="M1946,570L1854,677L2084,588Z" fill="#3b8e51" stroke="#3b8e51" stroke-width="1.51"/><path d="M1913,845L2087,1027L2111,844Z" fill="#1a753f" stroke="#1a753f" stroke-width="1.51"/><path d="M1946,570L2084,588L2139,521Z" fill="#408c52" stroke="#408c52" stroke-width="1.51"/><path d="M1865,1326L2073,1369L2128,1203Z" fill="#005b32" stroke="#005b32" stroke-width="1.51"/><path d="M2026,1074L1865,1326L2128,1203Z" fill="#016335" stroke="#016335" stroke-width="1.51"/><path d="M1813,1203L1865,1326L2026,1074Z" fill="#016937" stroke="#016937" stroke-width="1.51"/><path d="M1871,1081L1813,1203L2026,1074Z" fill="#096e39" stroke="#096e39" stroke-width="1.51"/><path d="M1913,845L2026,1074L2087,1027Z" fill="#14703b" stroke="#14703b" stroke-width="1.51"/><path d="M1913,845L1871,1081L2026,1074Z" fill="#13733c" stroke="#13733c" stroke-width="1.51"/><path d="M2048,179L1931,344L2063,201Z" fill="#669d61" stroke="#669d61" stroke-width="1.51"/><path d="M1848,-14L2010,86L2033,-76Z" fill="#7ca96d" stroke="#7ca96d" stroke-width="1.51"/><path d="M1923,-294L1848,-14L2033,-76Z" fill="#85af74" stroke="#85af74" stroke-width="1.51"/><path d="M2010,86L1931,344L2048,179Z" fill="#6aa063" stroke="#6aa063" stroke-width="1.51"/><path d="M1684,80L1931,344L2010,86Z" fill="#71a867" stroke="#71a867" stroke-width="1.51"/><path d="M1848,-14L1684,80L2010,86Z" fill="#7cae6e" stroke="#7cae6e" stroke-width="1.51"/><path d="M1684,80L1753,351L1931,344Z" fill="#6ba965" stroke="#6ba965" stroke-width="1.51"/><path d="M310,1321L7,1393L944,1374Z" fill="#6c9b63" stroke="#6c9b63" stroke-width="1.51"/><path d="M1708,928L1871,1081L1913,845Z" fill="#1b7d40" stroke="#1b7d40" stroke-width="1.51"/><path d="M1681,-224L1848,-14L1923,-294Z" fill="#8bb57a" stroke="#8bb57a" stroke-width="1.51"/><path d="M1896,441L1770,432L1946,570Z" fill="#4d9a5a" stroke="#4d9a5a" stroke-width="1.51"/><path d="M1770,432L1854,677L1946,570Z" fill="#449757" stroke="#449757" stroke-width="1.51"/><path d="M1854,677L1750,726L1913,845Z" fill="#2a8d4c" stroke="#2a8d4c" stroke-width="1.51"/><path d="M1616,-355L1681,-224L1923,-294Z" fill="#90b987" stroke="#90b987" stroke-width="1.51"/><path d="M1753,351L1896,441L1931,344Z" fill="#5ba05f" stroke="#5ba05f" stroke-width="1.51"/><path d="M1753,351L1770,432L1896,441Z" fill="#5aa15f" stroke="#5aa15f" stroke-width="1.51"/><path d="M1750,726L1708,928L1913,845Z" fill="#258848" stroke="#258848" stroke-width="1.51"/><path d="M1684,80L1607,187L1753,351Z" fill="#74b06a" stroke="#74b06a" stroke-width="1.51"/><path d="M1770,432L1614,634L1854,677Z" fill="#459b58" stroke="#459b58" stroke-width="1.51"/><path d="M1614,634L1750,726L1854,677Z" fill="#399552" stroke="#399552" stroke-width="1.51"/><path d="M1813,1203L1771,1386L1865,1326Z" fill="#056535" stroke="#056535" stroke-width="1.51"/><path d="M1708,928L1813,1203L1871,1081Z" fill="#14753d" stroke="#14753d" stroke-width="1.51"/><path d="M1681,-224L1684,80L1848,-14Z" fill="#87b675" stroke="#87b675" stroke-width="1.51"/><path d="M1613,940L1546,1199L1708,928Z" fill="#208041" stroke="#208041" stroke-width="1.51"/><path d="M1708,928L1546,1199L1813,1203Z" fill="#17783e" stroke="#17783e" stroke-width="1.51"/><path d="M1681,-224L1558,-165L1684,80Z" fill="#8fbc79" stroke="#8fbc79" stroke-width="1.51"/><path d="M1546,1199L1771,1386L1813,1203Z" fill="#0d6c39" stroke="#0d6c39" stroke-width="1.51"/><path d="M1613,940L1708,928L1750,726Z" fill="#278a48" stroke="#278a48" stroke-width="1.51"/><path d="M1540,723L1613,940L1750,726Z" fill="#2e924d" stroke="#2e924d" stroke-width="1.51"/><path d="M1506,411L1614,634L1770,432Z" fill="#55a55e" stroke="#55a55e" stroke-width="1.51"/><path d="M1546,1199L1575,1431L1771,1386Z" fill="#106a38" stroke="#106a38" stroke-width="1.51"/><path d="M1753,351L1506,411L1770,432Z" fill="#5fa862" stroke="#5fa862" stroke-width="1.51"/><path d="M1607,187L1506,411L1753,351Z" fill="#6bae67" stroke="#6bae67" stroke-width="1.51"/><path d="M1614,634L1540,723L1750,726Z" fill="#3b9953" stroke="#3b9953" stroke-width="1.51"/><path d="M1453,1021L1546,1199L1613,940Z" fill="#228343" stroke="#228343" stroke-width="1.51"/><path d="M1558,-165L1480,95L1684,80Z" fill="#8abd76" stroke="#8abd76" stroke-width="1.51"/><path d="M1616,-355L1558,-165L1681,-224Z" fill="#93bf86" stroke="#93bf86" stroke-width="1.51"/><path d="M1480,95L1607,187L1684,80Z" fill="#80b870" stroke="#80b870" stroke-width="1.51"/><path d="M1404,-94L1480,95L1558,-165Z" fill="#92c47d" stroke="#92c47d" stroke-width="1.51"/><path d="M1546,1199L1373,1284L1575,1431Z" fill="#18743d" stroke="#18743d" stroke-width="1.51"/><path d="M1480,95L1502,178L1607,187Z" fill="#80ba71" stroke="#80ba71" stroke-width="1.51"/><path d="M1502,178L1506,411L1607,187Z" fill="#74b56c" stroke="#74b56c" stroke-width="1.51"/><path d="M1540,723L1350,837L1613,940Z" fill="#32974f" stroke="#32974f" stroke-width="1.51"/><path d="M1350,837L1453,1021L1613,940Z" fill="#2d904b" stroke="#2d904b" stroke-width="1.51"/><path d="M1506,411L1426,620L1614,634Z" fill="#52a860" stroke="#52a860" stroke-width="1.51"/><path d="M1431,-317L1558,-165L1616,-355Z" fill="#97c48b" stroke="#97c48b" stroke-width="1.51"/><path d="M1426,620L1540,723L1614,634Z" fill="#44a259" stroke="#44a259" stroke-width="1.51"/><path d="M1502,178L1375,305L1506,411Z" fill="#74b96e" stroke="#74b96e" stroke-width="1.51"/><path d="M1390,467L1426,620L1506,411Z" fill="#5cb066" stroke="#5cb066" stroke-width="1.51"/><path d="M1373,1284L1177,1409L1575,1431Z" fill="#1e7541" stroke="#1e7541" stroke-width="1.51"/><path d="M1453,1021L1358,1211L1546,1199Z" fill="#218344" stroke="#218344" stroke-width="1.51"/><path d="M1431,-317L1404,-94L1558,-165Z" fill="#99c886" stroke="#99c886" stroke-width="1.51"/><path d="M1358,1211L1373,1284L1546,1199Z" fill="#1d7e43" stroke="#1d7e43" stroke-width="1.51"/><path d="M1426,620L1350,837L1540,723Z" fill="#3fa358" stroke="#3fa358" stroke-width="1.51"/><path d="M1278,-225L1404,-94L1431,-317Z" fill="#9ece8d" stroke="#9ece8d" stroke-width="1.51"/><path d="M1375,305L1390,467L1506,411Z" fill="#6ab66b" stroke="#6ab66b" stroke-width="1.51"/><path d="M1480,95L1375,305L1502,178Z" fill="#7fbe73" stroke="#7fbe73" stroke-width="1.51"/><path d="M1069,-280L1278,-225L1431,-317Z" fill="#a5d598" stroke="#a5d598" stroke-width="1.51"/><path d="M1287,1055L1358,1211L1453,1021Z" fill="#288b49" stroke="#288b49" stroke-width="1.51"/><path d="M1220,127L1375,305L1480,95Z" fill="#85c578" stroke="#85c578" stroke-width="1.51"/><path d="M1404,-94L1274,-91L1480,95Z" fill="#95c980" stroke="#95c980" stroke-width="1.51"/><path d="M1274,-91L1220,127L1480,95Z" fill="#93cc80" stroke="#93cc80" stroke-width="1.51"/><path d="M460,1292L310,1321L944,1374Z" fill="#62995f" stroke="#62995f" stroke-width="1.51"/><path d="M1220,127L1208,184L1375,305Z" fill="#87c97a" stroke="#87c97a" stroke-width="1.51"/><path d="M1231,719L1350,837L1426,620Z" fill="#44a95d" stroke="#44a95d" stroke-width="1.51"/><path d="M1350,837L1287,1055L1453,1021Z" fill="#30934d" stroke="#30934d" stroke-width="1.51"/><path d="M1390,467L1231,719L1426,620Z" fill="#53b064" stroke="#53b064" stroke-width="1.51"/><path d="M1278,-225L1274,-91L1404,-94Z" fill="#9fd188" stroke="#9fd188" stroke-width="1.51"/><path d="M1105,559L1231,719L1390,467Z" fill="#5cb76a" stroke="#5cb76a" stroke-width="1.51"/><path d="M1375,305L1159,371L1390,467Z" fill="#71be71" stroke="#71be71" stroke-width="1.51"/><path d="M1139,925L1287,1055L1350,837Z" fill="#379c53" stroke="#379c53" stroke-width="1.51"/><path d="M1159,371L1105,559L1390,467Z" fill="#6cbf71" stroke="#6cbf71" stroke-width="1.51"/><path d="M1208,184L1159,371L1375,305Z" fill="#80c678" stroke="#80c678" stroke-width="1.51"/><path d="M1358,1211L1177,1409L1373,1284Z" fill="#228046" stroke="#228046" stroke-width="1.51"/><path d="M1287,1055L1163,1084L1358,1211Z" fill="#2c8f4c" stroke="#2c8f4c" stroke-width="1.51"/><path d="M1163,1084L1177,1409L1358,1211Z" fill="#2a894b" stroke="#2a894b" stroke-width="1.51"/><path d="M1231,719L1140,773L1350,837Z" fill="#44ab5e" stroke="#44ab5e" stroke-width="1.51"/><path d="M1140,773L1139,925L1350,837Z" fill="#43a75b" stroke="#43a75b" stroke-width="1.51"/><path d="M751,-300L904,-254L1069,-280Z" fill="#c0e4a8" stroke="#c0e4a8" stroke-width="1.51"/><path d="M1081,506L1105,559L1159,371Z" fill="#73c375" stroke="#73c375" stroke-width="1.51"/><path d="M1163,1084L974,1265L1177,1409Z" fill="#368d50" stroke="#368d50" stroke-width="1.51"/><path d="M1118,306L1159,371L1208,184Z" fill="#87ca7c" stroke="#87ca7c" stroke-width="1.51"/><path d="M1124,107L1220,127L1274,-91Z" fill="#9ad284" stroke="#9ad284" stroke-width="1.51"/><path d="M1026,-93L1124,107L1274,-91Z" fill="#a4d68b" stroke="#a4d68b" stroke-width="1.51"/><path d="M1026,-93L1274,-91L1278,-225Z" fill="#a8d78e" stroke="#a8d78e" stroke-width="1.51"/><path d="M1069,-280L1026,-93L1278,-225Z" fill="#aedb97" stroke="#aedb97" stroke-width="1.51"/><path d="M1139,925L1163,1084L1287,1055Z" fill="#399952" stroke="#399952" stroke-width="1.51"/><path d="M981,1156L974,1265L1163,1084Z" fill="#409655" stroke="#409655" stroke-width="1.51"/><path d="M1105,559L1140,773L1231,719Z" fill="#57b567" stroke="#57b567" stroke-width="1.51"/><path d="M1124,107L1208,184L1220,127Z" fill="#93d081" stroke="#93d081" stroke-width="1.51"/><path d="M1105,559L1061,771L1140,773Z" fill="#5ab668" stroke="#5ab668" stroke-width="1.51"/><path d="M1124,107L1118,306L1208,184Z" fill="#90cf80" stroke="#90cf80" stroke-width="1.51"/><path d="M1061,771L1139,925L1140,773Z" fill="#4dad60" stroke="#4dad60" stroke-width="1.51"/><path d="M974,1265L944,1374L1177,1409Z" fill="#3b8850" stroke="#3b8850" stroke-width="1.51"/><path d="M1139,925L981,1156L1163,1084Z" fill="#419a56" stroke="#419a56" stroke-width="1.51"/><path d="M1118,306L1081,506L1159,371Z" fill="#7dc779" stroke="#7dc779" stroke-width="1.51"/><path d="M956,550L1061,771L1105,559Z" fill="#68be70" stroke="#68be70" stroke-width="1.51"/><path d="M824,236L1118,306L1124,107Z" fill="#98d385" stroke="#98d385" stroke-width="1.51"/><path d="M1061,771L831,942L1139,925Z" fill="#53ac62" stroke="#53ac62" stroke-width="1.51"/><path d="M831,942L981,1156L1139,925Z" fill="#4da25c" stroke="#4da25c" stroke-width="1.51"/><path d="M876,780L831,942L1061,771Z" fill="#5eb468" stroke="#5eb468" stroke-width="1.51"/><path d="M903,521L1081,506L1118,306Z" fill="#7ec87a" stroke="#7ec87a" stroke-width="1.51"/><path d="M824,236L903,521L1118,306Z" fill="#8fd082" stroke="#8fd082" stroke-width="1.51"/><path d="M1026,-93L816,27L1124,107Z" fill="#acdc90" stroke="#acdc90" stroke-width="1.51"/><path d="M816,27L824,236L1124,107Z" fill="#aadb8e" stroke="#aadb8e" stroke-width="1.51"/><path d="M904,-254L1026,-93L1069,-280Z" fill="#b8e09e" stroke="#b8e09e" stroke-width="1.51"/><path d="M903,521L956,550L1081,506Z" fill="#79c678" stroke="#79c678" stroke-width="1.51"/><path d="M1081,506L956,550L1105,559Z" fill="#71c375" stroke="#71c375" stroke-width="1.51"/><path d="M904,-254L889,-173L1026,-93Z" fill="#bce29d" stroke="#bce29d" stroke-width="1.51"/><path d="M956,550L876,780L1061,771Z" fill="#65bc6f" stroke="#65bc6f" stroke-width="1.51"/><path d="M746,1261L460,1292L944,1374Z" fill="#58965b" stroke="#58965b" stroke-width="1.51"/><path d="M889,-173L816,27L1026,-93Z" fill="#bae298" stroke="#bae298" stroke-width="1.51"/><path d="M816,27L766,129L824,236Z" fill="#b2e091" stroke="#b2e091" stroke-width="1.51"/><path d="M824,236L761,518L903,521Z" fill="#92d183" stroke="#92d183" stroke-width="1.51"/><path d="M903,521L876,780L956,550Z" fill="#73c375" stroke="#73c375" stroke-width="1.51"/><path d="M825,1243L944,1374L974,1265Z" fill="#479056" stroke="#479056" stroke-width="1.51"/><path d="M831,942L774,971L981,1156Z" fill="#58a65f" stroke="#58a65f" stroke-width="1.51"/><path d="M774,971L825,1243L981,1156Z" fill="#539f5d" stroke="#539f5d" stroke-width="1.51"/><path d="M825,1243L974,1265L981,1156Z" fill="#489658" stroke="#489658" stroke-width="1.51"/><path d="M765,-20L816,27L889,-173Z" fill="#bfe499" stroke="#bfe499" stroke-width="1.51"/><path d="M761,518L876,780L903,521Z" fill="#7bc678" stroke="#7bc678" stroke-width="1.51"/><path d="M825,1243L746,1261L944,1374Z" fill="#4e9458" stroke="#4e9458" stroke-width="1.51"/><path d="M774,971L693,1204L825,1243Z" fill="#5aa15f" stroke="#5aa15f" stroke-width="1.51"/><path d="M761,518L611,663L876,780Z" fill="#7ec779" stroke="#7ec779" stroke-width="1.51"/><path d="M611,663L624,748L876,780Z" fill="#79c475" stroke="#79c475" stroke-width="1.51"/><path d="M751,-300L889,-173L904,-254Z" fill="#c4e6a6" stroke="#c4e6a6" stroke-width="1.51"/><path d="M697,221L761,518L824,236Z" fill="#a3d989" stroke="#a3d989" stroke-width="1.51"/><path d="M751,-300L765,-20L889,-173Z" fill="#c6e7a1" stroke="#c6e7a1" stroke-width="1.51"/><path d="M624,748L774,971L831,942Z" fill="#6ab66a" stroke="#6ab66a" stroke-width="1.51"/><path d="M624,748L831,942L876,780Z" fill="#6bba6d" stroke="#6bba6d" stroke-width="1.51"/><path d="M624,748L583,830L774,971Z" fill="#74bc6f" stroke="#74bc6f" stroke-width="1.51"/><path d="M766,129L697,221L824,236Z" fill="#b0de8f" stroke="#b0de8f" stroke-width="1.51"/><path d="M693,1204L746,1261L825,1243Z" fill="#579b5d" stroke="#579b5d" stroke-width="1.51"/><path d="M697,221L472,444L761,518Z" fill="#a4d98a" stroke="#a4d98a" stroke-width="1.51"/><path d="M751,-300L552,-326L765,-20Z" fill="#d0ecaa" stroke="#d0ecaa" stroke-width="1.51"/><path d="M765,-20L766,129L816,27Z" fill="#bbe396" stroke="#bbe396" stroke-width="1.51"/><path d="M472,444L560,565L761,518Z" fill="#9ad586" stroke="#9ad586" stroke-width="1.51"/><path d="M560,565L611,663L761,518Z" fill="#8fcf81" stroke="#8fcf81" stroke-width="1.51"/><path d="M552,-326L438,-38L765,-20Z" fill="#d6efa5" stroke="#d6efa5" stroke-width="1.51"/><path d="M456,178L697,221L766,129Z" fill="#bbe394" stroke="#bbe394" stroke-width="1.51"/><path d="M765,-20L438,-38L766,129Z" fill="#c7e89b" stroke="#c7e89b" stroke-width="1.51"/><path d="M438,-38L456,178L766,129Z" fill="#caea9b" stroke="#caea9b" stroke-width="1.51"/><path d="M432,1020L693,1204L774,971Z" fill="#6aac66" stroke="#6aac66" stroke-width="1.51"/><path d="M583,830L432,1020L774,971Z" fill="#73b66c" stroke="#73b66c" stroke-width="1.51"/><path d="M693,1204L460,1292L746,1261Z" fill="#619e60" stroke="#619e60" stroke-width="1.51"/><path d="M432,1020L443,1155L693,1204Z" fill="#6eaa67" stroke="#6eaa67" stroke-width="1.51"/><path d="M450,273L472,444L697,221Z" fill="#b5e091" stroke="#b5e091" stroke-width="1.51"/><path d="M456,178L450,273L697,221Z" fill="#bee595" stroke="#bee595" stroke-width="1.51"/><path d="M443,1155L460,1292L693,1204Z" fill="#69a464" stroke="#69a464" stroke-width="1.51"/><path d="M328,720L583,830L611,663Z" fill="#88ca7b" stroke="#88ca7b" stroke-width="1.51"/><path d="M611,663L583,830L624,748Z" fill="#80c678" stroke="#80c678" stroke-width="1.51"/><path d="M560,565L376,573L611,663Z" fill="#96d284" stroke="#96d284" stroke-width="1.51"/><path d="M376,573L328,720L611,663Z" fill="#96d183" stroke="#96d183" stroke-width="1.51"/><path d="M288,-358L223,-243L438,-38Z" fill="#eaf7b6" stroke="#eaf7b6" stroke-width="1.51"/><path d="M288,-358L438,-38L552,-326Z" fill="#e4f4b5" stroke="#e4f4b5" stroke-width="1.51"/><path d="M328,720L432,1020L583,830Z" fill="#84c276" stroke="#84c276" stroke-width="1.51"/><path d="M472,444L376,573L560,565Z" fill="#a1d88a" stroke="#a1d88a" stroke-width="1.51"/><path d="M438,-38L383,155L456,178Z" fill="#d2ed9f" stroke="#d2ed9f" stroke-width="1.51"/><path d="M328,720L222,932L432,1020Z" fill="#8ac277" stroke="#8ac277" stroke-width="1.51"/><path d="M213,-149L276,-30L438,-38Z" fill="#e5f5ab" stroke="#e5f5ab" stroke-width="1.51"/><path d="M223,-243L213,-149L438,-38Z" fill="#eaf7b0" stroke="#eaf7b0" stroke-width="1.51"/><path d="M276,-30L383,155L438,-38Z" fill="#dbf1a5" stroke="#dbf1a5" stroke-width="1.51"/><path d="M432,1020L387,1171L443,1155Z" fill="#76ae6b" stroke="#76ae6b" stroke-width="1.51"/><path d="M443,1155L387,1171L460,1292Z" fill="#71a867" stroke="#71a867" stroke-width="1.51"/><path d="M378,323L259,414L472,444Z" fill="#b7e293" stroke="#b7e293" stroke-width="1.51"/><path d="M259,414L376,573L472,444Z" fill="#aedd8f" stroke="#aedd8f" stroke-width="1.51"/><path d="M450,273L378,323L472,444Z" fill="#b9e293" stroke="#b9e293" stroke-width="1.51"/><path d="M383,155L450,273L456,178Z" fill="#c7e99a" stroke="#c7e99a" stroke-width="1.51"/><path d="M387,1171L310,1321L460,1292Z" fill="#72a567" stroke="#72a567" stroke-width="1.51"/><path d="M222,932L269,1041L432,1020Z" fill="#84b972" stroke="#84b972" stroke-width="1.51"/><path d="M383,155L378,323L450,273Z" fill="#c5e799" stroke="#c5e799" stroke-width="1.51"/><path d="M269,1041L387,1171L432,1020Z" fill="#7cb26e" stroke="#7cb26e" stroke-width="1.51"/><path d="M189,814L222,932L328,720Z" fill="#92ca7e" stroke="#92ca7e" stroke-width="1.51"/><path d="M259,414L182,509L376,573Z" fill="#b1de92" stroke="#b1de92" stroke-width="1.51"/><path d="M194,688L328,720L376,573Z" fill="#9fd587" stroke="#9fd587" stroke-width="1.51"/><path d="M140,354L378,323L383,155Z" fill="#c8e99b" stroke="#c8e99b" stroke-width="1.51"/><path d="M276,-30L231,1L383,155Z" fill="#ddf2a6" stroke="#ddf2a6" stroke-width="1.51"/><path d="M185,1185L310,1321L387,1171Z" fill="#79aa6b" stroke="#79aa6b" stroke-width="1.51"/><path d="M269,1041L185,1185L387,1171Z" fill="#7eb16e" stroke="#7eb16e" stroke-width="1.51"/><path d="M140,354L259,414L378,323Z" fill="#c1e698" stroke="#c1e698" stroke-width="1.51"/><path d="M231,1L140,354L383,155Z" fill="#d5eea1" stroke="#d5eea1" stroke-width="1.51"/><path d="M182,509L194,688L376,573Z" fill="#a9da8e" stroke="#a9da8e" stroke-width="1.51"/><path d="M97,1270L7,1393L310,1321Z" fill="#7ca46d" stroke="#7ca46d" stroke-width="1.51"/><path d="M194,688L189,814L328,720Z" fill="#99d184" stroke="#99d184" stroke-width="1.51"/><path d="M-59,116L140,354L231,1Z" fill="#def2a8" stroke="#def2a8" stroke-width="1.51"/><path d="M185,1185L97,1270L310,1321Z" fill="#7da96d" stroke="#7da96d" stroke-width="1.51"/><path d="M213,-149L231,1L276,-30Z" fill="#e8f6ad" stroke="#e8f6ad" stroke-width="1.51"/><path d="M-21,-345L223,-243L288,-358Z" fill="#f4fac6" stroke="#f4fac6" stroke-width="1.51"/><path d="M-12,1120L185,1185L269,1041Z" fill="#85b473" stroke="#85b473" stroke-width="1.51"/><path d="M-30,1053L-12,1120L269,1041Z" fill="#8bb978" stroke="#8bb978" stroke-width="1.51"/><path d="M222,932L-30,1053L269,1041Z" fill="#8bbc76" stroke="#8bbc76" stroke-width="1.51"/><path d="M140,354L182,509L259,414Z" fill="#bde498" stroke="#bde498" stroke-width="1.51"/><path d="M182,509L55,686L194,688Z" fill="#aad98e" stroke="#aad98e" stroke-width="1.51"/><path d="M213,-149L-62,-136L231,1Z" fill="#eff9b3" stroke="#eff9b3" stroke-width="1.51"/><path d="M-62,-136L-59,116L231,1Z" fill="#eef8b1" stroke="#eef8b1" stroke-width="1.51"/><path d="M189,814L-46,794L222,932Z" fill="#97ca81" stroke="#97ca81" stroke-width="1.51"/><path d="M-62,-136L213,-149L223,-243Z" fill="#f3fbb9" stroke="#f3fbb9" stroke-width="1.51"/><path d="M-21,-345L-62,-136L223,-243Z" fill="#f8fcc3" stroke="#f8fcc3" stroke-width="1.51"/><path d="M-46,794L-30,1053L222,932Z" fill="#95c57f" stroke="#95c57f" stroke-width="1.51"/><path d="M55,686L189,814L194,688Z" fill="#9fd388" stroke="#9fd388" stroke-width="1.51"/><path d="M140,354L16,399L182,509Z" fill="#c2e59b" stroke="#c2e59b" stroke-width="1.51"/><path d="M-59,116L-61,357L140,354Z" fill="#d6eea6" stroke="#d6eea6" stroke-width="1.51"/><path d="M55,686L-46,794L189,814Z" fill="#9fd388" stroke="#9fd388" stroke-width="1.51"/><path d="M16,399L55,686L182,509Z" fill="#b6e097" stroke="#b6e097" stroke-width="1.51"/><path d="M-12,1120L97,1270L185,1185Z" fill="#84b073" stroke="#84b073" stroke-width="1.51"/><path d="M-61,357L16,399L140,354Z" fill="#cbe9a0" stroke="#cbe9a0" stroke-width="1.51"/><path d="M-62,-136L-141,0L-59,116Z" fill="#f0f9b9" stroke="#f0f9b9" stroke-width="1.51"/><path d="M16,399L-224,726L55,686Z" fill="#b3de99" stroke="#b3de99" stroke-width="1.51"/><path d="M-123,1329L7,1393L97,1270Z" fill="#83a672" stroke="#83a672" stroke-width="1.51"/><path d="M-12,1120L-123,1329L97,1270Z" fill="#86ae76" stroke="#86ae76" stroke-width="1.51"/><path d="M-46,794L-201,936L-30,1053Z" fill="#98c687" stroke="#98c687" stroke-width="1.51"/><path d="M-61,357L-229,395L16,399Z" fill="#cceaa8" stroke="#cceaa8" stroke-width="1.51"/><path d="M-229,395L-224,726L16,399Z" fill="#bee4a5" stroke="#bee4a5" stroke-width="1.51"/><path d="M-224,726L-46,794L55,686Z" fill="#a5d692" stroke="#a5d692" stroke-width="1.51"/><path d="M-209,-290L-62,-136L-21,-345Z" fill="#fbfdcd" stroke="#fbfdcd" stroke-width="1.51"/><path d="M-214,1185L-123,1329L-12,1120Z" fill="#89b17d" stroke="#89b17d" stroke-width="1.51"/><path d="M-167,-61L-141,0L-62,-136Z" fill="#f5fbbf" stroke="#f5fbbf" stroke-width="1.51"/><path d="M-294,312L-61,357L-59,116Z" fill="#daf0b0" stroke="#daf0b0" stroke-width="1.51"/><path d="M-30,1053L-214,1185L-12,1120Z" fill="#8db77e" stroke="#8db77e" stroke-width="1.51"/><path d="M-229,395L-277,704L-224,726Z" fill="#b5dea5" stroke="#b5dea5" stroke-width="1.51"/><path d="M-201,936L-214,1185L-30,1053Z" fill="#90bc84" stroke="#90bc84" stroke-width="1.51"/><path d="M-294,312L-229,395L-61,357Z" fill="#d1ecb0" stroke="#d1ecb0" stroke-width="1.51"/><path d="M-224,726L-201,936L-46,794Z" fill="#a0d092" stroke="#a0d092" stroke-width="1.51"/><path d="M-209,-290L-167,-61L-62,-136Z" fill="#fafdc7" stroke="#fafdc7" stroke-width="1.51"/><path d="M-141,0L-294,312L-59,116Z" fill="#e6f5b8" stroke="#e6f5b8" stroke-width="1.51"/><path d="M-167,-61L-294,312L-141,0Z" fill="#ecf7bd" stroke="#ecf7bd" stroke-width="1.51"/><path d="M-224,726L-277,704L-201,936Z" fill="#a3d399" stroke="#a3d399" stroke-width="1.51"/><path d="M-209,-290L-294,312L-167,-61Z" fill="#f2fac4" stroke="#f2fac4" stroke-width="1.51"/><path d="M-294,312L-277,704L-229,395Z" fill="#c4e6af" stroke="#c4e6af" stroke-width="1.51"/><path d="M-277,704L-214,1185L-201,936Z" fill="#99c58f" stroke="#99c58f" stroke-width="1.51"/></svg>