<svg xmlns="http://www.w3.org/2000/svg" width="1920" height="1080"><path d="M-193,-217L18,-208L308,-220Z" fill="#cb2d2a" stroke="#cb2d2a" stroke-width="1.51"/><path d="M562,1316L184,1343L784,1335Z" fill="#949550" stroke="#949550" stroke-width="1.51"/><path d="M784,1335L184,1343L844,1344Z" fill="#919d57" stroke="#919d57" stroke-width="1.51"/><path d="M-193,-217L308,-220L983,-266Z" fill="#d85a3c" stroke="#d85a3c" stroke-width="1.51"/><path d="M1201,1302L844,1344L1589,1296Z" fill="#7bb163" stroke="#7bb163" stroke-width="1.51"/><path d="M1506,1282L1349,1281L1589,1296Z" fill="#5fa856" stroke="#5fa856" stroke-width="1.51"/><path d="M1349,1281L1201,1302L1589,1296Z" fill="#6bad59" stroke="#6bad59" stroke-width="1.51"/><path d="M983,-266L1531,-253L1974,-265Z" fill="#af8145" stroke="#af8145" stroke-width="1.51"/><path d="M1531,-253L1804,-229L1974,-265Z" fill="#95733f" stroke="#95733f" stroke-width="1.51"/><path d="M1589,1296L844,1344L2072,1316Z" fill="#59a353" stroke="#59a353" stroke-width="1.51"/><path d="M1974,1273L1767,1267L2072,1316Z" fill="#128948" stroke="#128948" stroke-width="1.51"/><path d="M1767,1267L1589,1296L2072,1316Z" fill="#2b934d" stroke="#2b934d" stroke-width="1.51"/><path d="M2043,1090L1974,1273L2072,1316Z" fill="#128948" stroke="#128948" stroke-width="1.51"/><path d="M1955,558L2065,594L2081,395Z" fill="#93bd7b" stroke="#93bd7b" stroke-width="1.51"/><path d="M2081,395L2065,594L2084,635Z" fill="#8fba7d" stroke="#8fba7d" stroke-width="1.51"/><path d="M2043,1090L2072,1316L2094,971Z" fill="#2a914c" stroke="#2a914c" stroke-width="1.51"/><path d="M2064,-25L2073,58L2102,-192Z" fill="#916e38" stroke="#916e38" stroke-width="1.51"/><path d="M2084,635L1990,651L2111,795Z" fill="#7fb567" stroke="#7fb567" stroke-width="1.51"/><path d="M1977,829L2094,971L2111,795Z" fill="#64aa56" stroke="#64aa56" stroke-width="1.51"/><path d="M2094,971L2072,1316L2111,795Z" fill="#409950" stroke="#409950" stroke-width="1.51"/><path d="M1951,242L2081,395L2136,224Z" fill="#96a25a" stroke="#96a25a" stroke-width="1.51"/><path d="M2073,58L1951,242L2136,224Z" fill="#99934e" stroke="#99934e" stroke-width="1.51"/><path d="M2102,-192L2073,58L2136,224Z" fill="#94763e" stroke="#94763e" stroke-width="1.51"/><path d="M2084,635L2111,795L2136,224Z" fill="#8cb779" stroke="#8cb779" stroke-width="1.51"/><path d="M2081,395L2084,635L2136,224Z" fill="#90ae69" stroke="#90ae69" stroke-width="1.51"/><path d="M1968,1110L1974,1273L2043,1090Z" fill="#25954e" stroke="#25954e" stroke-width="1.51"/><path d="M1924,110L1951,242L2073,58Z" fill="#9e944e" stroke="#9e944e" stroke-width="1.51"/><path d="M1963,406L1955,558L2081,395Z" fill="#96bc74" stroke="#96bc74" stroke-width="1.51"/><path d="M1951,242L1963,406L2081,395Z" fill="#98b165" stroke="#98b165" stroke-width="1.51"/><path d="M1983,973L2043,1090L2094,971Z" fill="#46a053" stroke="#46a053" stroke-width="1.51"/><path d="M1977,829L1983,973L2094,971Z" fill="#5ba957" stroke="#5ba957" stroke-width="1.51"/><path d="M1922,-85L2064,-25L2102,-192Z" fill="#926d36" stroke="#926d36" stroke-width="1.51"/><path d="M1990,651L1977,829L2111,795Z" fill="#78b462" stroke="#78b462" stroke-width="1.51"/><path d="M1974,-265L1922,-85L2102,-192Z" fill="#8a6836" stroke="#8a6836" stroke-width="1.51"/><path d="M2065,594L1990,651L2084,635Z" fill="#87ba72" stroke="#87ba72" stroke-width="1.51"/><path d="M2064,-25L1924,110L2073,58Z" fill="#9b8243" stroke="#9b8243" stroke-width="1.51"/><path d="M1922,-85L1924,110L2064,-25Z" fill="#9c8042" stroke="#9c8042" stroke-width="1.51"/><path d="M1955,558L1990,651L2065,594Z" fill="#8dc078" stroke="#8dc078" stroke-width="1.51"/><path d="M1983,973L1968,1110L2043,1090Z" fill="#3ea054" stroke="#3ea054" stroke-width="1.51"/><path d="M983,-266L1382,-216L1531,-253Z" fill="#c58a4f" stroke="#c58a4f" stroke-width="1.51"/><path d="M1951,242L1798,246L1963,406Z" fill="#a0b463" stroke="#a0b463" stroke-width="1.51"/><path d="M1799,545L1955,558L1963,406Z" fill="#9bc980" stroke="#9bc980" stroke-width="1.51"/><path d="M1832,-114L1922,-85L1974,-265Z" fill="#94733a" stroke="#94733a" stroke-width="1.51"/><path d="M1804,-229L1832,-114L1974,-265Z" fill="#92713c" stroke="#92713c" stroke-width="1.51"/><path d="M1968,1110L1814,1128L1974,1273Z" fill="#259b51" stroke="#259b51" stroke-width="1.51"/><path d="M1814,1128L1968,1110L1983,973Z" fill="#3ea657" stroke="#3ea657" stroke-width="1.51"/><path d="M1767,977L1814,1128L1983,973Z" fill="#51b05c" stroke="#51b05c" stroke-width="1.51"/><path d="M1977,829L1820,790L1983,973Z" fill="#6bb85d" stroke="#6bb85d" stroke-width="1.51"/><path d="M1820,790L1767,977L1983,973Z" fill="#6aba5e" stroke="#6aba5e" stroke-width="1.51"/><path d="M1955,558L1758,646L1990,651Z" fill="#92c97a" stroke="#92c97a" stroke-width="1.51"/><path d="M1758,646L1820,790L1990,651Z" fill="#8ec971" stroke="#8ec971" stroke-width="1.51"/><path d="M1820,790L1977,829L1990,651Z" fill="#7dbf67" stroke="#7dbf67" stroke-width="1.51"/><path d="M1799,545L1758,646L1955,558Z" fill="#9ed082" stroke="#9ed082" stroke-width="1.51"/><path d="M1785,427L1799,545L1963,406Z" fill="#a3ca7d" stroke="#a3ca7d" stroke-width="1.51"/><path d="M1814,1128L1767,1267L1974,1273Z" fill="#289950" stroke="#289950" stroke-width="1.51"/><path d="M1798,246L1785,427L1963,406Z" fill="#a4c06e" stroke="#a4c06e" stroke-width="1.51"/><path d="M1922,-85L1832,-114L1924,110Z" fill="#a18343" stroke="#a18343" stroke-width="1.51"/><path d="M1924,110L1798,246L1951,242Z" fill="#a4a758" stroke="#a4a758" stroke-width="1.51"/><path d="M1832,-114L1776,140L1924,110Z" fill="#aa914c" stroke="#aa914c" stroke-width="1.51"/><path d="M1776,140L1798,246L1924,110Z" fill="#aaa558" stroke="#aaa558" stroke-width="1.51"/><path d="M308,-220L464,-200L983,-266Z" fill="#dd774b" stroke="#dd774b" stroke-width="1.51"/><path d="M1650,-50L1643,66L1776,140Z" fill="#bb9d52" stroke="#bb9d52" stroke-width="1.51"/><path d="M1688,409L1785,427L1798,246Z" fill="#aec872" stroke="#aec872" stroke-width="1.51"/><path d="M1680,262L1688,409L1798,246Z" fill="#b4c26c" stroke="#b4c26c" stroke-width="1.51"/><path d="M1531,-253L1634,-191L1804,-229Z" fill="#a47d43" stroke="#a47d43" stroke-width="1.51"/><path d="M1767,977L1684,1099L1814,1128Z" fill="#57b35e" stroke="#57b35e" stroke-width="1.51"/><path d="M1758,646L1644,697L1820,790Z" fill="#99d174" stroke="#99d174" stroke-width="1.51"/><path d="M1626,839L1767,977L1820,790Z" fill="#80c664" stroke="#80c664" stroke-width="1.51"/><path d="M1650,-50L1776,140L1832,-114Z" fill="#b1904a" stroke="#b1904a" stroke-width="1.51"/><path d="M1804,-229L1634,-191L1832,-114Z" fill="#a07b40" stroke="#a07b40" stroke-width="1.51"/><path d="M1634,-191L1650,-50L1832,-114Z" fill="#af8442" stroke="#af8442" stroke-width="1.51"/><path d="M1684,1099L1767,1267L1814,1128Z" fill="#43a858" stroke="#43a858" stroke-width="1.51"/><path d="M1644,697L1626,839L1820,790Z" fill="#94d06f" stroke="#94d06f" stroke-width="1.51"/><path d="M1785,427L1685,577L1799,545Z" fill="#acd689" stroke="#acd689" stroke-width="1.51"/><path d="M1688,409L1685,577L1785,427Z" fill="#b1d584" stroke="#b1d584" stroke-width="1.51"/><path d="M1776,140L1680,262L1798,246Z" fill="#b3b45f" stroke="#b3b45f" stroke-width="1.51"/><path d="M1685,577L1758,646L1799,545Z" fill="#a8d786" stroke="#a8d786" stroke-width="1.51"/><path d="M1684,1099L1589,1296L1767,1267Z" fill="#45a758" stroke="#45a758" stroke-width="1.51"/><path d="M1626,839L1597,1001L1767,977Z" fill="#7cc665" stroke="#7cc665" stroke-width="1.51"/><path d="M1643,66L1680,262L1776,140Z" fill="#b9ae5c" stroke="#b9ae5c" stroke-width="1.51"/><path d="M1597,1001L1684,1099L1767,977Z" fill="#68be63" stroke="#68be63" stroke-width="1.51"/><path d="M1685,577L1644,697L1758,646Z" fill="#a7d880" stroke="#a7d880" stroke-width="1.51"/><path d="M1462,80L1464,285L1643,66Z" fill="#cdb55e" stroke="#cdb55e" stroke-width="1.51"/><path d="M1643,66L1464,285L1680,262Z" fill="#c4bc62" stroke="#c4bc62" stroke-width="1.51"/><path d="M1464,285L1467,371L1680,262Z" fill="#c9ce70" stroke="#c9ce70" stroke-width="1.51"/><path d="M1506,1282L1589,1296L1684,1099Z" fill="#52ab59" stroke="#52ab59" stroke-width="1.51"/><path d="M1432,1131L1506,1282L1684,1099Z" fill="#62b65d" stroke="#62b65d" stroke-width="1.51"/><path d="M1524,546L1644,697L1685,577Z" fill="#b5df87" stroke="#b5df87" stroke-width="1.51"/><path d="M1680,262L1467,371L1688,409Z" fill="#bfd074" stroke="#bfd074" stroke-width="1.51"/><path d="M1467,371L1524,546L1688,409Z" fill="#c5dd83" stroke="#c5dd83" stroke-width="1.51"/><path d="M1524,546L1685,577L1688,409Z" fill="#bbdf8c" stroke="#bbdf8c" stroke-width="1.51"/><path d="M1597,1001L1432,1131L1684,1099Z" fill="#6ebe62" stroke="#6ebe62" stroke-width="1.51"/><path d="M1472,954L1597,1001L1626,839Z" fill="#8bcc67" stroke="#8bcc67" stroke-width="1.51"/><path d="M1524,546L1450,692L1644,697Z" fill="#bae182" stroke="#bae182" stroke-width="1.51"/><path d="M1467,821L1626,839L1644,697Z" fill="#a2d770" stroke="#a2d770" stroke-width="1.51"/><path d="M1450,692L1467,821L1644,697Z" fill="#b1de76" stroke="#b1de76" stroke-width="1.51"/><path d="M1634,-191L1449,-69L1650,-50Z" fill="#bd8d46" stroke="#bd8d46" stroke-width="1.51"/><path d="M1462,80L1643,66L1650,-50Z" fill="#c59f53" stroke="#c59f53" stroke-width="1.51"/><path d="M1449,-69L1462,80L1650,-50Z" fill="#c99d4f" stroke="#c99d4f" stroke-width="1.51"/><path d="M1531,-253L1449,-69L1634,-191Z" fill="#b88845" stroke="#b88845" stroke-width="1.51"/><path d="M1467,821L1472,954L1626,839Z" fill="#9cd469" stroke="#9cd469" stroke-width="1.51"/><path d="M1472,954L1432,1131L1597,1001Z" fill="#81c866" stroke="#81c866" stroke-width="1.51"/><path d="M1348,134L1383,260L1462,80Z" fill="#dabe63" stroke="#dabe63" stroke-width="1.51"/><path d="M1462,80L1383,260L1464,285Z" fill="#d6c566" stroke="#d6c566" stroke-width="1.51"/><path d="M1467,371L1279,544L1524,546Z" fill="#d5e88d" stroke="#d5e88d" stroke-width="1.51"/><path d="M1382,-216L1449,-69L1531,-253Z" fill="#c08b46" stroke="#c08b46" stroke-width="1.51"/><path d="M1067,1283L844,1344L1201,1302Z" fill="#8ab874" stroke="#8ab874" stroke-width="1.51"/><path d="M1388,963L1432,1131L1472,954Z" fill="#8ccd68" stroke="#8ccd68" stroke-width="1.51"/><path d="M1299,644L1450,692L1524,546Z" fill="#cae988" stroke="#cae988" stroke-width="1.51"/><path d="M1279,544L1299,644L1524,546Z" fill="#d6ee94" stroke="#d6ee94" stroke-width="1.51"/><path d="M1432,1131L1349,1281L1506,1282Z" fill="#69b45b" stroke="#69b45b" stroke-width="1.51"/><path d="M983,-266L1139,-163L1382,-216Z" fill="#d59159" stroke="#d59159" stroke-width="1.51"/><path d="M1304,1188L1349,1281L1432,1131Z" fill="#74bc62" stroke="#74bc62" stroke-width="1.51"/><path d="M1382,-216L1315,-76L1449,-69Z" fill="#d0934a" stroke="#d0934a" stroke-width="1.51"/><path d="M1449,-69L1315,-76L1462,80Z" fill="#d5a051" stroke="#d5a051" stroke-width="1.51"/><path d="M1315,-76L1348,134L1462,80Z" fill="#dcab5a" stroke="#dcab5a" stroke-width="1.51"/><path d="M1464,285L1383,260L1467,371Z" fill="#d5d371" stroke="#d5d371" stroke-width="1.51"/><path d="M1383,260L1313,349L1467,371Z" fill="#d9d878" stroke="#d9d878" stroke-width="1.51"/><path d="M1313,349L1279,544L1467,371Z" fill="#dde588" stroke="#dde588" stroke-width="1.51"/><path d="M1450,692L1294,823L1467,821Z" fill="#b8e175" stroke="#b8e175" stroke-width="1.51"/><path d="M1294,823L1388,963L1467,821Z" fill="#acdc6e" stroke="#acdc6e" stroke-width="1.51"/><path d="M1467,821L1388,963L1472,954Z" fill="#9ed669" stroke="#9ed669" stroke-width="1.51"/><path d="M1299,644L1294,823L1450,692Z" fill="#c8e87f" stroke="#c8e87f" stroke-width="1.51"/><path d="M1388,963L1304,1188L1432,1131Z" fill="#85c767" stroke="#85c767" stroke-width="1.51"/><path d="M464,-200L544,-186L983,-266Z" fill="#e08151" stroke="#e08151" stroke-width="1.51"/><path d="M1218,946L1216,1174L1304,1188Z" fill="#91cd70" stroke="#91cd70" stroke-width="1.51"/><path d="M1315,-76L1173,114L1348,134Z" fill="#e6b161" stroke="#e6b161" stroke-width="1.51"/><path d="M1294,823L1228,887L1388,963Z" fill="#b1de73" stroke="#b1de73" stroke-width="1.51"/><path d="M1228,887L1218,946L1388,963Z" fill="#acdb73" stroke="#acdb73" stroke-width="1.51"/><path d="M1218,946L1304,1188L1388,963Z" fill="#97d270" stroke="#97d270" stroke-width="1.51"/><path d="M1139,-163L1315,-76L1382,-216Z" fill="#d59451" stroke="#d59451" stroke-width="1.51"/><path d="M1348,134L1140,216L1383,260Z" fill="#e5cb6f" stroke="#e5cb6f" stroke-width="1.51"/><path d="M1140,216L1313,349L1383,260Z" fill="#e5d678" stroke="#e5d678" stroke-width="1.51"/><path d="M1152,737L1294,823L1299,644Z" fill="#d0eb85" stroke="#d0eb85" stroke-width="1.51"/><path d="M1181,494L1279,544L1313,349Z" fill="#e6ed95" stroke="#e6ed95" stroke-width="1.51"/><path d="M1173,114L1140,216L1348,134Z" fill="#ecc56f" stroke="#ecc56f" stroke-width="1.51"/><path d="M1304,1188L1201,1302L1349,1281Z" fill="#78b662" stroke="#78b662" stroke-width="1.51"/><path d="M544,-186L789,-194L983,-266Z" fill="#e28b5b" stroke="#e28b5b" stroke-width="1.51"/><path d="M1216,1174L1201,1302L1304,1188Z" fill="#80be68" stroke="#80be68" stroke-width="1.51"/><path d="M1129,362L1181,494L1313,349Z" fill="#ecea8f" stroke="#ecea8f" stroke-width="1.51"/><path d="M1140,216L1129,362L1313,349Z" fill="#edde83" stroke="#edde83" stroke-width="1.51"/><path d="M1129,-82L1173,114L1315,-76Z" fill="#e9a960" stroke="#e9a960" stroke-width="1.51"/><path d="M1139,-163L1129,-82L1315,-76Z" fill="#e39c58" stroke="#e39c58" stroke-width="1.51"/><path d="M1279,544L1181,494L1299,644Z" fill="#e4f49f" stroke="#e4f49f" stroke-width="1.51"/><path d="M1181,494L1152,737L1299,644Z" fill="#e2f397" stroke="#e2f397" stroke-width="1.51"/><path d="M1152,737L1228,887L1294,823Z" fill="#c6e77e" stroke="#c6e77e" stroke-width="1.51"/><path d="M1067,1159L1216,1174L1218,946Z" fill="#9ad176" stroke="#9ad176" stroke-width="1.51"/><path d="M1129,-82L1029,52L1173,114Z" fill="#f3b26d" stroke="#f3b26d" stroke-width="1.51"/><path d="M1045,518L1152,737L1181,494Z" fill="#edf8a6" stroke="#edf8a6" stroke-width="1.51"/><path d="M1067,1283L1201,1302L1216,1174Z" fill="#84bc6c" stroke="#84bc6c" stroke-width="1.51"/><path d="M1067,1159L1067,1283L1216,1174Z" fill="#8cc575" stroke="#8cc575" stroke-width="1.51"/><path d="M1073,942L1067,1159L1218,946Z" fill="#acda80" stroke="#acda80" stroke-width="1.51"/><path d="M1152,737L1061,785L1228,887Z" fill="#cfeb87" stroke="#cfeb87" stroke-width="1.51"/><path d="M1073,942L1218,946L1228,887Z" fill="#b8e17c" stroke="#b8e17c" stroke-width="1.51"/><path d="M1061,785L1073,942L1228,887Z" fill="#c6e783" stroke="#c6e783" stroke-width="1.51"/><path d="M1045,518L1015,706L1152,737Z" fill="#eaf6a1" stroke="#eaf6a1" stroke-width="1.51"/><path d="M1055,293L1129,362L1140,216Z" fill="#f5de8a" stroke="#f5de8a" stroke-width="1.51"/><path d="M1044,374L1045,518L1129,362Z" fill="#f6f0a0" stroke="#f6f0a0" stroke-width="1.51"/><path d="M1129,362L1045,518L1181,494Z" fill="#f3f2a1" stroke="#f3f2a1" stroke-width="1.51"/><path d="M1029,52L1140,216L1173,114Z" fill="#f5c377" stroke="#f5c377" stroke-width="1.51"/><path d="M237,1327L184,1343L562,1316Z" fill="#958245" stroke="#958245" stroke-width="1.51"/><path d="M1008,-55L1029,52L1129,-82Z" fill="#f4ab6d" stroke="#f4ab6d" stroke-width="1.51"/><path d="M1015,706L1061,785L1152,737Z" fill="#ddf195" stroke="#ddf195" stroke-width="1.51"/><path d="M1008,-55L1129,-82L1139,-163Z" fill="#ec9f63" stroke="#ec9f63" stroke-width="1.51"/><path d="M983,-266L935,-169L1139,-163Z" fill="#e49768" stroke="#e49768" stroke-width="1.51"/><path d="M1029,52L1055,293L1140,216Z" fill="#f8cf81" stroke="#f8cf81" stroke-width="1.51"/><path d="M935,-169L1008,-55L1139,-163Z" fill="#ee9e68" stroke="#ee9e68" stroke-width="1.51"/><path d="M929,968L919,1130L1067,1159Z" fill="#abd88b" stroke="#abd88b" stroke-width="1.51"/><path d="M929,968L1067,1159L1073,942Z" fill="#b2dd8a" stroke="#b2dd8a" stroke-width="1.51"/><path d="M1055,293L1044,374L1129,362Z" fill="#f6e794" stroke="#f6e794" stroke-width="1.51"/><path d="M896,659L1015,706L1045,518Z" fill="#f3faaf" stroke="#f3faaf" stroke-width="1.51"/><path d="M1044,374L902,425L1045,518Z" fill="#fcf5ab" stroke="#fcf5ab" stroke-width="1.51"/><path d="M1029,52L892,75L1055,293Z" fill="#fec985" stroke="#fec985" stroke-width="1.51"/><path d="M892,75L902,295L1055,293Z" fill="#ffd890" stroke="#ffd890" stroke-width="1.51"/><path d="M862,795L929,968L1061,785Z" fill="#d6ed96" stroke="#d6ed96" stroke-width="1.51"/><path d="M919,1130L1067,1283L1067,1159Z" fill="#96cb80" stroke="#96cb80" stroke-width="1.51"/><path d="M1061,785L929,968L1073,942Z" fill="#c9e88d" stroke="#c9e88d" stroke-width="1.51"/><path d="M919,1130L844,1344L1067,1283Z" fill="#95c27f" stroke="#95c27f" stroke-width="1.51"/><path d="M902,295L1044,374L1055,293Z" fill="#fde699" stroke="#fde699" stroke-width="1.51"/><path d="M1015,706L862,795L1061,785Z" fill="#e2f39e" stroke="#e2f39e" stroke-width="1.51"/><path d="M902,295L902,425L1044,374Z" fill="#ffeda2" stroke="#ffeda2" stroke-width="1.51"/><path d="M902,425L839,530L1045,518Z" fill="#fff8b3" stroke="#fff8b3" stroke-width="1.51"/><path d="M839,530L896,659L1045,518Z" fill="#fcfcb7" stroke="#fcfcb7" stroke-width="1.51"/><path d="M935,-169L892,-93L1008,-55Z" fill="#f6a16f" stroke="#f6a16f" stroke-width="1.51"/><path d="M1008,-55L892,75L1029,52Z" fill="#fdb57b" stroke="#fdb57b" stroke-width="1.51"/><path d="M892,-93L892,75L1008,-55Z" fill="#fbac75" stroke="#fbac75" stroke-width="1.51"/><path d="M896,659L862,795L1015,706Z" fill="#eaf4a0" stroke="#eaf4a0" stroke-width="1.51"/><path d="M789,-194L935,-169L983,-266Z" fill="#e59468" stroke="#e59468" stroke-width="1.51"/><path d="M892,75L774,260L902,295Z" fill="#ffd084" stroke="#ffd084" stroke-width="1.51"/><path d="M902,295L778,354L902,425Z" fill="#ffe698" stroke="#ffe698" stroke-width="1.51"/><path d="M790,939L713,1138L919,1130Z" fill="#b0d17e" stroke="#b0d17e" stroke-width="1.51"/><path d="M784,1335L844,1344L919,1130Z" fill="#94ba74" stroke="#94ba74" stroke-width="1.51"/><path d="M713,1138L784,1335L919,1130Z" fill="#9bc275" stroke="#9bc275" stroke-width="1.51"/><path d="M790,939L919,1130L929,968Z" fill="#badc88" stroke="#badc88" stroke-width="1.51"/><path d="M862,795L790,939L929,968Z" fill="#cee389" stroke="#cee389" stroke-width="1.51"/><path d="M789,-194L892,-93L935,-169Z" fill="#ee9766" stroke="#ee9766" stroke-width="1.51"/><path d="M892,-93L755,-89L892,75Z" fill="#f9a56b" stroke="#f9a56b" stroke-width="1.51"/><path d="M748,538L730,695L839,530Z" fill="#faf1a3" stroke="#faf1a3" stroke-width="1.51"/><path d="M683,43L774,260L892,75Z" fill="#ffbc74" stroke="#ffbc74" stroke-width="1.51"/><path d="M755,-89L683,43L892,75Z" fill="#fba768" stroke="#fba768" stroke-width="1.51"/><path d="M730,695L862,795L896,659Z" fill="#ebee96" stroke="#ebee96" stroke-width="1.51"/><path d="M839,530L730,695L896,659Z" fill="#f5f2a2" stroke="#f5f2a2" stroke-width="1.51"/><path d="M774,260L778,354L902,295Z" fill="#ffdb8c" stroke="#ffdb8c" stroke-width="1.51"/><path d="M778,354L839,530L902,425Z" fill="#ffeda1" stroke="#ffeda1" stroke-width="1.51"/><path d="M789,-194L755,-89L892,-93Z" fill="#f19660" stroke="#f19660" stroke-width="1.51"/><path d="M778,354L748,538L839,530Z" fill="#ffeea2" stroke="#ffeea2" stroke-width="1.51"/><path d="M688,895L790,939L862,795Z" fill="#d3e181" stroke="#d3e181" stroke-width="1.51"/><path d="M730,695L688,895L862,795Z" fill="#dfe487" stroke="#dfe487" stroke-width="1.51"/><path d="M688,895L541,997L713,1138Z" fill="#bcca71" stroke="#bcca71" stroke-width="1.51"/><path d="M631,827L688,895L730,695Z" fill="#ddde7d" stroke="#ddde7d" stroke-width="1.51"/><path d="M683,43L576,199L774,260Z" fill="#febb6e" stroke="#febb6e" stroke-width="1.51"/><path d="M639,417L748,538L778,354Z" fill="#ffe595" stroke="#ffe595" stroke-width="1.51"/><path d="M713,1138L562,1316L784,1335Z" fill="#97b064" stroke="#97b064" stroke-width="1.51"/><path d="M544,-186L755,-89L789,-194Z" fill="#ea8a54" stroke="#ea8a54" stroke-width="1.51"/><path d="M688,895L713,1138L790,939Z" fill="#bed479" stroke="#bed479" stroke-width="1.51"/><path d="M774,260L639,417L778,354Z" fill="#fedc88" stroke="#fedc88" stroke-width="1.51"/><path d="M576,199L639,417L774,260Z" fill="#fece7b" stroke="#fece7b" stroke-width="1.51"/><path d="M596,689L730,695L748,538Z" fill="#f4e892" stroke="#f4e892" stroke-width="1.51"/><path d="M559,1149L562,1316L713,1138Z" fill="#9eb363" stroke="#9eb363" stroke-width="1.51"/><path d="M552,560L596,689L748,538Z" fill="#f9e494" stroke="#f9e494" stroke-width="1.51"/><path d="M532,-85L683,43L755,-89Z" fill="#f59558" stroke="#f59558" stroke-width="1.51"/><path d="M544,-186L532,-85L755,-89Z" fill="#ee844d" stroke="#ee844d" stroke-width="1.51"/><path d="M639,417L552,560L748,538Z" fill="#ffe499" stroke="#ffe499" stroke-width="1.51"/><path d="M541,997L559,1149L713,1138Z" fill="#afbe69" stroke="#afbe69" stroke-width="1.51"/><path d="M596,689L631,827L730,695Z" fill="#e8df82" stroke="#e8df82" stroke-width="1.51"/><path d="M530,76L576,199L683,43Z" fill="#fca761" stroke="#fca761" stroke-width="1.51"/><path d="M576,199L462,339L639,417Z" fill="#fec775" stroke="#fec775" stroke-width="1.51"/><path d="M532,-85L530,76L683,43Z" fill="#f89557" stroke="#f89557" stroke-width="1.51"/><path d="M631,827L541,997L688,895Z" fill="#ced070" stroke="#ced070" stroke-width="1.51"/><path d="M458,960L541,997L631,827Z" fill="#ccc76a" stroke="#ccc76a" stroke-width="1.51"/><path d="M422,874L458,960L631,827Z" fill="#d3c667" stroke="#d3c667" stroke-width="1.51"/><path d="M464,525L552,560L639,417Z" fill="#ffda90" stroke="#ffda90" stroke-width="1.51"/><path d="M462,339L464,525L639,417Z" fill="#ffd181" stroke="#ffd181" stroke-width="1.51"/><path d="M390,724L422,874L596,689Z" fill="#e6ca70" stroke="#e6ca70" stroke-width="1.51"/><path d="M596,689L422,874L631,827Z" fill="#e0d173" stroke="#e0d173" stroke-width="1.51"/><path d="M410,1237L237,1327L562,1316Z" fill="#988f4c" stroke="#988f4c" stroke-width="1.51"/><path d="M559,1149L410,1237L562,1316Z" fill="#9da458" stroke="#9da458" stroke-width="1.51"/><path d="M552,560L390,724L596,689Z" fill="#f4d580" stroke="#f4d580" stroke-width="1.51"/><path d="M423,35L530,76L532,-85Z" fill="#f78b50" stroke="#f78b50" stroke-width="1.51"/><path d="M464,525L390,724L552,560Z" fill="#fad285" stroke="#fad285" stroke-width="1.51"/><path d="M541,997L395,1137L559,1149Z" fill="#b1b460" stroke="#b1b460" stroke-width="1.51"/><path d="M530,76L407,183L576,199Z" fill="#fca65d" stroke="#fca65d" stroke-width="1.51"/><path d="M407,183L462,339L576,199Z" fill="#feb365" stroke="#feb365" stroke-width="1.51"/><path d="M458,960L395,1137L541,997Z" fill="#bcb761" stroke="#bcb761" stroke-width="1.51"/><path d="M395,1137L410,1237L559,1149Z" fill="#a5a658" stroke="#a5a658" stroke-width="1.51"/><path d="M464,-200L532,-85L544,-186Z" fill="#e77645" stroke="#e77645" stroke-width="1.51"/><path d="M18,-208L159,-187L308,-220Z" fill="#d43f30" stroke="#d43f30" stroke-width="1.51"/><path d="M385,-6L423,35L532,-85Z" fill="#f3804a" stroke="#f3804a" stroke-width="1.51"/><path d="M332,593L336,672L390,724Z" fill="#f3c274" stroke="#f3c274" stroke-width="1.51"/><path d="M332,593L390,724L464,525Z" fill="#f9c97e" stroke="#f9c97e" stroke-width="1.51"/><path d="M423,35L407,183L530,76Z" fill="#fa9555" stroke="#fa9555" stroke-width="1.51"/><path d="M464,-200L385,-6L532,-85Z" fill="#ee7643" stroke="#ee7643" stroke-width="1.51"/><path d="M390,724L325,814L422,874Z" fill="#e0bd65" stroke="#e0bd65" stroke-width="1.51"/><path d="M240,1003L395,1137L458,960Z" fill="#bcab5a" stroke="#bcab5a" stroke-width="1.51"/><path d="M407,183L245,217L462,339Z" fill="#fca65e" stroke="#fca65e" stroke-width="1.51"/><path d="M462,339L246,430L464,525Z" fill="#ffc179" stroke="#ffc179" stroke-width="1.51"/><path d="M246,430L332,593L464,525Z" fill="#ffc382" stroke="#ffc382" stroke-width="1.51"/><path d="M265,-104L385,-6L464,-200Z" fill="#eb693e" stroke="#eb693e" stroke-width="1.51"/><path d="M308,-220L265,-104L464,-200Z" fill="#e05d3b" stroke="#e05d3b" stroke-width="1.51"/><path d="M245,217L246,430L462,339Z" fill="#fdab65" stroke="#fdab65" stroke-width="1.51"/><path d="M422,874L240,1003L458,960Z" fill="#cab35d" stroke="#cab35d" stroke-width="1.51"/><path d="M395,1137L300,1195L410,1237Z" fill="#a49b52" stroke="#a49b52" stroke-width="1.51"/><path d="M300,1195L237,1327L410,1237Z" fill="#9d8c4a" stroke="#9d8c4a" stroke-width="1.51"/><path d="M325,814L240,1003L422,874Z" fill="#d2b15b" stroke="#d2b15b" stroke-width="1.51"/><path d="M241,128L407,183L423,35Z" fill="#f98c50" stroke="#f98c50" stroke-width="1.51"/><path d="M385,-6L241,128L423,35Z" fill="#f77e4a" stroke="#f77e4a" stroke-width="1.51"/><path d="M241,128L245,217L407,183Z" fill="#fa9052" stroke="#fa9052" stroke-width="1.51"/><path d="M240,1003L300,1195L395,1137Z" fill="#af9d52" stroke="#af9d52" stroke-width="1.51"/><path d="M336,672L325,814L390,724Z" fill="#e9be6a" stroke="#e9be6a" stroke-width="1.51"/><path d="M265,-104L241,128L385,-6Z" fill="#f26f43" stroke="#f26f43" stroke-width="1.51"/><path d="M150,55L241,128L265,-104Z" fill="#f16840" stroke="#f16840" stroke-width="1.51"/><path d="M81,851L240,1003L325,814Z" fill="#d2a553" stroke="#d2a553" stroke-width="1.51"/><path d="M246,430L186,489L332,593Z" fill="#ffb67b" stroke="#ffb67b" stroke-width="1.51"/><path d="M332,593L128,668L336,672Z" fill="#f4b771" stroke="#f4b771" stroke-width="1.51"/><path d="M128,668L325,814L336,672Z" fill="#ecb466" stroke="#ecb466" stroke-width="1.51"/><path d="M186,489L128,668L332,593Z" fill="#fab476" stroke="#fab476" stroke-width="1.51"/><path d="M240,1003L88,1115L300,1195Z" fill="#af924c" stroke="#af924c" stroke-width="1.51"/><path d="M128,668L81,851L325,814Z" fill="#e0a75b" stroke="#e0a75b" stroke-width="1.51"/><path d="M245,217L105,373L246,430Z" fill="#f99f5f" stroke="#f99f5f" stroke-width="1.51"/><path d="M121,-38L150,55L265,-104Z" fill="#ea5a39" stroke="#ea5a39" stroke-width="1.51"/><path d="M159,-187L265,-104L308,-220Z" fill="#de4d35" stroke="#de4d35" stroke-width="1.51"/><path d="M92,277L105,373L245,217Z" fill="#f69255" stroke="#f69255" stroke-width="1.51"/><path d="M184,1343L237,1327L300,1195Z" fill="#997e42" stroke="#997e42" stroke-width="1.51"/><path d="M88,1115L184,1343L300,1195Z" fill="#9e8444" stroke="#9e8444" stroke-width="1.51"/><path d="M81,851L102,1003L240,1003Z" fill="#c4994e" stroke="#c4994e" stroke-width="1.51"/><path d="M102,1003L88,1115L240,1003Z" fill="#b7934b" stroke="#b7934b" stroke-width="1.51"/><path d="M159,-187L121,-38L265,-104Z" fill="#e34c32" stroke="#e34c32" stroke-width="1.51"/><path d="M150,55L92,277L241,128Z" fill="#f47b47" stroke="#f47b47" stroke-width="1.51"/><path d="M241,128L92,277L245,217Z" fill="#f7894e" stroke="#f7894e" stroke-width="1.51"/><path d="M105,373L186,489L246,430Z" fill="#fba76a" stroke="#fba76a" stroke-width="1.51"/><path d="M-36,94L92,277L150,55Z" fill="#ee6f41" stroke="#ee6f41" stroke-width="1.51"/><path d="M-35,1246L-166,1317L184,1343Z" fill="#8d6632" stroke="#8d6632" stroke-width="1.51"/><path d="M88,1115L-35,1246L184,1343Z" fill="#98783c" stroke="#98783c" stroke-width="1.51"/><path d="M105,373L22,391L186,489Z" fill="#f79f63" stroke="#f79f63" stroke-width="1.51"/><path d="M22,391L-43,549L186,489Z" fill="#f69f69" stroke="#f69f69" stroke-width="1.51"/><path d="M-43,549L128,668L186,489Z" fill="#f5a870" stroke="#f5a870" stroke-width="1.51"/><path d="M-36,94L-53,230L92,277Z" fill="#ec7342" stroke="#ec7342" stroke-width="1.51"/><path d="M18,-208L-33,-109L121,-38Z" fill="#d93629" stroke="#d93629" stroke-width="1.51"/><path d="M18,-208L121,-38L159,-187Z" fill="#d93d2c" stroke="#d93d2c" stroke-width="1.51"/><path d="M-11,847L81,851L128,668Z" fill="#d99c52" stroke="#d99c52" stroke-width="1.51"/><path d="M121,-38L-36,94L150,55Z" fill="#ea5939" stroke="#ea5939" stroke-width="1.51"/><path d="M81,851L-10,997L102,1003Z" fill="#c19148" stroke="#c19148" stroke-width="1.51"/><path d="M-56,655L-11,847L128,668Z" fill="#e09b55" stroke="#e09b55" stroke-width="1.51"/><path d="M-43,549L-56,655L128,668Z" fill="#ec9e63" stroke="#ec9e63" stroke-width="1.51"/><path d="M-33,-109L-36,94L121,-38Z" fill="#e14830" stroke="#e14830" stroke-width="1.51"/><path d="M-11,847L-10,997L81,851Z" fill="#c79147" stroke="#c79147" stroke-width="1.51"/><path d="M-10,997L88,1115L102,1003Z" fill="#b38b47" stroke="#b38b47" stroke-width="1.51"/><path d="M92,277L22,391L105,373Z" fill="#f39358" stroke="#f39358" stroke-width="1.51"/><path d="M-10,997L-53,1089L88,1115Z" fill="#ad8342" stroke="#ad8342" stroke-width="1.51"/><path d="M-53,1089L-35,1246L88,1115Z" fill="#a07a3d" stroke="#a07a3d" stroke-width="1.51"/><path d="M-53,230L22,391L92,277Z" fill="#f0864f" stroke="#f0864f" stroke-width="1.51"/><path d="M-163,42L-36,94L-33,-109Z" fill="#db4532" stroke="#db4532" stroke-width="1.51"/><path d="M-133,342L-43,549L22,391Z" fill="#ec925e" stroke="#ec925e" stroke-width="1.51"/><path d="M-53,230L-133,342L22,391Z" fill="#e98450" stroke="#e98450" stroke-width="1.51"/><path d="M-56,655L-184,680L-11,847Z" fill="#d69354" stroke="#d69354" stroke-width="1.51"/><path d="M-11,847L-204,937L-10,997Z" fill="#ba8845" stroke="#ba8845" stroke-width="1.51"/><path d="M-193,-217L-33,-109L18,-208Z" fill="#c62427" stroke="#c62427" stroke-width="1.51"/><path d="M-133,342L-217,545L-43,549Z" fill="#e49165" stroke="#e49165" stroke-width="1.51"/><path d="M-53,1089L-207,1144L-35,1246Z" fill="#94733c" stroke="#94733c" stroke-width="1.51"/><path d="M-184,680L-220,847L-11,847Z" fill="#c78c4e" stroke="#c78c4e" stroke-width="1.51"/><path d="M-220,847L-204,937L-11,847Z" fill="#bb8746" stroke="#bb8746" stroke-width="1.51"/><path d="M-204,937L-53,1089L-10,997Z" fill="#ac8243" stroke="#ac8243" stroke-width="1.51"/><path d="M-163,42L-199,261L-53,230Z" fill="#dc6640" stroke="#dc6640" stroke-width="1.51"/><path d="M-163,42L-53,230L-36,94Z" fill="#e05e3b" stroke="#e05e3b" stroke-width="1.51"/><path d="M-207,1144L-166,1317L-35,1246Z" fill="#876737" stroke="#876737" stroke-width="1.51"/><path d="M-217,-74L-163,42L-33,-109Z" fill="#cf362d" stroke="#cf362d" stroke-width="1.51"/><path d="M-193,-217L-217,-74L-33,-109Z" fill="#c52327" stroke="#c52327" stroke-width="1.51"/><path d="M-217,545L-56,655L-43,549Z" fill="#e49768" stroke="#e49768" stroke-width="1.51"/><path d="M-217,545L-184,680L-56,655Z" fill="#da9361" stroke="#da9361" stroke-width="1.51"/><path d="M-204,937L-207,1144L-53,1089Z" fill="#9e7941" stroke="#9e7941" stroke-width="1.51"/><path d="M-199,261L-133,342L-53,230Z" fill="#e0794a" stroke="#e0794a" stroke-width="1.51"/><path d="M-199,261L-217,545L-133,342Z" fill="#dd8557" stroke="#dd8557" stroke-width="1.51"/><path d="M-217,-74L-199,261L-163,42Z" fill="#d34c36" stroke="#d34c36" stroke-width="1.51"/><path d="M-217,545L-220,847L-184,680Z" fill="#cd8c57" stroke="#cd8c57" stroke-width="1.51"/><path d="M-220,847L-207,1144L-204,937Z" fill="#a47c44" stroke="#a47c44" stroke-width="1.51"/><path d="M-217,-74L-217,545L-199,261Z" fill="#d76d46" stroke="#d76d46" stroke-width="1.51"/></svg>